{"glyphs":{"0":{"ha":985,"x_min":34,"x_max":951,"o":"m 451 3 q 472 3 455 3 l 511 3 q 557 5 540 3 q 589 9 575 6 q 902 258 802 58 q 951 473 951 363 q 924 640 951 555 q 780 857 879 770 q 551 966 681 943 q 480 970 521 970 q 412 966 439 970 q 164 833 264 938 q 38 571 64 728 q 34 496 34 538 q 38 422 34 456 q 189 129 66 248 q 451 3 297 26 m 195 686 q 172 663 185 663 q 161 665 167 663 q 149 686 149 671 q 157 713 149 696 q 294 863 201 796 q 323 875 311 875 q 340 861 334 875 q 341 855 341 858 q 336 841 341 849 q 308 817 330 833 q 195 686 227 757 m 144 568 q 128 562 136 562 q 114 567 123 562 q 104 588 104 572 q 130 614 104 612 q 146 611 141 614 q 154 602 151 608 q 157 591 157 597 q 155 582 157 588 q 144 568 153 575 m 551 245 q 528 240 539 240 q 473 274 503 240 q 422 390 443 307 q 408 510 408 448 q 409 562 408 520 q 432 656 411 604 q 500 722 460 722 q 523 721 501 722 q 581 650 544 720 q 621 488 615 578 q 623 450 623 469 q 604 323 623 382 q 551 245 584 262 "},"1":{"ha":613,"x_min":34,"x_max":579,"o":"m 364 24 q 394 21 377 21 q 413 22 399 21 q 446 28 428 22 q 574 246 549 65 q 579 418 579 292 q 578 580 579 487 q 572 746 576 696 q 560 829 568 796 q 414 951 529 951 q 258 912 349 951 q 39 696 92 834 q 34 654 34 682 q 39 618 34 631 q 57 596 44 606 q 90 587 68 587 q 140 595 111 587 q 191 604 172 604 q 207 602 196 604 q 227 578 218 600 q 237 533 235 564 q 240 426 240 503 q 283 92 240 170 q 364 24 311 41 m 213 779 q 201 776 207 776 q 189 780 196 776 q 181 798 181 785 q 184 809 181 805 q 194 820 186 813 q 239 850 210 833 q 296 878 268 866 q 336 890 324 890 q 351 884 344 890 q 358 869 358 877 q 354 860 358 865 q 346 850 351 854 q 338 846 341 846 q 307 834 331 846 q 259 809 283 823 q 226 788 235 795 q 219 783 223 785 q 213 779 216 780 m 159 713 q 140 705 150 705 q 129 707 137 705 q 118 725 121 709 q 117 731 117 728 q 118 736 117 734 q 124 744 119 739 q 144 753 134 753 q 151 752 145 753 q 163 741 157 752 q 167 729 167 735 q 159 713 167 720 "},"2":{"ha":919,"x_min":34,"x_max":885,"o":"m 328 -4 q 382 -5 345 -5 l 419 -5 q 469 -4 439 -5 q 524 -3 498 -4 q 851 87 762 11 q 883 138 875 107 q 885 155 885 146 q 874 196 885 174 q 836 230 863 218 q 754 243 806 243 q 659 235 713 243 q 562 226 596 226 q 519 240 519 226 q 552 274 519 249 q 625 323 584 300 q 755 421 711 372 q 762 429 759 425 q 770 438 766 434 q 776 445 774 443 q 803 481 787 457 q 829 523 819 505 q 858 614 850 566 q 860 642 860 628 q 831 766 860 699 q 728 899 795 850 q 500 977 642 966 q 470 978 486 978 q 373 967 428 978 q 266 931 317 956 q 250 924 257 927 q 243 921 243 921 q 237 918 242 921 q 224 910 231 915 q 57 745 101 840 q 34 661 34 699 q 51 602 34 629 q 133 557 79 557 l 139 557 q 188 570 164 557 q 260 620 212 582 q 369 696 332 678 q 454 722 416 720 l 460 722 q 509 704 493 722 q 522 661 522 690 q 522 650 522 656 q 518 627 521 636 q 508 602 515 617 q 475 548 496 577 q 428 493 453 518 q 261 365 389 454 q 219 332 236 348 q 186 296 202 317 q 125 146 125 212 q 148 71 125 105 q 221 23 170 44 q 328 -4 273 1 m 262 826 q 231 806 241 810 q 225 806 228 806 q 212 811 218 806 q 205 828 205 818 q 206 838 205 833 q 229 858 210 843 q 276 890 249 873 q 325 920 302 907 q 363 932 349 932 q 378 926 373 932 q 386 911 386 918 q 384 901 386 907 q 366 888 381 894 q 319 865 350 883 q 262 826 289 846 m 170 745 q 161 742 164 743 q 157 741 159 741 q 155 742 156 741 q 149 745 153 743 q 136 766 136 752 q 137 774 136 770 q 160 793 144 793 l 164 793 q 180 784 172 791 q 188 770 188 776 q 182 756 188 764 q 170 745 177 748 "},"3":{"ha":871,"x_min":34,"x_max":837,"o":"m 286 9 q 353 6 311 6 l 369 6 q 424 8 400 6 q 620 66 522 18 q 728 146 676 94 q 831 317 809 223 q 836 344 836 333 q 837 357 837 349 q 836 373 837 364 q 826 427 835 405 q 794 475 817 449 q 761 504 781 490 q 700 538 741 517 q 660 560 671 553 q 644 574 649 568 q 635 598 635 585 q 641 620 635 608 q 662 650 646 634 q 714 696 677 665 q 771 747 753 729 q 801 783 789 765 q 820 840 820 812 q 811 877 820 859 q 690 949 789 932 q 628 959 661 956 q 540 966 596 962 q 480 967 510 967 q 263 949 371 967 q 57 863 115 923 q 34 805 34 840 l 34 800 q 36 785 34 791 q 43 767 37 779 q 117 718 61 728 q 156 713 136 713 q 208 717 176 713 q 284 721 246 721 q 347 717 323 721 q 405 689 386 709 q 413 674 412 680 q 406 654 413 667 q 387 630 400 642 q 340 597 373 618 q 291 562 307 576 q 267 532 275 547 q 260 513 261 520 q 259 503 259 509 l 259 494 q 348 428 259 446 q 413 413 390 418 q 449 403 437 407 q 471 394 462 399 q 525 326 522 370 q 526 319 526 322 q 525 311 526 315 q 520 299 524 306 q 504 275 513 286 q 489 263 494 263 q 483 262 487 263 q 475 258 478 260 q 439 248 457 248 q 419 251 429 248 q 382 268 402 256 q 326 307 361 280 q 303 323 315 315 q 286 335 292 331 q 210 353 250 353 q 177 350 194 353 q 158 344 170 349 q 136 334 146 340 q 110 320 119 327 q 86 299 100 313 q 39 214 48 262 q 35 182 35 197 q 56 113 35 145 q 231 20 101 52 l 239 18 l 252 15 q 265 13 256 14 q 286 9 275 11 m 422 890 q 396 887 410 888 q 370 885 381 886 q 352 884 358 884 q 344 885 347 884 q 338 890 341 887 q 332 906 332 898 q 334 917 332 909 q 352 927 337 924 q 387 931 362 929 q 436 935 411 933 q 470 937 460 937 q 484 937 479 937 q 491 934 488 936 q 498 929 494 932 q 506 913 506 921 q 499 899 506 906 q 493 895 496 896 q 485 893 490 893 q 470 892 480 892 q 447 891 461 892 q 422 890 433 890 m 275 874 q 254 864 266 864 q 243 866 248 864 q 229 882 230 871 q 228 886 228 884 q 236 903 228 895 q 255 912 245 912 q 266 910 258 912 q 279 898 274 909 q 281 890 281 894 q 275 874 281 882 "},"4":{"ha":983,"x_min":34,"x_max":949,"o":"m 583 15 q 625 12 606 12 q 738 52 703 12 q 783 155 783 101 q 783 167 783 161 q 780 194 780 185 l 780 197 q 783 206 780 203 q 793 212 785 209 q 809 217 800 216 q 825 218 814 218 l 844 218 q 879 221 866 218 q 905 237 892 224 q 949 342 946 275 l 949 353 q 905 432 949 412 q 891 437 898 435 q 876 440 885 439 q 850 441 866 441 q 819 444 829 442 q 804 449 808 446 q 797 458 799 452 q 789 492 791 471 q 789 517 789 503 q 789 551 789 532 q 792 688 792 632 q 789 784 792 736 q 770 865 787 831 q 631 960 731 960 q 604 958 618 960 q 463 896 536 950 q 369 814 425 867 q 260 704 313 762 q 221 663 244 687 q 180 618 199 638 q 144 580 161 599 q 120 553 127 562 q 34 364 39 455 l 34 353 q 75 252 34 296 q 212 201 112 211 q 283 197 248 197 q 357 201 320 197 q 422 207 399 205 q 448 208 438 208 q 460 207 453 208 q 474 203 467 207 q 490 192 485 199 q 496 167 495 184 l 496 157 q 494 114 496 140 q 493 85 493 95 q 495 71 493 76 q 500 59 496 66 q 508 46 503 52 q 515 37 512 40 q 546 23 527 30 q 583 15 566 17 m 366 696 q 358 694 362 694 q 344 699 352 694 q 336 715 336 704 q 340 728 336 722 q 355 747 344 734 q 388 780 367 760 q 429 819 408 800 q 460 846 449 838 q 486 857 475 857 q 505 842 498 857 q 506 838 506 840 q 488 812 506 825 q 464 790 482 807 q 422 751 445 772 q 384 713 400 729 q 366 696 368 698 m 307 624 q 294 619 299 619 l 293 619 q 282 623 288 619 q 271 644 271 630 q 272 656 271 646 q 288 672 273 665 q 295 673 291 673 q 307 671 300 673 q 318 660 313 668 q 321 650 321 654 q 319 640 321 646 q 307 624 316 629 m 497 534 q 493 486 497 510 q 469 439 488 461 q 393 410 435 410 q 362 413 378 410 q 347 426 349 417 q 347 431 347 429 q 351 447 347 437 q 362 465 355 456 q 368 474 365 470 q 407 533 383 501 q 456 592 430 566 q 482 608 471 608 q 490 607 484 608 q 497 578 496 606 l 497 534 "},"5":{"ha":852,"x_min":34,"x_max":819,"o":"m 363 17 q 405 16 384 16 q 475 19 434 16 q 555 33 517 22 q 720 127 658 64 q 782 224 755 164 q 817 336 810 283 q 819 358 819 347 q 775 491 819 425 q 650 593 732 557 q 551 617 602 613 q 535 618 541 618 q 528 620 528 619 q 518 621 526 621 q 497 623 509 622 q 404 672 404 629 q 406 681 404 676 q 410 690 407 686 q 489 721 431 721 q 524 719 505 721 q 569 712 553 714 q 595 709 585 709 q 618 708 606 708 q 751 778 718 708 q 759 793 756 787 q 761 806 761 800 q 762 826 762 813 q 761 846 762 839 q 759 859 761 852 q 751 874 756 865 q 689 934 732 913 q 614 955 658 950 q 552 957 590 957 q 480 956 521 957 q 371 948 409 954 q 300 932 333 943 q 247 908 270 923 q 199 869 224 894 q 153 811 168 839 q 126 735 138 783 q 104 585 104 646 q 142 468 104 504 q 162 452 153 457 q 193 440 172 447 q 296 426 227 428 q 448 409 402 423 q 513 359 494 395 q 523 327 523 342 q 517 302 523 315 q 486 270 507 285 q 443 250 465 255 q 420 248 431 248 q 375 258 399 248 q 309 310 350 269 q 279 337 290 329 q 254 351 269 345 q 185 368 220 368 q 111 349 148 368 q 34 221 34 305 q 38 181 34 202 q 142 64 57 104 q 195 44 161 55 q 247 31 229 34 q 251 30 249 30 q 259 28 255 28 q 268 26 264 27 q 304 22 276 24 q 363 17 332 19 m 239 771 q 226 764 233 764 q 212 770 219 764 q 203 787 203 777 q 230 831 203 804 q 315 891 267 868 q 342 901 334 899 q 346 902 344 902 q 357 899 352 902 q 365 892 363 895 q 368 881 368 888 q 365 870 368 874 q 355 861 363 865 q 333 849 348 857 q 285 820 307 836 q 254 789 263 804 q 246 779 250 784 q 239 771 242 774 m 198 690 q 180 683 191 683 q 157 708 159 683 q 167 729 157 722 q 178 732 172 732 q 191 729 184 732 q 205 711 202 723 q 205 707 205 709 q 198 690 205 697 "},"6":{"ha":956,"x_min":34,"x_max":922,"o":"m 458 12 q 524 9 488 9 q 590 11 547 9 q 684 24 634 14 q 763 48 725 32 q 825 84 801 65 q 910 229 884 133 q 922 317 922 274 q 889 454 922 388 q 871 486 879 475 q 848 513 863 498 q 763 574 811 553 q 632 608 703 604 q 618 608 626 608 q 493 591 574 608 q 425 581 448 581 q 401 587 406 581 q 395 601 395 593 q 399 617 395 606 q 420 642 404 628 q 612 694 469 683 q 758 730 701 699 q 817 783 800 752 q 823 797 821 791 q 826 811 825 803 q 826 835 826 819 q 826 859 826 850 q 824 872 825 867 q 818 886 822 878 q 722 956 793 937 q 639 964 688 964 q 584 962 625 964 q 477 947 543 961 q 208 819 328 913 q 158 771 184 800 q 117 720 132 743 q 50 564 73 653 q 37 480 41 527 q 34 435 34 453 q 35 414 34 422 q 38 395 37 408 q 41 368 40 382 q 54 299 45 336 q 75 236 64 262 q 218 77 123 133 q 458 12 307 31 m 268 736 q 245 715 256 724 q 233 706 235 707 q 228 705 231 705 q 213 713 219 705 q 208 728 208 720 q 208 734 208 731 q 231 762 211 743 q 277 803 250 781 q 326 840 303 825 q 366 863 349 854 q 388 873 384 873 q 397 869 392 873 q 406 859 402 865 q 410 849 410 853 q 370 813 410 834 q 268 736 320 785 m 186 623 q 165 613 176 613 q 158 614 162 613 q 142 632 145 621 q 142 637 142 635 q 148 655 142 646 q 168 664 153 664 q 192 642 189 664 q 193 637 193 640 q 192 632 193 635 q 186 623 191 629 m 515 239 q 494 237 504 237 q 429 272 455 237 q 413 321 413 298 q 424 361 413 336 q 479 388 435 386 q 552 338 532 383 q 559 305 559 321 q 539 255 559 279 q 515 239 526 242 "},"7":{"ha":845,"x_min":20,"x_max":825,"o":"m 315 7 q 340 5 326 5 q 369 6 350 5 q 405 11 387 7 q 448 29 424 16 q 483 52 471 41 q 505 80 493 62 q 528 117 517 98 q 545 172 536 135 q 559 252 553 209 q 586 373 568 323 q 648 493 605 423 q 681 539 658 507 q 724 595 705 571 q 760 648 739 614 q 798 713 781 682 q 814 751 814 744 q 816 759 814 753 q 820 772 818 764 q 825 809 825 786 l 825 815 q 824 834 825 827 q 821 848 823 842 q 814 863 819 854 q 705 944 788 920 q 457 967 623 967 l 448 967 q 48 880 135 965 q 27 852 33 865 q 21 820 22 839 q 20 808 20 813 q 21 797 20 802 q 28 780 22 791 q 153 720 55 726 l 166 720 q 184 721 173 720 q 222 723 195 721 q 303 731 250 726 q 345 734 327 734 q 360 733 348 734 q 390 728 372 732 q 421 718 412 723 q 433 706 431 713 q 435 696 435 701 q 388 603 435 663 q 247 408 311 512 q 170 181 182 303 l 170 169 q 238 33 170 80 q 273 17 252 24 q 315 7 295 9 m 322 886 q 304 883 313 884 q 288 881 294 882 q 279 880 283 880 q 274 881 277 880 q 268 884 271 881 q 260 899 260 890 l 260 901 q 265 915 260 908 q 294 927 271 923 q 369 932 317 931 l 429 934 l 437 926 q 444 910 444 918 q 437 895 444 903 q 432 891 435 892 q 425 889 430 890 q 411 888 420 888 q 386 888 402 888 q 349 887 367 888 q 322 886 331 886 m 205 865 q 188 857 197 857 q 173 864 180 857 q 166 880 166 872 q 175 900 166 890 q 184 907 180 905 q 188 907 186 907 q 193 907 191 907 q 213 890 210 903 q 214 884 214 887 q 205 865 214 874 "},"8":{"ha":938,"x_min":34,"x_max":904,"o":"m 299 9 q 355 8 313 8 l 382 8 q 448 9 411 8 q 510 12 486 9 q 648 34 590 19 q 764 76 705 48 q 901 222 885 131 q 904 245 903 236 q 902 269 904 255 q 893 312 899 294 q 877 353 887 331 q 807 446 852 406 l 803 450 q 777 474 786 465 q 763 487 767 482 q 759 496 759 492 l 759 505 q 792 569 762 530 q 858 703 846 640 q 861 726 861 716 q 859 754 861 736 q 847 808 856 781 q 827 852 839 834 q 667 956 773 933 q 555 964 629 964 l 517 965 q 395 961 461 965 q 287 948 328 957 q 145 884 199 928 q 116 848 134 873 q 90 805 99 823 q 73 722 75 765 l 73 715 q 85 649 73 676 q 99 631 88 644 q 123 604 109 618 q 160 562 149 578 q 174 530 172 545 q 176 518 176 524 q 174 507 176 513 q 161 487 172 500 q 124 452 149 474 q 50 365 68 402 q 34 290 34 334 q 35 273 34 282 q 37 239 35 252 q 45 212 39 227 q 130 83 71 135 q 299 9 199 26 m 184 764 q 161 743 176 743 q 155 744 158 743 q 143 754 148 746 q 139 769 139 762 l 139 771 q 166 821 144 791 q 213 872 188 851 q 253 898 231 887 q 290 912 275 909 q 296 913 294 913 q 320 899 313 913 q 322 890 322 895 q 317 876 322 884 q 300 868 311 868 q 289 865 297 868 q 273 858 281 863 q 222 819 246 844 q 184 764 197 793 m 161 669 q 141 659 152 659 q 133 661 137 659 q 119 678 121 666 q 119 684 119 681 q 125 702 119 692 q 144 711 131 711 q 167 697 161 711 q 169 688 169 692 q 161 669 169 678 m 477 640 q 468 636 473 638 q 460 634 463 635 l 458 634 q 439 640 450 634 q 420 657 428 646 q 414 667 416 663 q 412 677 412 671 q 412 695 412 684 q 413 718 412 711 q 418 732 414 726 q 465 768 437 768 q 473 767 469 768 q 511 707 511 758 q 477 640 511 660 m 474 215 q 466 212 471 214 q 456 211 460 211 q 433 223 446 211 q 413 251 420 235 q 399 323 399 286 q 402 363 399 334 q 431 419 406 392 q 442 427 437 425 q 457 429 446 429 q 468 428 465 429 q 476 424 472 427 q 486 414 479 421 q 514 344 509 391 q 515 318 515 331 q 506 259 515 290 q 474 215 496 228 "},"9":{"ha":956,"x_min":34,"x_max":922,"o":"m 285 9 q 313 9 298 9 q 386 12 342 9 q 474 24 430 16 q 748 153 627 58 q 798 201 772 172 q 840 252 824 230 q 907 409 884 319 q 920 492 916 446 q 922 536 922 518 q 921 559 922 550 q 918 578 920 566 q 915 604 916 591 q 903 673 912 636 q 882 736 893 711 q 738 895 833 840 q 687 917 718 906 q 622 938 656 928 q 418 964 517 964 q 268 949 366 964 q 104 863 170 935 q 46 743 65 814 q 34 656 34 699 q 67 519 34 585 q 85 486 77 498 q 109 459 93 475 q 146 425 127 438 q 192 399 165 411 q 324 365 252 369 q 338 364 331 364 q 463 382 383 364 q 532 392 508 392 q 555 386 550 392 q 561 372 561 380 q 557 355 561 366 q 536 330 553 344 q 345 279 487 290 q 199 242 255 273 q 140 189 156 220 q 134 175 136 181 q 131 162 132 170 q 130 138 130 154 q 131 114 130 122 q 133 100 132 106 q 138 86 135 94 q 285 9 170 18 m 155 722 q 142 718 151 718 l 140 718 q 128 721 134 718 q 121 732 123 725 q 119 741 119 736 q 120 747 119 744 q 142 791 126 766 q 178 838 159 817 q 232 879 199 859 q 285 903 264 899 l 289 903 q 303 899 296 903 q 312 888 311 895 q 313 883 313 885 q 310 872 313 878 q 302 864 307 867 q 287 857 298 862 l 277 852 q 168 745 203 819 q 161 731 165 738 q 155 722 157 725 m 126 637 q 110 630 119 630 q 98 632 106 630 q 85 648 90 634 q 85 655 85 652 q 91 670 85 663 q 106 678 96 677 l 109 678 q 125 671 119 678 q 132 654 132 664 q 126 637 132 646 m 514 595 q 476 585 494 585 q 429 603 452 585 q 398 667 398 629 q 400 688 398 677 q 417 717 405 704 q 441 734 429 730 q 463 736 452 736 q 507 723 484 736 q 541 672 530 709 q 543 654 543 663 q 537 625 543 642 q 514 595 532 608 "},"\u0000":{"ha":339,"x_min":0,"x_max":0,"o":""},"\u001d":{"ha":339,"x_min":0,"x_max":0,"o":""}," ":{"ha":339,"x_min":0,"x_max":0,"o":""}," ":{"ha":339,"x_min":0,"x_max":0,"o":""},"!":{"ha":502,"x_min":68,"x_max":434,"o":"m 213 342 q 235 340 223 340 q 249 340 239 340 q 272 347 260 341 q 317 389 295 359 q 351 456 338 418 q 378 600 368 511 q 387 743 387 674 q 386 772 387 758 q 327 963 382 911 q 294 985 315 975 q 256 998 273 995 q 239 1000 248 1000 q 181 986 212 1000 q 132 943 151 972 q 116 903 125 929 q 102 856 106 878 q 94 760 94 813 q 122 516 94 657 q 213 342 151 355 m 197 628 q 180 619 189 619 q 172 621 178 619 q 159 637 165 623 q 150 762 151 667 l 150 785 q 152 851 150 828 q 161 880 155 874 q 176 886 168 886 q 192 879 184 886 q 197 873 195 876 q 198 864 198 870 q 197 844 198 858 q 195 781 195 815 q 196 719 195 760 q 203 646 197 678 q 203 641 203 644 q 202 636 203 639 q 197 628 201 633 m 200 536 q 185 530 193 530 q 168 538 176 530 q 159 556 159 547 q 163 569 159 560 q 184 580 166 578 q 205 564 199 580 q 207 553 207 559 q 200 536 207 545 m 232 -16 q 281 -20 252 -20 l 290 -20 q 330 -16 313 -20 q 426 50 399 1 q 432 66 431 59 q 434 90 434 74 q 432 115 434 107 q 425 134 431 123 q 288 236 383 210 q 219 246 252 246 q 116 218 164 246 q 68 137 68 184 q 79 87 68 114 q 107 49 88 68 q 148 16 126 29 q 188 -3 165 6 q 232 -16 211 -12 m 153 123 q 145 121 150 121 q 136 120 140 120 q 116 134 123 120 q 113 149 113 142 q 115 162 113 155 q 127 172 119 168 q 142 176 135 176 q 157 168 149 176 q 165 153 165 159 q 161 135 165 144 q 153 123 157 126 "},"\"":{"ha":1058,"x_min":68,"x_max":990,"o":"m 249 678 q 309 695 273 683 q 366 717 345 707 q 404 739 380 724 q 449 769 427 754 q 478 793 470 785 q 491 808 484 800 q 500 824 497 817 q 509 851 509 841 q 509 864 509 862 q 503 895 509 882 q 380 972 465 957 q 365 973 373 973 q 226 919 311 973 q 135 850 180 890 q 76 783 90 809 q 68 758 68 768 q 68 746 68 747 q 73 718 68 730 q 94 696 80 706 q 122 681 107 686 q 165 675 142 676 q 193 675 188 675 q 249 678 227 675 m 335 886 q 328 903 328 895 q 336 922 328 912 q 351 930 344 930 q 369 920 360 930 q 378 901 378 910 q 376 893 378 897 q 353 880 372 880 q 342 881 347 880 q 335 886 338 882 m 730 678 q 790 695 753 683 q 846 717 826 707 q 885 739 861 724 q 929 769 908 754 q 959 793 951 785 q 971 808 965 800 q 981 824 978 817 q 990 851 989 841 q 990 864 990 862 q 983 895 990 882 q 861 972 946 957 q 846 973 854 973 q 707 919 792 973 q 616 850 661 890 q 557 783 571 809 q 549 758 549 768 q 549 746 549 747 q 554 718 549 730 q 574 696 561 706 q 603 681 588 686 q 646 675 623 676 q 674 675 669 675 q 730 678 707 675 m 816 886 q 808 903 808 895 q 817 922 808 912 q 832 930 825 930 q 850 920 841 930 q 859 901 859 910 q 857 893 859 897 q 834 880 852 880 q 823 881 827 880 q 816 886 819 882 "},"#":{"ha":1497,"x_min":68,"x_max":1430,"o":"m 310 -88 q 325 -90 317 -90 q 433 -28 373 -90 q 489 50 463 3 q 545 175 515 96 q 562 215 553 195 l 566 215 l 695 214 q 682 157 687 184 q 676 86 676 126 l 676 76 q 680 20 676 42 q 694 -25 686 -1 q 710 -58 703 -48 q 729 -77 718 -68 q 749 -88 740 -85 q 764 -90 757 -90 q 873 -28 812 -90 q 928 50 903 3 q 985 175 954 96 l 990 189 q 998 208 994 198 q 1156 205 1091 205 q 1258 208 1221 205 q 1323 260 1310 216 q 1330 302 1330 281 q 1318 361 1330 326 q 1271 409 1306 396 q 1094 435 1201 430 q 1097 441 1095 438 q 1141 538 1120 491 q 1251 536 1203 536 q 1358 540 1319 536 q 1423 592 1409 548 q 1430 633 1430 612 q 1418 692 1430 657 q 1371 741 1407 728 q 1244 763 1318 756 q 1289 919 1283 860 q 1289 939 1289 929 q 1234 1055 1289 1021 q 1218 1061 1225 1060 q 1195 1063 1211 1063 q 1172 1061 1181 1063 q 1150 1055 1162 1059 q 1044 983 1088 1033 q 912 767 977 912 q 849 766 881 766 l 805 766 q 849 919 844 861 q 850 938 850 928 q 794 1055 850 1021 q 778 1061 785 1060 q 755 1063 771 1063 q 732 1061 741 1063 q 711 1055 723 1059 q 604 983 649 1033 q 472 764 537 912 q 418 764 444 764 q 254 752 318 764 q 176 693 194 738 q 168 649 168 671 q 181 594 168 627 q 244 551 195 561 q 351 545 286 545 q 389 546 370 545 q 382 525 383 528 q 344 433 380 511 l 315 433 q 154 420 218 433 q 77 361 94 407 q 68 317 68 340 q 82 262 68 295 q 144 220 96 229 q 256 214 187 214 q 242 157 248 184 q 237 86 237 126 l 237 76 q 241 20 237 42 q 255 -25 245 -1 q 271 -58 264 -48 q 290 -77 279 -68 q 310 -88 300 -85 m 705 546 q 735 545 720 546 q 828 545 783 545 q 822 525 822 528 q 785 435 821 511 l 757 435 q 654 434 703 434 q 702 538 678 488 q 705 546 703 542 m 1014 762 q 1002 758 1008 758 q 992 760 997 758 q 982 780 982 766 l 982 782 q 992 811 983 789 q 1013 858 1002 833 q 1030 893 1023 882 q 1055 915 1043 915 q 1068 908 1062 915 q 1074 893 1074 902 l 1074 891 q 1070 878 1074 884 q 1034 805 1057 861 q 1022 777 1027 789 q 1014 762 1016 765 m 979 672 q 960 663 970 663 q 948 666 957 663 q 939 687 939 669 q 947 706 939 696 q 964 715 955 715 q 982 701 977 715 q 984 689 984 694 q 979 672 984 680 m 574 762 q 562 758 568 758 q 553 760 557 758 q 543 780 543 766 l 543 782 q 553 811 544 789 q 573 858 562 833 q 591 893 584 882 q 616 915 604 915 q 629 908 623 915 q 635 893 634 902 l 635 891 q 630 878 635 884 q 595 805 618 861 q 582 777 588 789 q 574 762 576 765 m 538 672 q 521 663 530 663 q 508 666 517 663 q 499 687 499 669 q 508 706 499 696 q 524 715 516 715 q 543 701 538 715 q 545 690 545 695 q 538 672 545 680 "},"$":{"ha":820,"x_min":68,"x_max":752,"o":"m 397 -151 q 422 -153 410 -153 q 511 -117 471 -153 q 538 -79 532 -100 q 545 -3 545 -58 q 545 34 545 22 q 547 51 545 45 q 551 62 548 56 q 570 80 557 73 q 608 95 583 88 q 749 267 733 132 q 752 300 752 284 q 663 484 752 398 q 634 510 648 498 q 589 544 620 522 q 495 610 558 566 q 449 646 465 632 q 428 673 434 660 q 422 694 422 684 q 446 723 422 712 q 478 734 459 730 q 536 738 498 737 q 604 743 578 739 q 652 753 630 746 q 737 812 715 774 q 745 844 745 827 q 732 889 745 861 q 676 939 718 917 q 626 957 650 952 q 563 962 602 962 q 529 964 543 963 q 514 965 515 964 q 513 980 513 966 q 512 1011 512 993 q 512 1041 512 1031 q 510 1057 511 1051 q 506 1067 509 1062 q 425 1121 484 1107 q 389 1125 405 1125 q 309 1084 336 1125 q 295 1046 299 1068 q 290 979 291 1023 q 288 940 289 956 q 286 920 287 923 q 229 892 281 907 q 180 873 206 885 q 136 850 153 861 q 74 760 89 817 q 68 714 68 737 q 82 642 68 678 q 267 447 117 551 q 328 400 302 422 q 364 365 355 378 q 383 326 379 344 q 385 315 385 319 q 379 298 385 304 q 228 255 351 273 q 75 178 106 237 q 68 146 68 163 q 72 120 68 138 q 93 81 75 102 q 130 53 108 63 q 191 37 152 43 q 260 15 240 30 q 295 -39 281 0 q 397 -151 332 -139 m 169 694 q 153 687 161 687 q 140 691 148 687 q 132 713 132 695 q 149 756 132 729 q 188 802 165 783 q 240 836 211 821 q 283 851 270 851 q 304 831 302 851 q 283 806 304 812 q 236 782 261 799 q 197 747 210 764 q 181 722 188 734 q 174 703 174 709 q 172 698 174 701 q 169 694 171 696 m 194 597 q 182 593 186 593 q 170 597 178 593 q 157 623 157 604 q 172 646 157 640 q 180 647 176 647 q 199 638 191 647 q 208 620 208 629 q 207 611 208 618 q 194 597 205 604 "},"%":{"ha":1655,"x_min":68,"x_max":1588,"o":"m 1206 6 q 1273 2 1231 2 q 1341 5 1314 2 q 1575 173 1520 39 q 1588 243 1588 209 q 1519 395 1588 323 q 1324 492 1444 470 q 1257 497 1295 497 q 1229 497 1253 497 q 1175 491 1205 497 q 1003 405 1066 467 q 941 258 941 342 q 1004 108 941 175 q 1206 6 1079 29 m 500 55 q 515 54 507 54 q 823 271 637 54 q 921 387 854 309 q 1034 523 987 466 q 1259 876 1259 787 l 1259 886 q 1255 913 1259 902 q 1240 937 1251 925 q 1168 966 1211 966 q 1149 965 1159 966 q 1079 946 1116 960 q 1016 914 1042 932 q 973 877 1004 906 q 907 812 943 848 q 842 745 871 776 q 713 598 780 676 q 602 465 646 520 q 448 199 479 311 q 442 147 442 176 l 442 141 q 447 100 442 116 q 500 55 460 60 m 937 703 q 922 696 930 696 q 909 701 916 696 q 901 717 902 707 l 901 719 q 906 735 901 727 q 941 777 916 749 q 993 829 967 805 q 1021 854 1011 846 q 1036 861 1030 861 q 1048 856 1042 861 q 1054 849 1053 852 q 1055 838 1055 845 q 1055 831 1055 834 q 1050 823 1054 828 q 1039 811 1047 819 q 1019 791 1031 804 q 987 759 1002 775 q 963 733 971 743 q 948 715 955 724 q 937 703 941 707 m 866 623 q 854 620 859 620 q 851 621 854 620 q 844 627 848 621 q 834 647 834 635 q 836 659 834 652 q 852 679 841 675 q 859 680 856 680 q 875 672 867 680 q 881 652 881 663 q 879 638 881 648 q 866 623 878 628 m 370 493 q 404 492 387 492 q 490 500 441 492 q 584 530 539 508 q 709 663 678 578 q 715 687 713 677 q 717 720 717 697 q 715 752 717 741 q 708 777 714 762 q 442 966 646 930 q 374 970 412 970 q 309 967 336 970 q 80 809 134 935 q 68 745 68 777 q 94 651 68 698 q 370 493 173 519 m 184 803 q 174 793 178 796 q 164 791 170 791 q 155 792 159 791 q 149 799 151 794 q 142 813 142 806 q 147 827 142 818 q 178 862 152 837 q 233 903 203 885 q 263 920 252 914 q 279 926 273 925 l 283 926 q 290 926 286 926 q 305 905 305 922 q 302 895 305 899 q 292 886 300 891 q 269 871 284 880 q 184 803 218 844 m 152 721 q 144 714 148 716 q 134 713 140 713 q 115 722 121 713 q 110 736 110 729 q 111 746 110 739 q 124 758 113 752 q 137 762 131 762 q 153 752 146 762 q 159 738 159 745 q 152 721 159 730 m 404 691 q 389 688 395 688 q 380 689 386 688 q 365 697 375 690 q 345 739 345 713 q 365 781 345 763 q 392 793 378 793 q 412 788 401 793 q 437 743 437 776 q 404 691 437 704 m 1060 330 q 1042 322 1052 322 q 1035 323 1041 322 q 1023 333 1028 323 q 1020 342 1020 338 q 1023 355 1020 349 q 1048 380 1028 364 q 1095 410 1069 395 q 1143 432 1128 429 l 1147 432 q 1166 421 1160 432 q 1170 414 1169 418 l 1170 412 q 1169 406 1170 409 q 1165 398 1168 401 q 1155 391 1162 395 q 1135 380 1148 387 q 1060 330 1083 354 m 1014 241 q 1002 238 1008 238 q 996 238 1001 238 q 984 244 990 239 q 977 261 977 252 q 978 271 977 264 q 988 287 979 278 q 1003 293 995 293 q 1009 292 1006 293 q 1022 284 1017 290 q 1027 271 1027 278 q 1023 255 1027 264 q 1014 241 1019 245 m 1268 207 q 1257 204 1262 204 q 1253 204 1256 204 q 1242 208 1250 204 q 1221 251 1221 220 q 1261 308 1221 294 q 1271 310 1267 310 q 1282 306 1276 309 q 1303 265 1303 292 q 1301 241 1303 260 q 1268 207 1298 221 "},"&":{"ha":1114,"x_min":68,"x_max":1046,"o":"m 486 8 q 519 7 496 7 q 559 7 531 7 q 635 9 588 7 q 710 14 682 12 q 778 24 756 19 q 823 42 800 30 q 850 57 840 50 q 876 81 860 64 q 948 214 928 133 q 954 279 954 241 q 947 350 954 317 q 942 388 943 376 l 942 391 q 945 408 942 401 q 992 449 954 424 q 1046 542 1046 485 l 1046 548 q 1045 563 1046 556 q 1038 581 1043 569 q 1028 596 1034 588 q 1018 608 1023 604 q 991 624 1008 616 q 957 636 974 632 q 875 639 939 640 q 721 635 810 639 q 645 633 680 633 q 525 643 576 633 q 459 682 473 652 q 456 692 456 687 q 461 708 456 699 q 484 724 467 717 q 515 731 494 728 q 553 734 537 734 q 603 743 577 734 q 645 768 628 753 q 664 797 659 781 q 669 835 669 811 l 669 841 q 667 862 668 854 q 664 876 667 870 q 657 892 662 882 q 564 960 635 941 q 545 964 554 962 q 523 965 536 965 q 484 966 509 966 q 431 965 447 966 q 399 960 415 964 q 184 842 252 926 q 152 793 169 824 q 128 739 136 762 q 124 710 124 726 q 131 665 124 693 q 161 612 138 637 q 180 595 166 606 q 210 574 194 585 q 271 520 262 538 q 273 512 273 516 q 249 491 273 499 q 207 471 231 484 q 168 449 182 458 q 129 417 149 437 q 96 381 109 397 q 68 295 68 342 q 85 218 68 259 q 229 76 121 122 q 486 8 342 24 m 250 751 q 241 749 245 749 q 228 754 234 749 q 220 771 220 762 q 221 778 220 774 q 233 795 222 783 q 259 822 244 808 q 290 847 275 836 q 357 888 320 869 q 411 909 395 907 q 433 888 433 909 q 430 878 433 882 q 420 869 428 873 q 396 857 412 864 q 272 771 321 823 q 258 758 264 764 q 250 751 252 752 m 215 664 q 204 662 210 662 q 188 668 197 662 q 180 690 180 674 q 188 709 180 700 q 203 718 195 718 q 219 713 211 718 q 231 703 227 709 q 233 691 233 697 q 230 677 233 686 q 215 664 227 669 m 512 243 q 491 240 499 240 q 472 243 484 240 q 428 274 443 252 q 423 283 425 279 q 420 294 421 288 q 420 311 420 300 q 420 330 420 323 q 423 341 421 336 q 430 353 425 346 q 513 405 463 401 l 521 405 q 589 365 567 405 q 595 334 595 349 q 577 283 595 312 q 512 243 559 254 "},"'":{"ha":577,"x_min":68,"x_max":509,"o":"m 249 678 q 309 695 273 683 q 366 717 345 707 q 404 739 380 724 q 449 769 427 754 q 478 793 470 785 q 491 808 484 800 q 500 824 497 817 q 509 851 509 841 q 509 864 509 862 q 503 895 509 882 q 380 972 465 957 q 365 973 373 973 q 226 919 311 973 q 135 850 180 890 q 76 783 90 809 q 68 758 68 768 q 68 746 68 747 q 73 718 68 730 q 94 696 80 706 q 122 681 107 686 q 165 675 142 676 q 193 675 188 675 q 249 678 227 675 m 335 886 q 328 903 328 895 q 336 922 328 912 q 351 930 344 930 q 369 920 360 930 q 378 901 378 910 q 376 893 378 897 q 353 880 372 880 q 342 881 347 880 q 335 886 338 882 "},"(":{"ha":642,"x_min":68,"x_max":574,"o":"m 406 -96 q 441 -101 422 -101 q 505 -88 470 -101 q 525 -79 517 -84 q 543 -64 533 -74 q 567 -29 561 -47 q 574 18 574 -12 l 574 24 q 561 92 574 57 q 505 207 548 127 q 460 297 475 263 q 437 361 446 330 q 423 435 427 401 q 421 484 421 456 q 422 521 421 501 q 424 579 422 556 q 429 621 426 602 q 449 705 437 669 q 492 805 461 741 q 510 847 501 825 q 524 882 519 869 q 531 904 529 895 q 534 921 533 912 q 534 945 534 930 q 534 970 534 962 q 532 984 534 978 q 526 998 530 989 q 426 1069 496 1053 q 378 1073 404 1073 l 372 1073 q 336 1069 351 1073 q 275 1041 307 1061 q 220 994 243 1020 q 140 863 178 946 q 82 699 101 780 q 68 557 68 629 q 119 279 68 437 q 301 -19 171 121 q 406 -96 359 -82 m 214 743 q 199 736 206 736 q 184 745 191 736 q 178 752 180 749 q 176 758 176 755 q 186 786 176 762 q 210 841 196 810 q 239 900 224 872 q 264 947 254 931 q 281 969 274 964 q 295 975 288 975 q 315 962 312 975 q 317 956 317 959 q 307 932 317 945 q 286 895 300 922 q 257 836 272 867 q 234 783 243 804 q 222 757 228 768 q 214 743 216 745 m 186 629 q 175 627 180 627 q 169 628 173 627 q 157 637 164 629 q 145 656 145 647 q 154 672 145 665 q 162 678 158 676 q 174 680 167 680 q 184 678 180 680 q 193 672 189 676 q 199 664 197 668 q 201 658 201 660 q 197 641 201 650 q 186 629 192 632 "},")":{"ha":642,"x_min":68,"x_max":574,"o":"m 235 1067 q 201 1073 220 1073 q 136 1060 172 1073 q 116 1051 124 1056 q 98 1036 109 1046 q 74 1001 81 1019 q 68 954 68 983 l 68 947 q 81 880 68 915 q 136 765 94 844 q 181 675 167 709 q 204 610 196 642 q 218 537 215 570 q 220 488 220 516 q 220 451 220 471 q 217 393 219 416 q 212 351 216 370 q 193 267 205 303 q 150 167 180 231 q 131 124 140 146 q 117 90 122 102 q 111 68 113 77 q 108 51 109 60 q 107 26 107 42 q 107 2 107 10 q 110 -12 108 -6 q 116 -26 112 -18 q 216 -97 145 -81 q 263 -101 237 -101 l 269 -101 q 306 -97 291 -101 q 366 -69 334 -90 q 421 -22 398 -48 q 502 109 463 26 q 559 273 541 192 q 574 416 574 344 q 522 692 574 534 q 340 991 471 850 q 235 1067 282 1054 m 428 229 q 442 236 435 236 q 458 227 450 236 q 463 220 461 223 q 465 214 465 216 q 455 186 465 210 q 431 131 446 162 q 403 72 417 100 q 377 24 387 41 q 361 3 368 8 q 347 -3 354 -3 q 326 9 330 -3 q 326 16 326 13 q 334 39 326 27 q 355 77 341 50 q 384 136 370 104 q 408 189 399 168 q 419 215 414 203 q 428 229 425 227 m 456 342 q 467 345 462 345 q 473 344 469 345 q 485 334 477 342 q 496 315 496 325 q 488 300 496 307 q 479 294 484 296 q 468 292 475 292 q 457 294 461 292 q 448 300 453 296 q 443 308 445 304 q 440 314 440 312 q 445 331 440 322 q 456 342 450 340 "},"*":{"ha":669,"x_min":68,"x_max":602,"o":"m 195 853 q 161 860 178 860 q 108 842 137 860 q 69 787 79 823 q 68 774 68 780 q 100 722 68 744 q 168 684 122 710 q 117 648 139 664 q 83 578 83 619 q 84 554 83 576 q 112 505 85 532 q 148 491 127 491 q 183 500 164 491 q 206 513 192 505 q 254 540 227 524 q 260 479 256 506 q 305 413 267 434 q 354 400 330 400 q 392 407 368 400 q 420 463 417 414 l 420 538 q 475 515 452 522 q 511 509 494 509 q 567 527 539 509 q 601 580 595 545 q 602 589 602 585 q 569 646 602 620 q 509 688 545 665 q 550 721 534 706 q 586 798 586 758 q 585 819 586 798 q 557 862 585 840 q 519 875 541 875 q 484 868 503 875 q 420 838 456 857 q 412 892 418 869 q 363 961 398 942 q 321 972 341 972 q 283 963 307 972 q 251 907 260 954 q 245 830 248 875 q 195 853 218 844 "},"+":{"ha":941,"x_min":68,"x_max":873,"o":"m 430 182 q 441 180 435 181 q 450 179 447 179 q 517 188 471 179 q 595 208 563 197 q 650 243 635 221 q 665 272 660 255 q 671 319 669 289 q 683 367 672 355 q 736 386 694 378 q 781 397 764 392 q 812 410 798 402 q 873 517 873 441 l 873 528 q 867 560 872 548 q 852 584 863 572 q 829 602 842 595 q 791 610 816 608 q 722 612 767 612 q 668 613 687 612 q 642 616 649 614 q 633 624 634 618 q 630 636 631 627 q 627 656 629 645 q 542 781 617 760 q 497 791 522 788 q 466 793 480 793 q 452 793 459 793 q 315 707 334 783 q 313 694 313 700 l 313 687 q 313 676 313 683 q 315 653 313 669 q 317 627 316 637 q 317 619 317 622 q 317 616 317 616 q 301 614 316 615 q 266 612 287 613 q 178 605 210 608 q 130 596 146 602 q 103 583 114 591 q 82 558 92 574 q 70 528 73 543 q 68 505 68 517 q 69 484 68 498 q 75 454 70 471 q 119 398 87 413 q 231 378 151 382 q 285 373 269 376 q 306 363 301 370 q 311 351 309 359 q 316 331 314 342 q 370 214 329 252 q 397 194 380 203 q 430 182 414 185 m 395 674 q 378 665 387 665 q 365 668 374 665 q 357 688 357 671 q 360 700 357 694 q 371 714 363 705 q 460 760 406 751 q 473 762 467 762 q 483 760 478 762 q 493 751 488 758 q 496 741 496 746 q 495 733 496 739 q 488 722 494 727 q 478 719 486 721 q 461 715 470 716 q 426 701 440 710 q 395 674 411 692 m 393 596 q 375 588 385 588 q 367 589 374 588 q 355 600 361 590 q 352 611 352 604 q 354 623 352 616 q 370 636 359 634 q 374 637 372 637 q 391 629 382 637 q 399 611 399 620 q 393 596 399 604 "},",":{"ha":423,"x_min":68,"x_max":355,"o":"m 72 245 q 68 223 68 235 q 131 93 68 175 q 155 60 147 71 q 164 43 162 49 q 166 31 166 37 q 160 9 166 20 q 134 -26 154 -2 q 79 -127 79 -92 q 106 -180 79 -161 q 149 -195 125 -195 q 168 -193 158 -195 q 264 -145 217 -180 q 330 -74 311 -111 q 355 39 355 -24 l 355 47 q 351 91 355 71 q 334 134 347 110 q 288 201 317 169 q 227 252 258 233 q 175 274 206 263 q 130 285 144 285 q 94 274 111 285 q 72 245 77 262 m 197 159 q 176 189 179 178 q 175 194 175 191 q 180 206 175 201 q 194 213 186 213 q 222 197 206 213 q 248 167 232 186 q 277 129 264 147 q 292 105 290 111 q 292 101 292 103 q 289 90 292 96 q 278 80 286 84 q 270 77 274 77 q 258 82 265 77 q 237 109 252 87 q 217 134 229 119 q 197 159 206 148 "},"-":{"ha":908,"x_min":68,"x_max":840,"o":"m 701 629 q 520 636 610 636 q 171 609 341 636 q 81 553 94 591 q 68 495 68 515 q 90 421 68 458 q 210 345 125 364 q 324 336 253 336 l 334 336 q 544 346 412 337 q 631 353 600 350 q 681 359 662 357 q 710 363 696 361 q 743 366 724 364 q 831 414 821 375 q 840 472 840 454 q 814 559 840 515 q 701 629 778 621 m 436 536 q 419 533 433 534 q 388 532 406 532 q 304 526 326 532 q 298 525 302 525 q 278 539 285 525 q 276 548 276 544 q 309 572 276 566 q 350 576 323 574 q 401 577 376 577 q 433 576 425 577 q 447 563 446 570 q 448 554 448 555 q 436 536 448 543 m 535 535 q 526 534 530 534 q 507 542 515 534 q 500 558 500 549 q 502 567 500 562 q 515 579 506 576 q 530 583 524 583 q 539 581 535 583 q 553 559 553 573 l 553 557 q 535 535 552 541 "},"­":{"ha":908,"x_min":68,"x_max":840,"o":"m 701 629 q 814 559 778 621 q 840 472 840 515 q 831 414 840 454 q 743 366 821 375 q 710 363 724 364 q 681 359 696 361 q 631 353 662 357 q 544 346 600 350 q 334 336 412 337 l 324 336 q 210 345 253 336 q 90 421 125 364 q 68 495 68 458 q 81 553 68 515 q 171 609 94 591 q 520 636 341 636 q 701 629 610 636 m 436 536 q 448 554 448 543 q 447 563 448 555 q 433 576 446 570 q 401 577 425 577 q 350 576 376 577 q 309 572 323 574 q 276 548 276 566 q 278 539 276 544 q 298 525 285 525 q 304 526 302 525 q 388 532 326 532 q 419 533 406 532 q 436 536 433 534 m 535 535 q 553 557 552 541 l 553 559 q 539 581 553 573 q 530 583 535 583 q 515 579 524 583 q 502 567 506 576 q 500 558 500 562 q 507 542 500 549 q 526 534 515 534 q 535 535 530 534 "},".":{"ha":502,"x_min":68,"x_max":434,"o":"m 233 0 q 281 -4 253 -4 l 290 -4 q 330 -1 313 -4 q 427 65 399 16 q 433 82 431 75 q 434 106 434 90 q 433 131 434 123 q 426 150 431 138 q 288 252 384 227 q 220 262 253 262 q 116 235 165 262 q 68 153 68 200 q 79 103 68 130 q 108 65 89 84 q 148 33 127 45 q 188 14 165 22 q 233 0 211 5 m 153 139 q 145 137 150 138 q 137 136 141 136 q 116 150 123 136 q 113 165 113 157 q 115 178 113 172 q 127 188 119 183 q 142 192 135 192 q 158 183 150 192 q 166 168 166 175 q 162 151 166 160 q 153 139 158 142 "},"/":{"ha":821,"x_min":68,"x_max":753,"o":"m 150 -88 q 168 -90 159 -90 q 288 -28 222 -90 q 350 50 321 3 q 413 174 378 96 q 608 574 510 392 q 715 791 683 715 q 752 919 747 867 q 753 939 753 929 q 691 1055 753 1021 q 673 1061 682 1059 q 648 1062 665 1062 q 622 1060 631 1062 q 597 1055 612 1059 q 478 982 529 1033 q 306 711 392 901 q 277 644 294 686 q 247 567 260 602 q 231 524 233 531 q 174 405 229 509 q 75 157 94 254 q 68 85 68 126 l 68 77 q 73 20 68 43 q 89 -25 79 -1 q 106 -59 98 -48 q 127 -77 115 -69 q 150 -88 140 -85 m 446 762 q 432 758 439 758 q 421 760 427 758 q 410 779 410 766 l 410 782 q 422 811 412 789 q 444 857 432 833 q 464 892 456 881 q 492 914 478 914 q 506 908 499 914 q 513 892 513 901 q 508 878 513 885 q 469 805 494 861 q 454 777 461 789 q 446 762 448 765 m 406 672 q 386 663 396 663 q 372 666 382 663 q 361 686 361 669 q 371 706 361 696 q 389 715 380 715 q 410 700 405 715 q 412 690 412 694 q 406 672 412 680 "},":":{"ha":503,"x_min":68,"x_max":435,"o":"m 233 100 q 282 96 253 96 l 290 96 q 331 100 313 96 q 427 165 400 117 q 433 182 432 175 q 435 207 435 190 q 433 231 435 223 q 426 250 431 239 q 289 353 385 326 q 220 362 253 362 q 117 335 165 362 q 68 253 68 300 q 79 204 68 230 q 108 165 89 184 q 148 132 127 145 q 233 100 186 111 m 233 614 q 282 610 253 610 l 290 610 q 331 614 313 610 q 427 680 400 631 q 433 696 432 689 q 435 721 435 704 q 433 745 435 737 q 426 764 431 753 q 289 867 385 840 q 221 876 254 876 q 117 848 165 876 q 68 766 68 814 q 79 718 68 743 q 108 679 89 699 q 148 646 127 660 q 233 614 186 625 m 153 753 q 146 751 150 752 q 138 750 142 750 q 117 764 123 750 q 113 779 113 772 q 116 792 113 785 q 127 802 119 798 q 142 806 136 806 q 158 798 150 806 q 166 783 166 789 q 162 765 166 774 q 153 753 158 756 m 153 239 q 146 237 150 238 q 138 236 142 236 q 117 250 123 236 q 113 265 113 258 q 116 278 113 271 q 127 288 119 283 q 142 292 136 292 q 158 284 150 292 q 166 269 166 276 q 162 251 166 260 q 153 239 158 242 "},";":{"ha":502,"x_min":68,"x_max":434,"o":"m 120 345 q 116 323 116 335 q 179 193 116 275 q 202 160 195 172 q 212 143 210 149 q 214 132 214 138 q 208 110 214 121 q 182 75 202 98 q 127 -27 127 8 q 155 -80 127 -60 q 197 -95 174 -95 q 216 -93 206 -95 q 312 -45 265 -79 q 378 26 359 -11 q 404 139 404 77 l 404 146 q 399 191 404 172 q 382 235 395 210 q 275 352 342 309 q 223 374 254 363 q 178 385 192 385 q 142 374 159 385 q 120 345 125 363 m 233 614 q 282 610 253 610 l 290 610 q 330 614 313 610 q 427 680 399 631 q 433 696 431 689 q 434 721 434 704 q 433 745 434 737 q 426 764 431 753 q 288 867 384 840 q 220 876 253 876 q 116 848 164 876 q 68 767 68 814 q 79 718 68 744 q 108 679 89 699 q 148 646 127 660 q 188 628 165 636 q 233 614 211 619 m 153 753 q 145 751 150 752 q 137 750 141 750 q 116 764 123 750 q 113 779 113 772 q 115 792 113 786 q 127 802 119 798 q 142 806 135 806 q 158 798 149 806 q 166 783 166 789 q 162 765 166 774 q 153 753 157 756 m 245 259 q 224 289 227 279 q 223 294 223 292 q 229 307 223 301 q 242 313 235 313 q 270 297 254 313 q 296 267 280 287 q 325 230 312 248 q 340 206 338 212 q 340 202 340 204 q 337 191 340 197 q 326 180 334 184 q 318 178 322 178 q 307 183 313 178 q 285 209 300 188 q 266 234 277 220 q 245 259 254 248 "},";":{"ha":502,"x_min":68,"x_max":434,"o":"m 120 345 q 142 374 125 363 q 178 385 159 385 q 223 374 192 385 q 275 352 254 363 q 382 235 342 309 q 399 191 395 210 q 404 146 404 172 l 404 139 q 378 26 404 77 q 312 -45 359 -11 q 216 -93 265 -79 q 197 -95 206 -95 q 155 -80 174 -95 q 127 -27 127 -60 q 182 75 127 8 q 208 110 202 98 q 214 132 214 121 q 212 143 214 138 q 202 160 210 149 q 179 193 195 172 q 116 323 116 275 q 120 345 116 335 m 233 614 q 188 628 211 619 q 148 646 165 636 q 108 679 127 660 q 79 718 89 699 q 68 767 68 744 q 116 848 68 814 q 220 876 164 876 q 288 867 253 876 q 426 764 384 840 q 433 745 431 753 q 434 721 434 737 q 433 696 434 704 q 427 680 431 689 q 330 614 399 631 q 290 610 313 610 l 282 610 q 233 614 253 610 m 153 753 q 162 765 157 756 q 166 783 166 774 q 158 798 166 789 q 142 806 149 806 q 127 802 135 806 q 115 792 119 798 q 113 779 113 786 q 116 764 113 772 q 137 750 123 750 q 145 751 141 750 q 153 753 150 752 m 245 259 q 266 234 254 248 q 285 209 277 220 q 307 183 300 188 q 318 178 313 178 q 326 180 322 178 q 337 191 334 184 q 340 202 340 197 q 340 206 340 204 q 325 230 338 212 q 296 267 312 248 q 270 297 280 287 q 242 313 254 313 q 229 307 235 313 q 223 294 223 301 q 224 289 223 292 q 245 259 227 279 "},"<":{"ha":707,"x_min":68,"x_max":639,"o":"m 434 103 q 473 100 452 100 q 502 101 481 100 q 549 109 523 102 q 639 185 639 130 q 625 233 639 207 q 609 259 619 246 q 576 296 599 272 q 533 340 559 315 q 486 385 508 365 q 448 423 464 406 q 428 446 431 440 q 416 484 416 464 q 431 536 416 508 q 444 557 437 547 q 464 585 450 568 q 501 629 477 602 q 523 656 511 642 q 541 682 534 671 q 576 777 576 736 q 549 840 576 813 q 463 871 513 871 q 360 844 418 871 q 295 803 328 829 q 216 730 262 777 q 80 541 102 618 q 68 466 68 503 q 116 319 68 391 q 162 264 132 296 q 218 211 193 232 q 434 103 328 125 m 233 606 q 220 600 226 600 q 205 606 212 600 q 198 621 198 612 q 212 649 198 633 q 251 693 226 667 q 301 740 277 718 q 335 768 325 762 q 345 770 340 770 q 359 765 351 770 q 367 747 367 760 q 366 741 367 744 q 359 733 364 739 q 344 718 355 728 q 314 691 333 708 q 283 662 299 677 q 259 636 268 646 q 243 617 251 626 q 233 606 236 609 m 175 511 q 162 507 168 507 q 146 515 153 507 q 140 532 140 522 q 144 547 140 539 q 163 564 151 562 q 167 565 165 565 q 186 556 176 565 q 192 540 192 549 q 190 528 192 536 q 175 511 188 519 "},"=":{"ha":861,"x_min":68,"x_max":793,"o":"m 654 824 q 451 831 547 831 q 408 831 429 831 q 171 807 293 829 q 81 752 94 790 q 68 693 68 713 q 90 620 68 656 q 210 544 125 563 q 323 535 253 535 l 334 535 q 544 545 412 535 q 603 549 582 547 q 635 553 624 551 q 652 555 646 554 q 668 558 659 557 q 696 559 677 559 q 784 609 774 569 q 793 666 793 648 q 768 753 793 709 q 654 824 731 815 m 654 430 q 448 438 545 438 q 408 437 428 438 q 171 414 293 435 q 81 358 94 397 q 68 300 68 320 q 90 227 68 263 q 210 150 125 169 q 323 142 253 142 l 334 142 q 544 151 412 142 q 603 156 582 154 q 635 159 624 158 q 652 162 646 161 q 668 164 659 163 q 696 166 677 165 q 784 215 774 176 q 793 273 793 254 q 768 360 793 316 q 654 430 731 421 m 382 343 q 366 341 379 342 q 334 340 352 340 q 252 334 273 339 q 245 333 248 333 q 225 347 231 333 q 223 357 223 352 q 256 380 223 374 q 296 383 269 382 q 348 385 323 385 q 379 383 372 385 q 394 371 393 378 q 394 361 394 363 q 382 343 394 350 m 481 342 q 473 341 477 341 q 454 349 463 341 q 446 366 446 357 q 448 375 446 370 q 462 387 453 384 q 477 391 471 391 q 486 389 481 391 q 500 368 500 381 l 500 365 q 481 342 498 349 m 382 736 q 365 734 379 735 q 334 733 351 733 q 252 727 273 732 q 245 726 248 726 q 225 741 231 726 q 223 750 223 745 q 256 774 223 768 q 296 777 269 776 q 348 778 323 778 q 379 777 372 779 q 394 764 393 772 q 394 755 394 757 q 382 736 394 743 m 481 736 q 473 734 477 734 q 454 743 463 734 q 446 760 446 750 q 448 768 446 764 q 462 781 453 777 q 476 784 471 784 q 486 782 481 784 q 500 761 500 774 l 500 758 q 481 736 498 743 "},">":{"ha":707,"x_min":68,"x_max":639,"o":"m 189 102 q 226 100 208 100 q 319 115 273 100 q 404 154 357 127 q 489 212 450 180 q 545 264 514 232 q 591 319 575 297 q 639 465 639 391 q 627 541 639 503 q 490 730 605 618 q 411 804 444 778 q 347 844 378 829 q 243 872 289 872 q 158 840 193 872 q 132 781 132 817 l 132 775 q 133 752 132 762 q 140 730 135 743 q 205 629 157 686 q 243 585 230 602 q 263 558 256 568 q 275 536 271 547 q 290 484 290 508 q 279 447 290 464 q 261 426 276 441 q 229 393 247 410 q 198 363 212 377 q 175 342 183 350 q 171 338 173 340 q 152 319 165 332 q 125 291 139 306 q 97 259 106 271 q 81 233 87 246 q 68 184 68 205 q 86 142 68 159 q 130 117 102 128 q 189 102 158 106 m 271 670 q 256 662 263 662 q 245 666 252 662 q 215 700 238 669 q 195 724 205 713 q 182 740 186 736 q 174 759 174 750 q 181 774 174 767 q 194 779 186 779 l 197 779 q 208 777 203 779 q 222 762 212 774 q 245 734 233 750 q 267 704 258 718 q 277 687 276 691 q 278 683 278 685 q 277 678 278 681 q 271 670 276 675 m 326 594 q 312 589 321 589 l 310 589 q 296 593 302 589 q 287 606 290 597 q 285 617 285 612 q 286 621 285 619 q 294 634 288 628 q 306 640 300 640 q 331 623 324 640 q 334 612 334 617 q 326 594 334 602 "},"?":{"ha":883,"x_min":68,"x_max":815,"o":"m 426 329 q 465 324 446 324 q 682 458 570 324 q 814 732 809 616 q 815 747 815 740 q 750 905 815 840 q 600 981 690 962 q 484 993 543 993 q 387 985 450 993 q 252 945 323 978 q 77 756 122 881 q 69 729 71 739 q 68 699 68 718 l 68 692 q 71 664 68 674 q 86 644 74 654 q 107 631 94 636 q 134 626 121 626 q 166 633 144 626 q 205 650 188 641 q 232 668 214 655 q 271 698 250 682 q 338 749 313 732 q 384 772 363 765 q 440 785 416 785 q 456 784 448 785 q 517 737 510 774 q 518 724 518 730 q 507 681 518 705 q 454 600 496 656 q 398 515 415 546 q 374 450 382 484 q 369 408 369 427 q 426 329 369 348 m 422 -16 q 472 -20 443 -20 l 480 -20 q 521 -16 503 -20 q 616 50 590 1 q 623 66 621 59 q 625 90 625 74 q 623 115 625 107 q 616 134 621 123 q 479 236 574 210 q 410 246 443 246 q 307 218 355 246 q 258 137 258 184 q 270 87 258 114 q 298 49 279 68 q 338 16 317 29 q 379 -3 356 6 q 422 -16 401 -12 m 343 123 q 336 121 340 121 q 327 120 331 120 q 307 134 313 120 q 303 149 303 142 q 306 162 303 155 q 317 172 309 168 q 332 176 326 176 q 348 168 340 176 q 356 153 356 159 q 352 135 356 144 q 343 123 348 126 m 212 795 q 192 777 198 781 q 179 772 185 772 q 161 784 166 772 q 159 794 159 789 q 163 808 159 801 q 208 852 172 823 q 288 907 245 882 q 310 920 302 916 q 321 925 317 924 q 327 926 325 926 l 330 926 q 347 903 347 920 q 344 893 347 897 q 333 883 341 888 q 308 867 324 877 q 212 795 250 833 m 155 697 q 137 690 146 690 q 126 692 134 690 q 115 705 119 694 q 114 712 114 709 q 121 730 114 721 q 139 739 130 739 q 152 735 143 739 q 161 713 161 732 q 155 697 161 703 "},"@":{"ha":1452,"x_min":68,"x_max":1384,"o":"m 651 -133 l 669 -133 q 700 -133 679 -133 q 749 -131 721 -133 q 793 -127 778 -130 q 895 -98 851 -119 q 976 -18 949 -70 q 985 5 983 -4 q 987 29 987 14 q 988 46 988 40 q 986 57 987 52 q 981 69 985 62 q 916 116 964 106 q 887 118 907 118 q 764 110 847 118 q 661 104 713 105 l 646 104 q 576 107 604 104 q 430 159 494 117 q 391 190 408 174 q 355 229 374 205 q 264 442 282 322 q 256 505 256 484 l 256 509 q 262 557 256 529 q 320 720 277 644 q 417 832 363 795 q 624 918 509 891 q 743 932 682 929 q 766 932 755 932 q 844 926 812 932 q 1056 819 975 898 q 1114 744 1094 783 q 1143 646 1133 705 q 1152 547 1152 591 q 1143 459 1152 503 q 1092 332 1125 376 q 1045 301 1068 301 q 1027 307 1036 301 q 977 427 989 332 q 975 452 975 438 q 975 470 975 457 q 977 521 975 483 q 979 597 979 562 q 921 855 979 791 q 901 872 909 868 q 881 877 892 877 q 861 872 870 877 q 831 849 851 867 q 772 817 796 820 l 768 817 q 749 818 762 817 q 722 824 736 820 q 702 831 707 828 q 680 836 694 836 q 667 836 677 836 q 638 829 657 836 q 486 725 551 800 q 411 612 442 675 q 369 491 379 549 q 364 437 364 465 q 366 392 364 422 q 380 327 368 362 q 474 210 410 245 q 524 193 500 197 q 568 189 543 189 l 583 189 q 717 217 643 191 q 808 237 770 237 q 881 205 857 237 q 938 149 916 165 q 991 123 960 133 q 1015 118 1004 119 q 1056 117 1027 117 q 1086 118 1075 117 q 1105 120 1097 118 q 1124 125 1113 121 q 1299 250 1237 162 q 1384 563 1384 384 q 1381 625 1384 593 q 1305 838 1371 732 q 956 1084 1187 1021 q 869 1102 902 1098 q 769 1106 836 1106 q 672 1103 705 1106 q 592 1088 640 1099 q 464 1052 528 1074 q 362 1008 400 1030 q 155 797 247 939 q 73 565 95 700 q 68 470 68 531 l 68 455 q 72 374 68 405 q 91 275 79 317 q 124 193 103 233 q 435 -84 218 2 q 651 -133 530 -123 m 540 627 q 530 625 534 625 q 526 625 528 625 q 517 631 523 625 q 509 648 509 637 q 564 728 509 675 q 604 764 589 753 q 635 775 620 774 q 642 776 640 776 q 648 775 645 776 q 655 770 651 774 q 663 755 663 763 q 660 745 663 752 q 640 731 656 737 q 593 696 621 724 q 553 644 566 669 q 540 627 547 629 m 502 550 q 494 545 498 547 q 488 543 490 543 q 468 555 476 544 q 460 573 460 564 q 461 578 460 576 q 483 596 465 596 q 509 580 502 596 q 511 569 511 574 q 502 550 511 559 m 1310 527 q 1293 520 1303 520 q 1276 527 1283 520 q 1269 543 1269 534 q 1284 566 1270 561 q 1291 567 1288 567 q 1310 559 1301 567 q 1317 544 1317 553 q 1310 527 1316 534 m 688 427 q 673 419 680 419 q 663 425 667 419 q 652 446 655 433 q 650 477 650 457 l 650 486 q 651 519 650 507 q 656 543 652 531 q 680 596 666 576 q 705 615 692 615 l 706 615 q 714 612 711 615 q 721 600 717 608 q 726 589 724 594 q 728 575 727 584 q 728 550 728 566 q 727 516 728 528 q 722 491 726 504 q 688 427 708 446 m 1253 296 q 1234 287 1242 287 q 1217 298 1224 287 q 1214 307 1214 303 q 1215 314 1214 310 q 1225 332 1217 319 q 1245 373 1234 345 q 1263 427 1257 401 q 1274 452 1268 446 q 1290 458 1279 458 q 1305 452 1299 458 q 1310 437 1310 447 q 1310 427 1310 435 q 1297 385 1309 418 q 1253 296 1274 315 "},"A":{"ha":808,"x_min":24,"x_max":797,"o":"m 150 2 q 168 1 158 1 q 207 5 182 1 q 254 22 231 9 q 292 53 269 30 q 327 92 315 75 q 339 114 331 100 q 356 143 348 128 q 393 201 379 187 q 418 213 405 213 q 423 212 420 213 q 451 203 436 211 q 479 182 467 195 q 498 160 485 176 q 526 125 511 144 q 633 16 593 37 q 700 0 666 0 q 725 1 704 0 q 769 25 747 3 q 797 119 797 52 q 795 166 797 125 q 759 350 794 207 q 735 453 743 416 q 721 536 727 490 q 684 714 705 643 q 484 967 621 926 q 433 972 461 972 q 382 967 404 972 q 90 629 205 912 q 57 538 72 584 q 39 470 43 492 q 26 323 31 424 q 24 278 24 300 q 81 54 24 132 q 150 2 111 11 m 257 730 q 239 721 249 721 q 228 724 236 721 q 220 744 220 727 q 243 788 220 757 q 296 849 267 819 q 348 890 326 879 q 363 895 357 895 q 382 880 376 895 q 384 873 384 877 q 380 863 384 869 q 362 847 376 857 q 321 810 344 833 q 281 764 299 787 q 267 744 274 753 q 257 730 260 734 m 222 636 q 202 627 212 627 q 189 630 198 627 q 180 652 180 633 q 204 676 180 673 q 226 663 220 676 q 228 652 228 658 q 222 636 228 644 m 392 375 q 382 372 388 373 q 372 370 376 370 q 358 378 361 370 q 355 410 355 386 q 357 459 355 433 q 362 495 359 486 q 366 511 363 498 q 371 541 368 524 q 401 663 389 663 q 408 656 404 663 q 416 642 412 650 q 423 624 420 633 q 432 550 430 595 q 433 521 433 535 q 430 467 433 492 q 392 375 422 387 "},"B":{"ha":853,"x_min":31,"x_max":837,"o":"m 267 -15 q 316 -18 289 -18 q 444 -8 363 -18 q 593 22 524 1 q 632 37 607 27 q 679 58 656 47 q 709 73 701 68 q 756 109 731 86 q 797 155 781 132 q 837 276 837 213 q 817 370 837 321 q 798 399 810 382 q 771 431 785 416 q 725 463 755 445 q 671 490 696 481 l 648 499 l 690 543 q 754 620 733 587 q 787 695 775 654 q 795 760 795 728 q 775 852 795 807 q 644 954 739 920 q 570 971 619 961 q 481 985 520 981 q 395 989 446 989 l 379 989 q 309 987 338 989 q 245 975 281 984 q 183 956 209 966 q 113 915 144 941 q 66 861 81 889 q 52 823 59 845 q 39 779 44 800 q 34 682 36 757 q 31 532 31 607 q 34 433 31 456 q 36 414 35 429 q 39 380 37 399 q 60 231 44 300 q 97 111 77 155 q 146 37 117 66 q 267 -15 190 -3 m 143 749 q 130 743 136 743 q 115 749 123 743 q 107 765 109 756 l 107 770 q 110 787 107 777 q 174 885 127 844 q 195 900 182 892 q 222 914 209 908 q 239 920 235 920 q 250 916 244 920 q 259 906 255 911 q 263 897 263 901 q 238 872 263 880 q 183 830 208 860 q 152 768 158 800 q 149 758 151 763 q 143 749 146 752 m 121 650 q 109 648 115 648 q 94 653 102 648 q 86 673 86 658 q 96 694 86 688 q 108 697 102 697 q 121 694 114 697 q 134 670 133 688 q 121 650 134 657 m 406 636 q 384 631 393 631 q 363 638 374 631 q 353 673 353 646 q 356 711 353 692 q 363 740 359 730 q 381 757 370 751 q 401 762 391 762 q 408 761 404 762 q 420 758 414 760 q 431 753 427 756 q 447 724 444 745 q 448 711 448 718 q 443 677 448 696 q 406 636 435 648 m 433 210 q 406 203 419 205 q 393 202 399 202 q 385 203 389 202 q 369 215 376 205 q 359 237 361 225 q 356 256 357 243 q 355 279 355 268 q 373 371 355 336 q 421 414 391 407 q 439 416 431 416 q 487 393 468 416 q 504 342 504 375 q 496 288 504 319 q 433 210 480 223 "},"C":{"ha":796,"x_min":3,"x_max":803,"o":"m 161 795 q 18 543 53 679 q 3 433 3 487 q 44 254 3 355 q 234 66 85 153 q 492 9 340 10 l 498 9 q 745 72 646 9 q 803 168 803 118 q 792 218 803 180 q 684 277 781 256 q 606 284 644 283 q 512 295 560 285 q 427 330 466 306 q 370 382 389 353 q 338 454 344 422 q 336 479 336 465 q 342 528 336 500 q 397 640 359 595 q 450 673 425 673 q 465 669 458 673 q 480 656 475 664 q 490 632 486 648 q 500 584 494 615 q 513 520 507 539 q 532 489 519 500 q 568 469 547 475 q 594 465 582 465 q 608 466 601 465 q 693 522 659 479 q 745 665 740 582 l 745 677 q 650 905 745 813 q 505 964 587 964 q 320 913 416 964 q 161 795 224 863 m 268 762 q 244 741 252 747 q 231 736 237 736 q 216 743 222 736 q 209 759 209 750 q 211 766 209 763 q 217 775 212 770 q 232 791 222 781 q 313 857 268 825 q 340 871 323 863 q 374 886 357 880 q 395 893 391 893 q 404 889 399 893 q 413 880 409 885 q 417 870 417 874 q 409 855 417 861 q 378 839 401 848 q 268 762 323 814 m 185 662 q 168 654 177 654 q 162 654 167 654 q 149 663 157 654 q 144 672 146 667 q 142 680 142 676 q 148 695 142 688 q 164 704 155 703 q 170 705 168 705 q 175 704 172 705 q 183 698 178 703 q 193 680 193 689 q 185 662 193 671 "},"D":{"ha":848,"x_min":35,"x_max":811,"o":"m 264 -11 q 290 -12 278 -12 q 307 -12 302 -12 q 338 -9 315 -12 q 357 -8 347 -9 q 595 79 479 1 q 756 275 690 138 q 797 378 785 330 q 810 485 809 426 q 811 507 811 496 q 805 582 811 544 q 782 673 800 621 q 649 883 744 783 q 586 927 628 904 q 505 960 543 949 q 418 980 450 976 q 323 984 386 984 q 272 984 289 984 q 243 982 255 983 q 213 977 231 980 q 137 949 166 967 q 87 901 108 932 q 64 854 73 880 q 46 785 55 828 l 35 734 l 36 561 q 38 414 37 467 q 41 329 39 361 q 47 271 43 298 q 81 124 62 176 q 132 43 100 73 q 264 -11 179 -6 m 136 750 q 121 743 129 743 q 107 747 116 743 q 98 768 98 751 q 99 779 98 772 q 102 791 100 786 q 118 832 106 808 q 140 871 130 856 q 181 909 157 893 q 226 928 205 926 q 234 929 231 929 q 238 928 236 929 q 245 923 241 928 q 253 909 253 916 q 224 881 253 895 q 206 871 215 877 q 192 861 197 866 q 161 820 175 846 q 143 770 147 795 q 140 758 142 764 q 136 750 138 752 m 115 642 q 104 638 108 638 q 93 642 99 638 q 83 651 87 645 q 79 664 79 658 q 90 684 79 677 q 104 689 96 689 q 114 687 109 689 q 130 665 129 680 l 130 664 q 115 642 130 650 m 425 246 q 398 239 412 240 l 393 239 q 377 243 383 239 q 359 281 363 252 q 357 330 358 291 l 357 370 q 357 421 357 390 q 359 471 357 452 q 359 506 359 479 q 361 566 360 532 q 373 702 362 686 q 407 724 382 719 q 423 726 416 726 q 448 720 437 726 q 488 623 475 701 q 499 499 499 561 q 497 448 499 473 q 483 321 492 359 q 453 265 474 283 q 440 254 448 260 q 425 246 432 249 "},"E":{"ha":839,"x_min":12,"x_max":827,"o":"m 397 3 q 410 2 399 2 q 427 2 414 2 q 465 4 439 3 q 515 8 492 6 q 551 14 539 11 q 692 62 640 33 q 806 161 770 105 q 827 236 827 199 q 823 277 827 248 q 779 327 818 307 q 734 336 760 336 q 710 335 729 336 q 629 318 692 334 q 547 297 577 304 q 494 288 516 290 q 444 283 472 285 q 425 283 434 283 q 390 286 405 283 q 365 301 376 290 q 348 336 348 319 q 364 370 348 353 q 426 407 382 389 q 556 449 471 425 q 598 463 581 456 q 637 482 616 470 q 784 661 745 545 q 798 747 798 705 q 777 846 798 799 q 700 924 754 890 q 578 968 645 958 q 543 970 564 970 q 508 969 532 970 q 455 964 484 968 q 365 937 414 956 q 277 894 316 918 q 14 467 49 743 q 12 413 12 439 q 68 180 12 281 q 167 73 110 113 q 307 15 230 31 q 309 14 308 14 q 335 9 326 11 q 351 7 344 8 q 371 5 359 6 q 389 4 382 5 q 397 3 397 3 m 300 798 q 282 781 288 785 q 271 777 276 777 q 251 789 256 777 q 250 798 250 793 q 256 817 250 807 q 293 852 269 833 q 341 886 317 871 q 378 901 366 900 q 387 897 381 901 q 396 887 392 892 q 401 879 401 882 q 374 852 401 865 q 300 798 336 833 m 222 708 q 206 702 215 702 q 191 706 201 702 q 181 726 181 711 q 191 747 181 741 q 204 751 197 751 q 215 749 210 751 q 229 725 229 745 q 222 708 229 715 m 438 611 q 418 606 427 606 q 399 631 399 606 q 401 646 399 637 q 425 696 406 673 q 463 730 443 719 q 481 734 473 734 q 496 729 490 734 q 503 708 503 721 q 494 673 503 697 q 460 625 486 650 q 450 617 456 621 q 438 611 444 613 "},"F":{"ha":824,"x_min":22,"x_max":812,"o":"m 270 -3 q 284 -5 275 -5 q 303 -6 294 -6 q 382 43 369 -1 q 391 111 391 75 q 390 138 391 124 q 389 161 389 150 l 389 193 q 392 275 389 264 q 417 326 399 302 q 457 360 435 349 q 574 382 492 377 q 594 384 583 382 q 610 386 604 385 q 623 387 617 387 q 627 388 625 388 q 628 387 628 388 l 630 387 q 646 389 634 387 q 676 396 658 391 q 712 405 695 400 q 736 412 728 409 q 803 471 785 433 q 812 511 812 491 q 804 552 812 532 q 717 616 779 600 q 644 621 695 621 l 629 621 q 551 617 586 621 q 466 612 502 612 q 374 636 391 612 q 370 647 370 641 q 384 675 370 657 q 430 711 397 692 q 465 726 446 720 q 518 738 484 732 q 610 751 551 743 q 648 759 625 753 q 691 769 671 764 q 719 777 711 774 q 773 844 773 803 q 772 870 773 846 q 708 936 770 894 q 622 968 671 959 q 551 977 593 974 q 500 979 524 979 q 479 978 489 979 q 98 821 189 963 q 27 611 37 727 q 22 476 22 553 q 23 405 22 461 q 42 257 24 349 q 101 103 60 164 q 270 -3 157 25 m 158 741 l 157 740 q 152 738 154 739 l 149 738 l 148 739 q 143 740 146 739 q 130 759 130 746 q 140 786 130 770 q 183 837 157 810 q 234 882 209 863 q 271 901 260 901 q 286 894 279 901 q 294 881 294 888 q 288 866 294 873 q 266 849 283 860 q 217 807 244 834 q 177 760 190 779 q 158 741 167 743 m 123 652 q 114 649 119 650 q 106 648 110 648 q 97 651 102 648 q 87 660 91 655 q 83 669 83 665 q 88 685 83 677 q 101 700 94 694 q 115 707 109 707 q 125 703 119 707 q 136 695 132 700 q 139 684 139 690 q 136 668 139 678 q 123 652 133 659 "},"G":{"ha":983,"x_min":4,"x_max":964,"o":"m 389 -19 q 406 -20 392 -20 q 439 -20 420 -20 q 715 43 588 -19 q 895 196 835 104 q 913 228 902 208 q 932 267 924 248 q 941 289 941 286 q 941 292 941 290 q 943 295 942 294 q 956 334 949 304 q 964 393 962 365 q 962 433 964 408 q 956 471 960 458 q 762 625 920 590 q 703 631 730 631 q 542 548 599 631 q 512 471 512 505 q 515 450 512 460 q 520 436 517 442 q 533 421 524 431 q 558 393 541 411 q 602 344 589 361 q 620 311 615 327 q 623 296 623 301 q 619 281 623 290 q 551 225 606 239 q 527 221 537 221 q 519 221 526 221 q 496 227 513 221 q 380 319 437 247 q 355 364 369 334 q 335 414 341 394 q 332 447 332 429 q 333 470 332 453 q 340 505 334 486 q 378 578 355 543 q 516 686 433 662 q 539 692 529 690 q 562 696 549 694 q 597 699 574 697 q 635 700 618 700 q 649 701 644 701 q 656 700 654 701 l 662 700 q 681 701 669 700 q 710 705 694 702 q 734 710 726 707 q 819 795 802 734 q 822 820 822 808 q 781 914 822 865 q 658 986 739 962 q 636 990 651 988 q 605 992 621 991 q 585 993 593 993 q 566 992 576 993 q 533 986 555 991 q 373 928 458 968 q 224 839 288 888 q 42 614 90 732 q 4 429 4 516 q 23 311 4 367 q 42 268 28 296 q 70 213 55 241 q 94 169 85 184 q 354 -12 191 21 q 376 -16 366 -14 q 389 -19 386 -18 m 225 715 q 214 706 218 709 q 204 704 210 704 q 184 716 188 704 q 182 724 182 720 q 191 745 182 733 q 218 774 199 756 q 255 806 237 792 q 311 844 282 827 q 347 861 340 861 q 366 852 359 861 q 370 842 370 847 q 367 831 370 837 q 352 819 366 828 q 321 797 339 809 q 282 769 302 784 q 249 743 262 755 q 236 730 236 732 q 233 725 236 728 q 225 715 230 721 m 157 616 q 140 611 149 611 q 124 615 132 611 q 113 625 117 618 q 111 635 111 630 q 111 641 111 638 q 122 656 113 648 q 139 666 131 664 q 145 667 142 667 q 162 660 155 667 q 170 640 170 651 q 169 631 170 638 q 157 616 169 625 "},"H":{"ha":947,"x_min":28,"x_max":897,"o":"m 705 -9 q 723 -10 713 -10 q 757 -6 736 -10 q 802 13 778 -1 q 876 99 849 42 q 895 176 891 130 q 897 239 897 200 q 895 332 897 278 q 894 348 894 340 q 891 431 892 401 q 887 498 890 462 q 878 605 884 534 q 878 614 878 610 q 864 753 869 710 q 852 824 859 795 q 818 915 839 884 q 760 963 797 947 q 677 983 718 983 q 614 971 655 983 q 543 903 572 960 q 530 859 532 880 q 529 848 529 854 q 534 796 529 828 q 540 718 540 747 q 538 688 540 699 q 498 629 528 641 q 483 626 494 627 q 456 624 471 625 q 434 624 442 624 q 421 625 426 624 q 413 628 416 626 q 402 638 406 631 q 397 659 399 644 q 396 701 396 673 l 396 706 q 368 872 396 817 q 250 952 330 949 l 247 952 q 130 903 183 952 q 58 770 74 850 q 43 673 52 741 q 31 549 35 605 q 28 471 28 513 q 33 335 28 418 q 54 190 39 252 q 120 58 75 106 q 232 5 167 5 q 303 20 267 5 q 363 58 340 34 q 390 95 378 73 q 408 138 402 117 q 410 170 410 149 q 400 300 410 214 q 394 357 397 330 q 392 395 392 385 l 392 402 q 393 420 392 413 q 400 437 395 427 q 447 472 414 466 q 463 473 455 473 q 496 465 478 473 q 525 437 515 457 q 529 426 528 433 q 531 402 530 418 q 532 355 532 387 q 533 306 532 326 q 535 283 534 286 q 537 273 536 282 q 541 251 538 264 q 559 168 547 211 q 587 90 572 124 q 602 63 595 73 q 621 41 609 52 q 643 21 633 28 q 668 7 652 14 q 689 -3 679 1 q 705 -9 700 -7 m 117 648 q 106 646 111 646 q 85 661 93 646 q 83 677 83 668 q 90 725 83 693 q 113 797 97 758 q 145 852 129 836 q 161 859 153 859 q 176 852 170 859 q 182 839 182 847 q 173 817 182 829 q 143 749 157 793 q 130 680 130 705 q 126 659 130 668 q 117 648 122 650 m 117 549 q 99 541 109 541 q 91 543 97 541 q 77 556 84 544 q 73 574 73 566 q 76 588 73 579 q 91 600 79 596 q 97 601 94 601 q 116 593 106 601 q 123 584 121 588 q 125 570 125 580 q 123 557 125 561 q 117 549 122 553 "},"I":{"ha":450,"x_min":30,"x_max":404,"o":"m 198 13 q 216 9 207 9 q 232 8 222 8 l 242 8 q 269 11 260 9 q 289 18 278 12 q 342 68 319 33 q 366 129 359 93 q 375 246 373 165 q 388 469 379 374 q 402 669 399 597 q 404 729 404 703 q 400 793 404 761 q 384 858 397 825 q 315 950 359 922 q 257 964 290 964 q 204 956 233 964 q 174 945 187 951 q 143 928 161 939 q 50 789 75 883 q 44 772 47 779 q 40 764 41 765 q 31 670 37 760 q 30 628 30 656 q 30 579 30 614 q 32 488 30 544 q 35 401 33 431 q 73 169 47 259 q 142 45 98 85 q 168 26 155 33 q 198 13 180 18 m 142 650 q 127 645 135 645 q 121 645 126 645 q 111 652 117 646 q 107 660 108 656 q 106 671 106 663 q 106 694 106 678 q 119 783 109 740 q 142 841 130 827 q 159 850 151 850 q 174 843 167 850 q 181 829 181 837 q 175 808 181 821 q 151 688 157 768 q 149 666 150 673 q 146 655 148 659 q 142 650 145 652 m 136 560 q 121 552 128 552 q 105 561 113 552 q 97 579 97 570 q 104 597 97 588 q 119 606 112 606 q 143 590 137 606 q 145 580 145 585 q 136 560 145 570 "},"J":{"ha":786,"x_min":7,"x_max":746,"o":"m 250 12 q 292 9 264 9 l 311 9 q 354 11 330 9 q 393 15 378 12 q 549 85 484 34 q 673 256 623 142 q 699 321 686 286 q 718 376 712 357 q 730 434 725 408 q 737 473 736 460 q 739 490 738 480 q 741 507 741 499 q 746 589 746 540 q 746 628 746 595 q 739 713 745 660 l 739 715 q 733 758 735 743 q 730 780 731 773 q 728 791 729 787 q 725 804 726 795 q 721 820 723 812 l 721 821 q 713 842 718 829 q 703 867 709 855 q 689 892 696 882 q 669 915 682 903 q 614 953 642 941 q 550 963 587 963 l 545 963 q 480 953 507 963 q 431 919 454 943 q 394 838 395 885 l 394 831 q 397 785 394 808 q 400 764 399 773 q 401 758 401 760 q 400 755 401 755 q 401 745 400 753 q 403 726 401 737 q 412 604 411 675 q 413 567 413 584 q 409 492 413 522 q 345 350 394 382 q 326 342 334 342 q 321 342 326 342 q 307 352 317 342 q 286 382 295 362 q 267 440 277 403 q 257 476 262 459 q 250 500 252 493 q 180 599 224 573 q 138 610 159 610 q 87 594 113 610 q 22 492 46 567 q 13 460 15 474 q 8 421 10 447 q 7 391 7 406 q 9 357 7 377 q 17 298 10 338 q 54 186 27 239 q 129 77 85 120 q 250 12 181 26 m 481 678 q 465 669 473 669 l 463 669 q 447 677 454 669 q 444 684 445 680 q 441 700 442 689 q 439 731 439 710 q 436 768 437 751 q 433 791 434 785 q 428 813 429 806 l 428 818 q 429 825 428 822 q 434 831 430 828 q 450 839 441 839 q 465 832 458 839 q 485 721 480 817 q 486 697 486 705 q 484 685 486 689 q 481 678 483 682 m 488 585 q 472 578 480 578 q 462 580 469 578 q 448 595 455 582 q 445 608 445 602 q 449 623 445 614 q 466 631 453 631 q 480 627 473 631 q 492 617 488 623 q 495 605 495 612 q 494 597 495 603 q 488 585 493 591 "},"K":{"ha":995,"x_min":38,"x_max":998,"o":"m 203 7 q 250 3 222 3 q 273 3 254 3 q 309 9 292 3 q 320 12 315 11 q 327 14 325 14 q 339 18 329 14 q 363 29 349 22 q 463 136 436 65 q 468 152 467 144 q 470 170 470 159 q 471 204 471 181 q 461 322 471 274 q 457 343 460 329 q 450 374 454 357 q 443 406 446 391 q 437 444 437 431 q 440 453 437 452 l 442 453 q 465 440 450 453 q 496 406 480 427 q 510 382 503 395 q 531 344 517 370 q 569 269 544 318 q 632 151 608 189 q 680 90 655 113 q 833 15 743 22 q 844 14 838 14 q 892 21 865 14 q 943 44 919 28 q 989 97 973 63 q 997 115 995 108 q 998 137 998 123 q 995 163 998 159 q 992 166 994 164 q 991 170 991 168 q 976 209 991 181 q 936 271 961 237 q 896 327 922 290 q 819 435 869 364 q 783 492 793 471 q 773 529 773 512 q 817 646 773 589 q 843 673 823 652 q 886 718 863 693 q 959 798 938 768 q 984 857 979 827 q 985 868 985 863 q 984 876 985 871 q 981 892 984 880 q 968 919 976 909 q 947 939 961 930 q 824 969 904 969 l 821 969 q 707 951 751 969 q 631 903 665 936 q 560 806 597 870 q 523 747 538 768 q 495 713 509 727 q 458 691 475 691 q 433 711 444 691 q 427 724 429 718 q 424 743 425 730 q 422 780 423 755 q 414 847 419 823 q 397 890 409 871 q 304 958 366 943 q 260 962 285 962 q 235 961 254 962 q 191 953 216 960 q 47 800 75 918 l 39 770 l 38 595 l 38 517 q 41 334 38 409 q 55 207 44 259 q 203 7 87 33 m 138 690 q 132 688 134 689 l 129 688 l 126 689 q 119 692 123 690 q 111 701 113 696 q 106 718 108 707 l 106 752 q 121 844 106 815 q 141 861 130 861 q 157 855 149 861 q 162 848 161 852 q 163 842 163 846 l 163 838 q 160 824 162 833 q 157 808 159 816 q 151 746 151 790 q 150 714 151 728 q 149 698 149 701 q 144 694 147 696 q 138 690 141 692 m 142 605 q 126 597 134 597 q 110 606 118 597 q 103 614 105 610 q 102 624 102 618 q 110 643 102 634 q 127 651 117 651 q 148 635 142 651 q 150 625 150 629 q 142 605 150 614 "},"L":{"ha":726,"x_min":33,"x_max":742,"o":"m 240 7 q 277 3 258 3 l 338 3 q 413 5 385 3 q 492 18 440 8 q 663 80 602 39 q 736 170 716 119 q 742 203 742 186 q 740 225 742 210 q 726 254 738 240 q 705 268 718 262 q 678 276 692 274 q 661 277 671 277 q 615 273 644 277 q 553 261 585 270 q 448 243 489 243 l 440 243 q 360 323 373 248 q 359 352 359 332 q 359 393 359 372 q 362 424 360 413 q 366 446 363 431 q 371 476 368 460 q 379 522 376 506 q 386 556 382 538 q 389 574 387 564 q 393 589 391 583 l 393 589 q 395 600 394 594 q 397 611 396 606 q 398 616 398 614 q 401 631 399 622 q 404 646 403 639 q 420 783 420 728 q 416 836 420 799 q 377 917 412 873 q 256 970 342 970 q 213 966 231 970 q 174 951 195 962 q 60 768 85 909 q 54 731 56 748 q 50 689 52 714 q 45 619 47 663 q 40 545 42 580 q 36 494 37 509 q 34 440 35 479 q 33 359 33 401 l 33 325 q 38 223 33 260 q 60 144 43 186 q 240 7 104 30 m 151 713 q 136 706 144 706 q 125 708 132 706 q 113 724 117 711 l 113 726 q 120 765 113 736 q 136 827 126 794 q 152 872 145 859 q 170 888 159 885 q 174 888 172 888 q 189 882 182 888 q 196 865 196 874 q 191 848 196 858 q 163 755 180 828 q 151 713 157 718 m 132 621 q 120 616 125 616 q 111 619 116 616 q 96 642 96 629 l 96 644 q 104 663 96 656 q 118 668 110 668 q 130 666 123 668 q 146 644 146 658 l 146 642 q 132 621 146 629 "},"M":{"ha":1230,"x_min":28,"x_max":1177,"o":"m 205 -7 q 228 -9 214 -9 q 252 -8 235 -9 q 283 -3 269 -7 q 361 50 336 15 q 378 81 374 66 q 381 116 381 94 l 381 123 q 377 173 381 147 q 363 251 374 198 q 342 391 345 345 q 341 408 341 400 q 351 460 341 441 q 357 471 353 467 q 361 476 360 476 q 423 361 386 476 q 532 189 465 224 q 562 175 549 178 q 600 170 575 171 l 615 170 q 629 171 622 170 q 645 174 636 171 q 747 272 710 192 q 772 335 760 300 q 802 431 785 370 q 817 484 812 467 q 827 501 823 500 l 827 501 q 834 491 830 501 q 845 331 843 476 q 848 218 846 256 q 857 153 851 180 q 940 20 878 49 q 963 11 954 14 q 984 7 972 8 l 991 7 q 1102 69 1058 7 q 1151 193 1135 115 q 1175 408 1168 271 q 1177 486 1177 444 q 1175 586 1177 521 q 1166 703 1173 650 q 1152 790 1159 758 q 1135 848 1145 823 q 1050 952 1105 917 q 974 979 1017 972 q 940 981 956 981 q 893 976 916 981 q 862 965 875 971 q 833 947 850 959 q 772 867 798 920 q 742 791 754 832 q 710 664 729 749 q 670 530 688 563 q 642 508 658 508 q 627 513 635 508 q 596 551 611 521 q 560 646 581 581 q 434 875 512 790 q 319 951 377 937 q 285 954 301 954 q 138 865 202 954 q 123 842 129 852 q 112 817 118 832 q 96 776 106 802 q 31 509 47 648 q 28 416 28 476 q 28 363 28 406 q 33 277 28 320 q 139 24 57 92 q 172 5 153 14 q 205 -7 191 -4 m 159 661 q 142 653 151 653 q 134 655 140 653 q 122 668 127 656 q 121 674 121 670 q 127 708 121 684 q 148 770 134 733 q 167 818 159 802 q 180 839 174 833 q 195 844 186 844 q 214 832 210 844 q 216 824 216 829 q 210 804 216 816 q 189 750 201 786 q 170 691 176 714 q 164 672 167 680 q 159 661 161 663 m 134 559 q 128 558 132 558 q 120 557 124 557 q 99 570 107 557 q 95 585 95 577 q 97 595 95 590 q 119 610 105 610 q 131 608 121 610 q 146 587 141 606 q 146 582 146 585 q 143 569 146 576 q 134 559 140 562 "},"N":{"ha":923,"x_min":37,"x_max":867,"o":"m 195 -12 q 214 -13 205 -13 q 343 44 280 -13 q 386 119 380 75 q 387 142 387 129 q 374 266 387 186 q 370 294 370 286 l 370 299 q 371 304 370 303 q 373 313 373 307 q 371 330 373 318 q 366 391 367 358 q 366 412 366 402 q 368 446 366 432 q 414 531 382 531 q 479 478 444 531 q 535 344 513 425 q 544 299 539 328 q 552 244 549 271 q 556 208 556 218 q 557 197 556 201 q 559 192 557 193 q 562 183 559 191 q 568 163 565 175 q 690 0 604 10 l 697 0 q 772 27 736 0 q 827 105 808 55 q 857 315 848 165 q 866 601 865 460 q 867 671 867 640 q 863 793 867 755 q 785 963 849 927 q 710 985 749 985 q 674 981 692 985 q 607 941 637 969 q 562 877 576 912 q 551 830 554 856 q 547 758 547 804 q 546 716 547 730 q 544 696 546 703 q 540 684 543 690 q 517 666 530 666 q 486 684 503 666 q 471 700 477 692 q 456 724 465 708 q 430 773 448 740 q 376 862 397 833 q 328 909 355 891 q 288 930 307 924 q 252 934 272 934 l 242 934 q 200 927 218 933 q 163 905 183 921 q 63 711 94 858 q 43 595 47 641 q 37 460 38 549 l 37 410 q 47 195 37 271 q 195 -12 71 7 m 140 618 q 126 612 134 612 l 124 612 q 112 615 117 612 q 103 631 104 620 l 103 634 q 107 669 103 646 q 129 762 117 722 q 149 808 140 802 q 156 810 151 810 q 164 811 160 811 q 182 792 182 811 q 177 766 182 782 q 163 717 171 749 q 151 655 155 684 q 140 618 146 623 m 132 505 q 115 496 123 496 q 103 500 111 496 q 90 522 95 503 q 88 536 88 532 l 88 539 q 89 545 88 543 q 94 551 90 548 q 109 558 101 558 q 130 547 119 558 q 138 537 136 541 q 140 525 140 532 q 139 513 140 517 q 132 505 137 509 "},"O":{"ha":899,"x_min":6,"x_max":860,"o":"m 359 -3 q 387 -4 367 -4 q 429 -5 407 -5 q 467 -3 453 -4 q 490 -1 480 -3 q 515 5 500 1 q 717 127 628 33 q 824 300 785 196 q 859 469 855 378 q 860 495 860 482 q 726 852 860 707 q 531 968 641 942 q 452 977 492 977 q 347 963 401 977 q 98 778 192 918 q 14 557 32 681 q 6 467 6 511 q 62 229 6 342 q 359 -3 168 35 m 155 650 q 142 646 148 646 q 125 652 134 646 q 120 662 121 657 q 119 667 119 664 q 121 677 119 670 q 128 701 123 684 q 162 777 142 740 q 197 825 183 814 q 216 831 207 831 q 224 830 218 831 q 236 819 230 829 q 239 811 239 814 q 237 803 239 808 q 233 796 235 800 q 229 792 231 793 q 199 750 218 785 q 170 682 181 716 q 155 650 161 654 m 127 549 q 113 545 120 545 q 97 551 106 545 q 88 578 88 558 q 114 601 88 600 q 133 593 124 601 q 142 577 142 586 q 137 562 142 570 q 127 549 133 553 m 473 267 q 454 262 463 262 q 422 280 437 262 q 378 400 393 309 q 367 507 368 462 l 367 514 q 374 598 367 556 q 450 721 399 721 q 467 718 458 721 q 508 669 488 706 q 536 585 527 632 q 542 518 542 555 q 536 432 542 488 q 513 323 531 375 q 494 288 505 303 q 473 267 483 272 "},"P":{"ha":842,"x_min":35,"x_max":827,"o":"m 197 -2 q 229 -5 212 -5 q 263 -2 241 -5 q 309 15 285 1 q 350 54 332 28 q 376 108 368 79 q 380 156 380 123 l 380 167 q 378 227 380 195 q 376 255 376 242 q 389 318 376 295 q 415 351 397 337 q 471 378 432 364 q 583 414 509 393 q 667 442 637 430 q 718 468 696 454 q 825 632 806 530 q 827 665 827 647 q 826 699 827 676 q 819 745 825 722 q 578 957 777 911 q 403 978 486 978 q 232 953 312 978 q 74 824 120 913 q 49 745 56 787 q 43 669 43 713 q 44 641 43 655 q 45 597 45 622 q 37 340 45 508 q 35 267 35 300 q 46 149 35 186 q 197 -2 81 26 m 152 665 q 138 659 146 659 q 131 659 136 659 q 120 667 125 659 q 113 708 113 677 q 113 730 113 711 q 121 797 113 749 q 129 827 125 818 q 142 839 134 836 q 151 842 147 842 q 158 839 154 842 q 172 818 172 831 q 170 810 172 814 q 162 765 165 795 q 157 707 158 734 q 157 684 157 692 q 155 671 156 675 q 152 665 154 667 m 429 610 q 407 603 418 603 q 387 609 396 603 q 369 654 370 625 l 369 656 q 385 711 369 686 q 404 728 393 720 q 424 735 415 735 q 451 720 441 735 q 462 682 462 705 q 461 666 462 674 q 459 653 460 658 q 447 629 456 642 q 429 610 437 616 m 151 557 q 133 550 142 550 q 116 558 124 550 q 110 567 111 563 q 108 582 108 572 q 112 604 108 595 q 121 616 115 613 q 130 617 125 617 q 149 609 140 617 q 161 585 159 601 l 161 581 q 151 557 161 568 "},"Q":{"ha":916,"x_min":3,"x_max":935,"o":"m 790 -8 q 829 -14 811 -14 q 895 12 868 -14 q 932 73 923 39 q 935 98 935 85 q 926 133 935 117 q 901 160 918 149 q 850 182 884 171 q 813 198 824 192 q 800 215 803 205 q 797 231 797 222 q 803 258 797 243 q 827 325 814 285 q 845 389 840 365 q 857 511 857 452 q 772 801 857 669 q 748 833 758 822 q 720 863 739 844 q 448 985 597 985 q 290 954 372 985 q 154 859 217 924 q 111 809 129 833 q 73 750 92 785 q 10 566 27 673 q 3 477 3 520 q 59 237 3 352 q 362 5 167 40 q 412 3 384 3 q 451 4 423 3 q 500 11 478 5 q 562 27 539 22 q 597 35 584 33 q 624 37 611 37 q 671 32 648 37 q 732 12 693 26 q 765 0 748 5 q 790 -8 781 -6 m 151 677 q 137 671 144 671 q 124 675 133 671 q 115 695 116 680 q 137 757 115 711 q 184 836 160 803 q 220 863 205 863 q 239 849 231 863 q 241 842 241 846 q 229 819 241 832 q 192 765 212 800 q 162 699 172 730 q 157 687 159 693 q 151 677 154 680 m 116 570 q 103 567 109 567 q 91 570 98 567 q 79 586 84 574 q 78 596 78 591 q 84 617 78 605 q 102 629 91 629 q 116 625 108 629 q 127 616 124 621 q 130 602 130 610 q 127 586 130 596 q 116 570 125 576 m 470 275 q 452 270 460 270 q 418 289 435 270 q 376 409 391 318 q 364 516 365 471 l 364 528 q 372 607 364 568 q 446 730 397 730 q 464 726 454 730 q 504 677 485 714 q 534 593 524 641 q 538 529 538 565 q 533 441 538 498 q 509 331 528 384 q 491 296 502 312 q 470 275 480 281 "},"R":{"ha":849,"x_min":30,"x_max":876,"o":"m 214 -7 q 217 -7 216 -7 q 238 -12 231 -10 l 245 -12 q 254 -11 249 -12 q 271 -8 258 -11 l 273 -8 q 361 71 345 3 q 366 119 366 86 l 366 128 q 362 191 366 157 q 359 252 359 216 l 359 286 q 359 325 359 302 q 362 355 359 347 q 373 366 366 366 q 378 365 374 366 q 398 346 382 363 q 463 231 425 318 q 511 138 492 170 q 555 81 530 106 q 717 6 625 6 q 746 8 736 6 q 770 15 755 9 q 844 57 814 31 q 876 119 873 84 l 876 126 q 871 154 876 140 q 855 187 867 168 q 835 213 849 197 q 805 245 821 229 q 779 269 789 261 q 654 376 688 338 q 623 442 623 412 l 623 447 q 639 492 623 467 q 699 560 655 517 q 772 649 752 612 q 792 731 792 686 q 789 771 792 755 q 777 807 785 788 q 678 911 751 867 q 488 976 592 964 q 460 979 476 977 q 433 982 446 981 q 405 984 420 984 q 381 983 397 984 q 317 977 364 983 q 96 867 165 964 q 92 862 94 864 q 76 841 81 848 q 68 825 71 833 q 61 801 66 817 q 60 798 61 800 q 43 714 51 766 q 32 617 35 663 q 30 534 30 579 q 36 362 30 469 q 58 184 43 256 q 214 -7 93 13 m 149 666 q 133 659 142 659 l 131 659 q 117 665 122 659 q 109 700 109 673 q 119 783 109 730 q 134 838 127 821 q 149 859 140 854 q 158 863 155 863 q 168 860 161 863 q 180 842 180 854 q 179 835 180 838 q 176 823 178 832 q 170 802 173 813 q 155 698 155 741 q 153 676 154 683 q 149 666 152 670 m 414 606 q 392 594 403 594 q 363 615 378 594 q 346 673 346 639 q 347 684 346 678 q 385 747 351 745 q 417 726 405 747 q 433 668 433 700 q 432 646 433 665 q 414 606 432 627 m 142 555 q 127 549 136 551 l 124 549 q 112 552 117 549 q 102 564 106 555 q 98 579 98 572 q 104 599 98 587 q 115 614 109 610 q 125 616 120 616 q 141 610 134 616 q 151 583 151 600 l 151 581 q 142 555 151 565 "},"S":{"ha":678,"x_min":10,"x_max":661,"o":"m 205 -2 q 226 -3 218 -3 l 234 -3 q 245 -3 239 -3 q 267 -1 252 -3 q 562 130 443 11 q 611 184 592 159 q 642 242 629 210 q 657 289 653 268 q 661 340 661 309 q 650 411 661 385 q 610 465 640 437 q 582 489 596 479 q 541 515 568 500 q 423 595 458 564 q 384 656 388 627 q 383 664 383 660 q 399 698 383 681 q 428 721 412 711 q 476 745 444 730 q 537 775 515 762 q 578 806 559 788 q 614 871 614 839 q 587 923 614 898 q 510 964 561 951 q 450 974 478 972 q 421 975 437 975 q 388 974 406 975 q 210 931 296 967 q 67 841 123 895 q 36 803 47 821 q 18 755 26 785 q 10 705 10 728 q 18 662 10 682 q 45 612 28 633 q 104 555 62 591 q 136 529 119 543 q 162 505 152 514 q 186 483 172 495 q 212 462 200 471 q 241 439 224 453 q 271 412 258 425 q 321 345 313 371 q 323 332 323 338 q 303 293 323 313 q 186 239 272 258 q 31 152 57 212 q 23 133 25 141 q 22 113 22 125 l 22 107 q 23 93 22 98 q 31 77 24 87 q 127 13 51 39 q 205 -2 159 1 m 146 801 q 118 785 130 785 q 104 793 110 785 q 98 806 98 800 q 100 814 98 809 q 116 833 102 820 q 198 892 149 864 q 268 920 248 920 q 282 913 275 920 q 290 900 290 907 q 258 871 290 883 q 146 801 201 848 m 98 692 q 80 684 90 684 q 70 686 77 684 q 57 703 62 688 q 56 711 56 707 q 58 723 56 716 q 68 734 60 730 q 81 737 75 737 q 96 732 87 737 q 106 715 104 728 q 107 711 107 713 q 98 692 107 702 "},"T":{"ha":755,"x_min":-54,"x_max":795,"o":"m 341 6 q 363 5 354 5 q 386 7 372 5 q 433 22 408 10 q 472 48 457 33 q 531 229 531 102 l 531 235 q 529 309 531 277 q 522 380 527 340 q 510 541 510 475 q 525 656 510 617 q 562 695 536 683 q 644 715 587 708 q 704 727 682 720 q 744 747 726 734 q 795 836 794 780 l 795 842 q 725 942 795 913 q 666 956 705 949 q 590 965 628 962 q 549 967 566 967 q 532 966 539 967 q 471 965 525 966 q 340 964 416 964 q 195 962 247 962 q 119 960 144 961 q 83 956 95 958 q 2 926 38 947 q -47 878 -35 904 q -54 842 -54 860 q -35 789 -54 814 q 18 751 -16 765 q 112 730 52 738 q 191 709 165 723 q 211 691 201 703 q 223 668 220 679 q 227 640 227 656 q 218 576 227 614 q 211 539 214 559 q 206 504 208 519 q 202 459 204 476 q 196 414 201 443 q 194 387 195 402 q 193 347 193 372 q 194 274 193 320 q 195 197 195 222 q 198 161 196 172 q 203 139 199 150 q 261 41 220 77 q 298 18 275 28 q 341 6 321 8 m 123 878 q 109 876 117 877 q 98 873 102 874 q 93 873 95 873 q 88 874 91 873 q 81 880 85 875 q 74 887 77 884 q 72 893 72 891 q 77 906 72 899 q 88 916 81 913 q 146 926 104 922 q 198 928 173 928 q 222 927 210 928 q 248 925 239 926 q 259 922 256 924 q 267 916 263 920 q 273 908 271 911 q 273 903 273 906 l 273 899 q 268 887 272 891 q 249 883 264 884 q 201 882 235 882 q 154 881 176 882 q 123 878 132 880 m 26 834 q 14 831 18 831 q 10 831 13 831 q 0 836 7 831 q -12 853 -12 844 q -8 866 -12 857 q 15 880 -5 876 q 22 880 19 880 q 27 879 24 880 q 35 873 30 878 q 41 865 39 869 q 43 859 43 861 q 38 845 43 852 q 26 834 33 838 "},"U":{"ha":948,"x_min":18,"x_max":905,"o":"m 359 -1 q 385 -3 372 -3 q 398 -3 389 -3 q 433 -1 408 -3 q 501 7 458 1 q 671 52 604 20 q 716 81 692 63 q 757 117 741 100 q 896 470 865 241 q 900 504 897 486 q 903 536 902 523 q 905 603 905 557 q 903 695 905 648 q 899 764 901 741 q 839 924 882 878 q 726 975 792 975 l 724 975 q 576 847 619 973 q 560 782 568 824 q 549 707 552 740 q 547 686 547 696 q 545 665 545 671 q 543 614 544 658 q 541 509 541 570 q 537 404 539 448 q 534 352 536 359 q 517 307 530 328 q 490 279 504 286 q 471 275 481 275 q 430 294 451 275 q 414 313 420 303 q 403 339 408 323 q 393 401 395 362 q 393 431 393 414 q 395 522 393 467 q 400 680 400 618 q 395 766 400 741 q 331 898 382 850 q 229 939 284 939 q 210 938 220 939 q 119 887 161 930 q 79 834 94 863 q 51 760 64 806 q 19 530 22 655 q 18 498 18 514 q 39 304 18 392 q 113 127 64 203 q 259 16 167 47 q 304 6 272 12 q 359 -1 336 1 m 126 624 q 111 618 119 618 q 102 619 109 618 q 92 630 96 620 q 89 651 89 636 q 97 724 89 675 q 104 767 101 751 q 110 791 107 783 q 114 803 112 800 q 120 810 117 807 q 135 817 128 817 q 149 810 142 817 l 151 808 q 154 804 153 806 q 155 800 155 802 q 154 794 155 798 q 152 778 154 790 q 146 745 150 766 q 143 728 145 738 q 136 682 139 704 q 133 652 133 661 q 133 638 133 643 q 131 630 132 633 q 126 624 129 627 m 119 503 q 106 499 112 499 q 86 509 96 499 q 77 530 77 519 q 81 547 77 538 q 89 556 84 553 q 104 558 94 558 q 123 549 113 558 q 133 530 133 539 q 119 503 133 513 "},"V":{"ha":893,"x_min":7,"x_max":882,"o":"m 384 13 q 419 9 397 9 l 427 9 q 453 11 443 9 q 466 14 457 12 q 483 17 474 16 q 526 28 503 20 q 565 45 549 37 q 642 120 599 65 q 674 166 661 146 q 701 218 686 186 q 720 256 711 237 q 740 311 728 276 q 774 413 752 347 q 807 509 791 460 q 833 585 824 557 q 871 716 860 663 q 882 825 882 770 q 881 862 882 850 q 879 881 881 874 q 873 895 878 887 q 752 960 848 954 q 739 960 746 960 q 679 952 712 960 q 623 929 646 944 q 582 890 598 913 q 540 810 566 867 q 513 732 530 787 q 484 623 496 677 q 478 600 481 613 q 472 576 475 586 q 461 527 467 552 q 453 487 456 502 q 439 427 447 456 q 426 387 431 397 q 416 379 422 380 l 414 379 q 405 385 409 379 q 394 407 397 391 q 389 459 391 422 q 387 570 388 497 q 379 760 386 696 q 355 861 372 824 q 260 956 324 931 q 215 963 243 961 q 199 964 207 964 q 166 961 180 964 q 109 939 138 955 q 60 903 79 922 q 7 749 7 840 l 7 742 q 18 632 11 677 q 43 528 26 587 q 92 367 71 426 q 143 248 113 308 q 165 201 154 224 q 171 189 168 195 q 201 137 183 165 q 233 94 219 110 q 264 68 248 79 q 287 56 280 56 q 297 53 290 56 q 314 43 305 49 q 384 13 348 22 m 132 568 q 117 562 124 562 q 87 597 100 562 q 73 653 80 619 q 61 722 66 688 q 58 753 58 742 q 60 766 58 759 q 72 777 61 773 q 81 780 78 780 l 83 780 q 90 778 85 780 q 104 745 104 772 q 111 694 105 728 q 124 632 117 661 q 136 597 131 603 q 139 588 139 594 q 138 580 139 586 q 132 568 137 574 m 161 468 q 145 461 153 461 q 132 465 139 461 q 116 495 116 477 q 117 506 116 496 q 136 521 117 515 l 140 521 q 159 511 150 521 q 169 486 169 500 l 169 483 q 167 475 169 479 q 161 468 165 472 "},"W":{"ha":1194,"x_min":8,"x_max":1178,"o":"m 330 16 q 381 11 357 11 q 431 16 401 11 q 486 43 462 22 q 503 69 494 52 q 518 101 513 85 q 529 170 524 120 q 536 282 534 219 q 549 391 541 375 q 565 412 555 402 q 581 421 575 421 q 598 409 588 421 q 613 383 608 397 q 631 325 621 361 q 648 254 640 288 q 686 140 663 180 q 848 26 744 31 l 853 26 q 1027 155 968 26 q 1052 230 1039 183 q 1070 315 1065 277 q 1095 423 1075 340 q 1140 605 1114 505 q 1173 744 1165 701 q 1178 803 1178 776 q 1177 823 1178 813 q 1139 932 1175 899 q 1117 950 1128 944 q 1086 959 1105 956 q 1055 961 1073 961 q 1020 960 1044 961 q 972 952 996 958 q 854 872 890 929 q 815 666 821 819 q 793 490 808 524 q 784 478 789 484 q 775 472 778 472 q 763 484 770 472 q 751 514 756 496 q 741 562 744 535 q 733 643 737 589 q 723 767 728 723 q 713 836 719 812 q 696 880 707 861 q 590 937 663 937 q 537 931 566 937 q 418 757 425 905 q 417 724 418 749 q 415 667 416 699 q 414 657 414 663 q 411 593 413 623 q 407 551 409 563 q 378 486 395 486 q 366 496 372 486 q 336 654 347 528 q 325 758 330 722 q 309 829 319 795 q 262 911 294 881 q 226 937 244 929 q 180 945 208 944 l 170 945 q 81 918 122 945 q 21 841 39 891 q 8 762 8 802 q 9 734 8 749 q 22 641 18 673 q 33 581 27 609 q 43 535 36 564 q 57 481 50 507 q 66 448 63 456 q 72 425 67 445 q 84 378 77 405 q 235 62 142 139 q 278 33 256 43 q 330 16 300 22 m 112 599 q 97 591 105 591 q 87 593 94 591 q 73 609 80 595 q 58 679 65 633 q 51 765 52 724 q 51 788 51 781 q 53 799 52 795 q 58 805 55 802 q 74 812 66 812 l 75 812 q 90 806 83 812 q 93 801 92 804 q 95 789 94 797 q 96 767 96 782 q 110 647 97 705 q 115 620 114 629 q 116 610 116 614 q 115 605 116 608 q 112 599 115 602 m 134 493 q 121 486 127 488 l 119 486 q 110 488 115 486 q 92 513 95 495 q 92 519 92 516 q 106 541 92 534 q 116 543 111 543 q 132 536 124 543 q 142 516 140 529 l 142 512 q 134 493 142 502 "},"X":{"ha":909,"x_min":18,"x_max":907,"o":"m 711 18 q 730 16 716 16 l 760 16 q 882 57 844 18 q 907 115 907 81 q 906 124 907 119 q 853 248 903 184 q 810 308 838 268 q 758 384 783 347 q 727 480 727 429 q 732 519 727 499 q 739 546 734 535 q 758 576 743 557 q 805 638 772 596 q 810 644 807 642 q 882 806 882 736 q 879 833 882 820 q 797 931 863 897 q 696 956 750 956 q 650 951 673 956 q 555 902 597 940 q 524 867 536 885 q 498 822 511 848 q 474 758 486 797 q 454 686 461 719 q 449 664 452 673 q 446 655 447 655 q 427 726 441 655 q 418 768 421 753 q 412 792 415 783 q 403 813 408 801 q 381 853 393 836 q 349 888 369 870 q 205 945 291 945 l 196 945 q 152 941 172 945 q 108 925 132 937 q 20 845 37 891 q 18 821 18 836 q 18 801 18 815 q 24 769 18 787 q 106 648 33 732 q 178 556 163 583 q 189 520 189 541 q 104 350 189 460 q 41 253 57 289 q 28 192 28 223 q 29 178 28 185 q 32 151 30 161 q 40 130 34 142 q 127 56 65 75 q 146 50 138 52 q 163 49 153 49 q 193 50 174 49 q 269 60 239 51 q 326 92 300 70 q 375 152 353 113 q 421 265 397 192 q 466 364 450 347 q 471 367 469 367 q 472 367 471 367 q 478 363 473 367 q 494 339 485 357 q 511 302 504 321 q 519 274 513 295 q 530 230 524 254 q 550 162 542 183 q 570 120 557 141 q 601 80 581 101 q 639 46 621 58 q 674 29 652 38 q 711 18 696 20 m 203 668 q 189 661 197 661 q 178 665 184 661 q 162 682 174 667 q 134 718 150 697 q 106 758 119 739 q 93 783 94 774 l 93 786 q 100 800 93 794 q 113 807 106 807 q 131 796 122 807 q 148 775 136 791 q 176 739 161 759 q 203 700 195 713 q 210 681 210 688 l 210 677 q 203 668 210 673 m 266 584 q 250 577 259 577 q 234 581 243 577 q 219 604 219 586 q 220 610 219 607 q 243 633 223 633 q 255 630 251 633 q 265 618 259 627 q 273 600 273 608 q 266 584 273 591 "},"Y":{"ha":831,"x_min":-18,"x_max":854,"o":"m 329 8 q 358 5 341 5 q 382 6 365 5 q 421 13 399 7 q 550 143 520 38 q 562 199 559 172 q 563 237 563 215 q 562 275 563 254 q 561 336 561 309 q 563 398 561 369 q 578 452 566 427 q 607 497 586 472 q 682 576 628 522 q 738 633 713 606 q 770 670 762 659 q 852 812 839 762 q 854 829 854 820 q 837 889 854 855 q 789 941 821 923 q 771 949 783 945 q 748 958 760 954 q 722 965 731 963 q 707 966 715 966 l 698 966 q 674 963 683 966 q 652 954 666 960 q 583 905 616 936 q 505 816 550 873 q 420 736 445 736 q 401 749 413 736 q 366 798 389 763 q 336 840 349 824 q 306 873 323 857 q 166 952 241 939 q 121 958 142 958 q 79 952 99 958 q -7 884 18 937 q -15 862 -13 871 q -18 836 -17 853 l -18 827 q 24 713 -18 771 q 80 652 43 687 q 153 591 117 617 q 173 578 161 586 q 187 568 181 572 q 253 479 253 522 q 252 467 253 473 q 249 452 250 461 q 245 434 247 442 q 235 357 239 382 q 232 338 233 348 q 229 311 231 329 q 222 258 227 293 q 218 195 218 224 q 265 46 218 93 q 296 23 277 34 q 329 8 315 12 m 62 785 q 53 784 57 784 q 36 791 44 784 q 31 800 32 795 q 30 805 30 802 q 31 813 30 808 q 54 867 33 840 q 100 908 75 895 q 135 918 121 918 q 156 905 151 918 q 158 896 158 901 q 132 872 158 880 q 104 856 117 867 q 84 831 93 845 q 75 809 75 817 q 71 795 75 803 q 62 785 66 787 m 112 716 q 94 708 103 708 q 79 715 86 708 q 72 732 72 724 q 81 751 72 741 q 89 757 85 755 q 94 758 91 758 q 98 757 96 758 q 119 735 116 754 q 119 730 119 732 q 118 724 119 727 q 112 716 117 722 "},"Z":{"ha":832,"x_min":-7,"x_max":850,"o":"m 256 -4 q 302 -5 278 -5 q 506 14 390 -5 q 759 80 700 47 q 850 188 850 128 q 848 205 850 197 q 782 256 836 242 q 739 261 763 261 q 711 260 731 261 q 627 248 690 259 q 523 236 558 237 l 518 236 q 469 245 487 236 q 451 257 456 250 q 444 273 446 263 q 442 283 442 278 q 459 339 442 304 q 572 490 485 393 q 632 562 596 517 q 689 638 668 608 q 779 831 779 764 q 772 863 779 849 q 728 915 762 894 q 635 952 694 939 q 473 976 576 966 q 411 978 446 978 q 313 975 376 978 q 189 962 250 972 q 40 896 95 943 q -7 809 -7 854 q -5 793 -7 802 q 75 709 7 732 q 147 701 104 701 q 220 705 180 701 q 258 710 239 708 q 286 711 277 711 q 355 663 355 711 q 353 641 355 653 q 262 515 337 587 q 167 406 214 469 q 92 283 120 342 q 68 230 76 252 q 56 180 61 208 q 52 142 52 160 q 115 31 52 68 q 256 -4 161 2 m 155 856 q 142 851 149 853 q 132 849 136 849 q 114 863 119 849 q 113 871 113 867 q 119 886 113 879 q 149 902 125 892 q 202 918 173 911 q 267 927 229 926 l 304 928 l 314 921 q 323 905 322 913 l 323 903 q 317 889 323 895 q 312 885 315 886 q 302 883 309 884 q 284 883 296 883 q 260 882 273 883 q 239 880 247 881 q 196 870 220 877 q 155 856 171 863 m 81 785 q 68 782 74 782 q 54 787 62 782 q 45 808 45 792 q 53 827 45 819 q 71 835 60 835 q 87 827 79 835 q 96 811 96 819 q 81 785 96 795 "},"[":{"ha":725,"x_min":68,"x_max":657,"o":"m 281 -161 q 302 -164 292 -163 q 331 -165 313 -165 l 379 -165 q 631 -104 581 -163 q 657 -33 657 -73 q 653 -1 657 -18 q 618 48 645 33 q 532 67 592 63 q 461 81 483 70 q 427 121 440 92 q 383 298 398 182 q 370 486 374 378 q 369 590 369 540 q 371 710 369 640 q 382 816 373 779 q 483 900 392 867 q 525 920 510 911 q 548 942 539 929 q 574 1017 574 982 q 539 1087 574 1056 q 414 1128 500 1113 q 317 1137 361 1137 q 268 1134 290 1137 q 168 1079 213 1126 q 143 1051 151 1062 q 125 1020 135 1040 q 74 842 87 942 q 68 720 68 793 q 78 496 68 627 q 83 435 81 468 q 85 379 85 401 q 121 14 94 124 q 281 -161 160 -135 m 168 713 q 161 706 165 708 q 152 705 158 705 q 130 723 134 705 q 128 749 128 732 q 130 789 128 765 q 153 907 137 850 q 183 982 168 964 q 199 992 190 990 q 205 993 202 993 q 216 991 211 993 q 227 974 227 985 l 227 971 q 219 954 227 962 q 197 900 209 941 q 178 810 186 858 q 173 745 173 772 l 173 734 q 174 727 174 730 q 173 721 174 724 q 168 713 172 717 m 159 597 q 149 593 153 593 q 139 595 144 593 q 123 621 123 606 q 125 635 123 624 q 149 646 127 646 q 170 636 163 646 q 173 623 173 631 q 171 611 173 618 q 159 597 168 601 "},"\\":{"ha":821,"x_min":68,"x_max":753,"o":"m 150 1061 q 127 1050 140 1058 q 106 1031 115 1042 q 89 997 98 1021 q 73 953 79 974 q 68 895 68 929 l 68 887 q 75 815 68 846 q 174 568 94 718 q 231 448 229 464 q 247 406 233 441 q 277 329 260 370 q 306 262 294 287 q 478 -9 392 72 q 597 -82 529 -60 q 622 -88 612 -86 q 648 -90 631 -90 q 673 -88 665 -90 q 691 -82 682 -87 q 753 33 753 -48 q 752 54 753 43 q 715 181 747 106 q 608 398 683 257 q 413 798 510 581 q 350 923 378 876 q 288 1001 321 970 q 168 1062 222 1062 q 150 1061 159 1062 m 446 210 q 454 196 448 208 q 469 168 461 184 q 508 95 494 112 q 513 80 513 87 q 506 64 513 72 q 492 58 499 58 q 464 80 478 58 q 444 115 456 92 q 422 161 432 139 q 410 191 412 184 l 410 193 q 421 212 410 206 q 432 215 427 215 q 446 210 439 215 m 406 300 q 412 283 412 292 q 410 273 412 277 q 389 257 405 257 q 371 267 380 257 q 361 286 361 276 q 372 307 361 303 q 386 310 382 310 q 406 300 396 310 "},"]":{"ha":725,"x_min":68,"x_max":657,"o":"m 444 1133 q 422 1136 433 1135 q 394 1137 412 1137 l 346 1137 q 94 1076 144 1135 q 68 1006 68 1045 q 72 974 68 990 q 106 924 80 939 q 193 905 133 909 q 263 891 242 903 q 298 851 285 880 q 342 675 327 790 q 355 487 351 594 q 356 382 356 433 q 354 263 356 332 q 343 157 352 193 q 242 73 333 106 q 200 53 215 62 q 177 31 186 43 q 151 -44 151 -9 q 186 -115 151 -83 q 311 -155 225 -140 q 408 -165 364 -165 q 457 -161 435 -165 q 557 -106 512 -154 q 582 -79 574 -90 q 600 -47 590 -68 q 651 130 637 31 q 657 252 657 180 q 647 477 657 345 q 642 538 644 505 q 640 593 640 571 q 604 959 631 848 q 444 1133 565 1107 m 557 260 q 564 266 560 264 q 573 268 567 268 q 595 250 591 268 q 597 224 597 241 q 595 184 597 208 q 572 65 588 122 q 542 -9 557 8 q 526 -20 535 -18 q 519 -20 523 -20 q 509 -18 515 -20 q 498 -1 498 -12 l 498 1 q 506 19 498 10 q 528 73 516 31 q 547 162 539 115 q 552 228 552 201 l 552 238 q 552 245 552 242 q 553 252 552 249 q 557 260 553 256 m 566 376 q 576 380 572 380 q 586 377 581 380 q 602 352 602 366 q 600 338 602 349 q 576 327 597 327 q 555 336 562 327 q 552 349 552 342 q 554 361 552 355 q 566 376 557 372 "},"_":{"ha":908,"x_min":186,"x_max":959,"o":"m 820 283 q 639 290 728 290 q 290 263 460 290 q 199 208 212 245 q 186 149 186 170 q 209 75 186 113 q 328 -1 244 18 q 443 -9 372 -9 l 453 -9 q 663 0 530 -9 q 749 7 718 4 q 800 14 781 11 q 829 17 814 16 q 861 20 843 18 q 949 68 940 29 q 959 126 959 108 q 933 214 959 170 q 820 283 897 275 m 555 190 q 538 188 551 189 q 507 186 524 186 q 423 180 445 186 q 417 179 420 179 q 397 193 404 179 q 395 202 395 198 q 428 227 395 220 q 468 230 441 229 q 519 231 495 231 q 551 230 544 231 q 566 217 565 224 q 566 208 566 210 q 555 190 566 197 m 654 189 q 645 188 649 188 q 626 196 634 188 q 618 212 618 203 q 621 221 618 216 q 634 234 625 231 q 649 237 643 237 q 658 235 654 237 q 672 214 672 227 l 672 211 q 654 189 671 195 "},"a":{"ha":808,"x_min":24,"x_max":797,"o":"m 150 2 q 168 1 158 1 q 207 5 182 1 q 254 22 231 9 q 292 53 269 30 q 327 92 315 75 q 339 114 331 100 q 356 143 348 128 q 393 201 379 187 q 418 213 405 213 q 423 212 420 213 q 451 203 436 211 q 479 182 467 195 q 498 160 485 176 q 526 125 511 144 q 633 16 593 37 q 700 0 666 0 q 725 1 704 0 q 769 25 747 3 q 797 119 797 52 q 795 166 797 125 q 759 350 794 207 q 735 453 743 416 q 721 536 727 490 q 684 714 705 643 q 484 967 621 926 q 433 972 461 972 q 382 967 404 972 q 90 629 205 912 q 57 538 72 584 q 39 470 43 492 q 26 323 31 424 q 24 278 24 300 q 81 54 24 132 q 150 2 111 11 m 257 730 q 239 721 249 721 q 228 724 236 721 q 220 744 220 727 q 243 788 220 757 q 296 849 267 819 q 348 890 326 879 q 363 895 357 895 q 382 880 376 895 q 384 873 384 877 q 380 863 384 869 q 362 847 376 857 q 321 810 344 833 q 281 764 299 787 q 267 744 274 753 q 257 730 260 734 m 222 636 q 202 627 212 627 q 189 630 198 627 q 180 652 180 633 q 204 676 180 673 q 226 663 220 676 q 228 652 228 658 q 222 636 228 644 m 392 375 q 382 372 388 373 q 372 370 376 370 q 358 378 361 370 q 355 410 355 386 q 357 459 355 433 q 362 495 359 486 q 366 511 363 498 q 371 541 368 524 q 401 663 389 663 q 408 656 404 663 q 416 642 412 650 q 423 624 420 633 q 432 550 430 595 q 433 521 433 535 q 430 467 433 492 q 392 375 422 387 "},"b":{"ha":853,"x_min":31,"x_max":837,"o":"m 267 -15 q 316 -18 289 -18 q 444 -8 363 -18 q 593 22 524 1 q 632 37 607 27 q 679 58 656 47 q 709 73 701 68 q 756 109 731 86 q 797 155 781 132 q 837 276 837 213 q 817 370 837 321 q 798 399 810 382 q 771 431 785 416 q 725 463 755 445 q 671 490 696 481 l 648 499 l 690 543 q 754 620 733 587 q 787 695 775 654 q 795 760 795 728 q 775 852 795 807 q 644 954 739 920 q 570 971 619 961 q 481 985 520 981 q 395 989 446 989 l 379 989 q 309 987 338 989 q 245 975 281 984 q 183 956 209 966 q 113 915 144 941 q 66 861 81 889 q 52 823 59 845 q 39 779 44 800 q 34 682 36 757 q 31 532 31 607 q 34 433 31 456 q 36 414 35 429 q 39 380 37 399 q 60 231 44 300 q 97 111 77 155 q 146 37 117 66 q 267 -15 190 -3 m 143 749 q 130 743 136 743 q 115 749 123 743 q 107 765 109 756 l 107 770 q 110 787 107 777 q 174 885 127 844 q 195 900 182 892 q 222 914 209 908 q 239 920 235 920 q 250 916 244 920 q 259 906 255 911 q 263 897 263 901 q 238 872 263 880 q 183 830 208 860 q 152 768 158 800 q 149 758 151 763 q 143 749 146 752 m 121 650 q 109 648 115 648 q 94 653 102 648 q 86 673 86 658 q 96 694 86 688 q 108 697 102 697 q 121 694 114 697 q 134 670 133 688 q 121 650 134 657 m 406 636 q 384 631 393 631 q 363 638 374 631 q 353 673 353 646 q 356 711 353 692 q 363 740 359 730 q 381 757 370 751 q 401 762 391 762 q 408 761 404 762 q 420 758 414 760 q 431 753 427 756 q 447 724 444 745 q 448 711 448 718 q 443 677 448 696 q 406 636 435 648 m 433 210 q 406 203 419 205 q 393 202 399 202 q 385 203 389 202 q 369 215 376 205 q 359 237 361 225 q 356 256 357 243 q 355 279 355 268 q 373 371 355 336 q 421 414 391 407 q 439 416 431 416 q 487 393 468 416 q 504 342 504 375 q 496 288 504 319 q 433 210 480 223 "},"c":{"ha":796,"x_min":3,"x_max":803,"o":"m 161 795 q 18 543 53 679 q 3 433 3 487 q 44 254 3 355 q 234 66 85 153 q 492 9 340 10 l 498 9 q 745 72 646 9 q 803 168 803 118 q 792 218 803 180 q 684 277 781 256 q 606 284 644 283 q 512 295 560 285 q 427 330 466 306 q 370 382 389 353 q 338 454 344 422 q 336 479 336 465 q 342 528 336 500 q 397 640 359 595 q 450 673 425 673 q 465 669 458 673 q 480 656 475 664 q 490 632 486 648 q 500 584 494 615 q 513 520 507 539 q 532 489 519 500 q 568 469 547 475 q 594 465 582 465 q 608 466 601 465 q 693 522 659 479 q 745 665 740 582 l 745 677 q 650 905 745 813 q 505 964 587 964 q 320 913 416 964 q 161 795 224 863 m 268 762 q 244 741 252 747 q 231 736 237 736 q 216 743 222 736 q 209 759 209 750 q 211 766 209 763 q 217 775 212 770 q 232 791 222 781 q 313 857 268 825 q 340 871 323 863 q 374 886 357 880 q 395 893 391 893 q 404 889 399 893 q 413 880 409 885 q 417 870 417 874 q 409 855 417 861 q 378 839 401 848 q 268 762 323 814 m 185 662 q 168 654 177 654 q 162 654 167 654 q 149 663 157 654 q 144 672 146 667 q 142 680 142 676 q 148 695 142 688 q 164 704 155 703 q 170 705 168 705 q 175 704 172 705 q 183 698 178 703 q 193 680 193 689 q 185 662 193 671 "},"d":{"ha":848,"x_min":35,"x_max":811,"o":"m 264 -11 q 290 -12 278 -12 q 307 -12 302 -12 q 338 -9 315 -12 q 357 -8 347 -9 q 595 79 479 1 q 756 275 690 138 q 797 378 785 330 q 810 485 809 426 q 811 507 811 496 q 805 582 811 544 q 782 673 800 621 q 649 883 744 783 q 586 927 628 904 q 505 960 543 949 q 418 980 450 976 q 323 984 386 984 q 272 984 289 984 q 243 982 255 983 q 213 977 231 980 q 137 949 166 967 q 87 901 108 932 q 64 854 73 880 q 46 785 55 828 l 35 734 l 36 561 q 38 414 37 467 q 41 329 39 361 q 47 271 43 298 q 81 124 62 176 q 132 43 100 73 q 264 -11 179 -6 m 136 750 q 121 743 129 743 q 107 747 116 743 q 98 768 98 751 q 99 779 98 772 q 102 791 100 786 q 118 832 106 808 q 140 871 130 856 q 181 909 157 893 q 226 928 205 926 q 234 929 231 929 q 238 928 236 929 q 245 923 241 928 q 253 909 253 916 q 224 881 253 895 q 206 871 215 877 q 192 861 197 866 q 161 820 175 846 q 143 770 147 795 q 140 758 142 764 q 136 750 138 752 m 115 642 q 104 638 108 638 q 93 642 99 638 q 83 651 87 645 q 79 664 79 658 q 90 684 79 677 q 104 689 96 689 q 114 687 109 689 q 130 665 129 680 l 130 664 q 115 642 130 650 m 425 246 q 398 239 412 240 l 393 239 q 377 243 383 239 q 359 281 363 252 q 357 330 358 291 l 357 370 q 357 421 357 390 q 359 471 357 452 q 359 506 359 479 q 361 566 360 532 q 373 702 362 686 q 407 724 382 719 q 423 726 416 726 q 448 720 437 726 q 488 623 475 701 q 499 499 499 561 q 497 448 499 473 q 483 321 492 359 q 453 265 474 283 q 440 254 448 260 q 425 246 432 249 "},"e":{"ha":839,"x_min":12,"x_max":827,"o":"m 397 3 q 410 2 399 2 q 427 2 414 2 q 465 4 439 3 q 515 8 492 6 q 551 14 539 11 q 692 62 640 33 q 806 161 770 105 q 827 236 827 199 q 823 277 827 248 q 779 327 818 307 q 734 336 760 336 q 710 335 729 336 q 629 318 692 334 q 547 297 577 304 q 494 288 516 290 q 444 283 472 285 q 425 283 434 283 q 390 286 405 283 q 365 301 376 290 q 348 336 348 319 q 364 370 348 353 q 426 407 382 389 q 556 449 471 425 q 598 463 581 456 q 637 482 616 470 q 784 661 745 545 q 798 747 798 705 q 777 846 798 799 q 700 924 754 890 q 578 968 645 958 q 543 970 564 970 q 508 969 532 970 q 455 964 484 968 q 365 937 414 956 q 277 894 316 918 q 14 467 49 743 q 12 413 12 439 q 68 180 12 281 q 167 73 110 113 q 307 15 230 31 q 309 14 308 14 q 335 9 326 11 q 351 7 344 8 q 371 5 359 6 q 389 4 382 5 q 397 3 397 3 m 300 798 q 282 781 288 785 q 271 777 276 777 q 251 789 256 777 q 250 798 250 793 q 256 817 250 807 q 293 852 269 833 q 341 886 317 871 q 378 901 366 900 q 387 897 381 901 q 396 887 392 892 q 401 879 401 882 q 374 852 401 865 q 300 798 336 833 m 222 708 q 206 702 215 702 q 191 706 201 702 q 181 726 181 711 q 191 747 181 741 q 204 751 197 751 q 215 749 210 751 q 229 725 229 745 q 222 708 229 715 m 438 611 q 418 606 427 606 q 399 631 399 606 q 401 646 399 637 q 425 696 406 673 q 463 730 443 719 q 481 734 473 734 q 496 729 490 734 q 503 708 503 721 q 494 673 503 697 q 460 625 486 650 q 450 617 456 621 q 438 611 444 613 "},"f":{"ha":824,"x_min":22,"x_max":812,"o":"m 270 -3 q 284 -5 275 -5 q 303 -6 294 -6 q 382 43 369 -1 q 391 111 391 75 q 390 138 391 124 q 389 161 389 150 l 389 193 q 392 275 389 264 q 417 326 399 302 q 457 360 435 349 q 574 382 492 377 q 594 384 583 382 q 610 386 604 385 q 623 387 617 387 q 627 388 625 388 q 628 387 628 388 l 630 387 q 646 389 634 387 q 676 396 658 391 q 712 405 695 400 q 736 412 728 409 q 803 471 785 433 q 812 511 812 491 q 804 552 812 532 q 717 616 779 600 q 644 621 695 621 l 629 621 q 551 617 586 621 q 466 612 502 612 q 374 636 391 612 q 370 647 370 641 q 384 675 370 657 q 430 711 397 692 q 465 726 446 720 q 518 738 484 732 q 610 751 551 743 q 648 759 625 753 q 691 769 671 764 q 719 777 711 774 q 773 844 773 803 q 772 870 773 846 q 708 936 770 894 q 622 968 671 959 q 551 977 593 974 q 500 979 524 979 q 479 978 489 979 q 98 821 189 963 q 27 611 37 727 q 22 476 22 553 q 23 405 22 461 q 42 257 24 349 q 101 103 60 164 q 270 -3 157 25 m 158 741 l 157 740 q 152 738 154 739 l 149 738 l 148 739 q 143 740 146 739 q 130 759 130 746 q 140 786 130 770 q 183 837 157 810 q 234 882 209 863 q 271 901 260 901 q 286 894 279 901 q 294 881 294 888 q 288 866 294 873 q 266 849 283 860 q 217 807 244 834 q 177 760 190 779 q 158 741 167 743 m 123 652 q 114 649 119 650 q 106 648 110 648 q 97 651 102 648 q 87 660 91 655 q 83 669 83 665 q 88 685 83 677 q 101 700 94 694 q 115 707 109 707 q 125 703 119 707 q 136 695 132 700 q 139 684 139 690 q 136 668 139 678 q 123 652 133 659 "},"g":{"ha":983,"x_min":4,"x_max":964,"o":"m 389 -19 q 406 -20 392 -20 q 439 -20 420 -20 q 715 43 588 -19 q 895 196 835 104 q 913 228 902 208 q 932 267 924 248 q 941 289 941 286 q 941 292 941 290 q 943 295 942 294 q 956 334 949 304 q 964 393 962 365 q 962 433 964 408 q 956 471 960 458 q 762 625 920 590 q 703 631 730 631 q 542 548 599 631 q 512 471 512 505 q 515 450 512 460 q 520 436 517 442 q 533 421 524 431 q 558 393 541 411 q 602 344 589 361 q 620 311 615 327 q 623 296 623 301 q 619 281 623 290 q 551 225 606 239 q 527 221 537 221 q 519 221 526 221 q 496 227 513 221 q 380 319 437 247 q 355 364 369 334 q 335 414 341 394 q 332 447 332 429 q 333 470 332 453 q 340 505 334 486 q 378 578 355 543 q 516 686 433 662 q 539 692 529 690 q 562 696 549 694 q 597 699 574 697 q 635 700 618 700 q 649 701 644 701 q 656 700 654 701 l 662 700 q 681 701 669 700 q 710 705 694 702 q 734 710 726 707 q 819 795 802 734 q 822 820 822 808 q 781 914 822 865 q 658 986 739 962 q 636 990 651 988 q 605 992 621 991 q 585 993 593 993 q 566 992 576 993 q 533 986 555 991 q 373 928 458 968 q 224 839 288 888 q 42 614 90 732 q 4 429 4 516 q 23 311 4 367 q 42 268 28 296 q 70 213 55 241 q 94 169 85 184 q 354 -12 191 21 q 376 -16 366 -14 q 389 -19 386 -18 m 225 715 q 214 706 218 709 q 204 704 210 704 q 184 716 188 704 q 182 724 182 720 q 191 745 182 733 q 218 774 199 756 q 255 806 237 792 q 311 844 282 827 q 347 861 340 861 q 366 852 359 861 q 370 842 370 847 q 367 831 370 837 q 352 819 366 828 q 321 797 339 809 q 282 769 302 784 q 249 743 262 755 q 236 730 236 732 q 233 725 236 728 q 225 715 230 721 m 157 616 q 140 611 149 611 q 124 615 132 611 q 113 625 117 618 q 111 635 111 630 q 111 641 111 638 q 122 656 113 648 q 139 666 131 664 q 145 667 142 667 q 162 660 155 667 q 170 640 170 651 q 169 631 170 638 q 157 616 169 625 "},"h":{"ha":947,"x_min":28,"x_max":897,"o":"m 705 -9 q 723 -10 713 -10 q 757 -6 736 -10 q 802 13 778 -1 q 876 99 849 42 q 895 176 891 130 q 897 239 897 200 q 895 332 897 278 q 894 348 894 340 q 891 431 892 401 q 887 498 890 462 q 878 605 884 534 q 878 614 878 610 q 864 753 869 710 q 852 824 859 795 q 818 915 839 884 q 760 963 797 947 q 677 983 718 983 q 614 971 655 983 q 543 903 572 960 q 530 859 532 880 q 529 848 529 854 q 534 796 529 828 q 540 718 540 747 q 538 688 540 699 q 498 629 528 641 q 483 626 494 627 q 456 624 471 625 q 434 624 442 624 q 421 625 426 624 q 413 628 416 626 q 402 638 406 631 q 397 659 399 644 q 396 701 396 673 l 396 706 q 368 872 396 817 q 250 952 330 949 l 247 952 q 130 903 183 952 q 58 770 74 850 q 43 673 52 741 q 31 549 35 605 q 28 471 28 513 q 33 335 28 418 q 54 190 39 252 q 120 58 75 106 q 232 5 167 5 q 303 20 267 5 q 363 58 340 34 q 390 95 378 73 q 408 138 402 117 q 410 170 410 149 q 400 300 410 214 q 394 357 397 330 q 392 395 392 385 l 392 402 q 393 420 392 413 q 400 437 395 427 q 447 472 414 466 q 463 473 455 473 q 496 465 478 473 q 525 437 515 457 q 529 426 528 433 q 531 402 530 418 q 532 355 532 387 q 533 306 532 326 q 535 283 534 286 q 537 273 536 282 q 541 251 538 264 q 559 168 547 211 q 587 90 572 124 q 602 63 595 73 q 621 41 609 52 q 643 21 633 28 q 668 7 652 14 q 689 -3 679 1 q 705 -9 700 -7 m 117 648 q 106 646 111 646 q 85 661 93 646 q 83 677 83 668 q 90 725 83 693 q 113 797 97 758 q 145 852 129 836 q 161 859 153 859 q 176 852 170 859 q 182 839 182 847 q 173 817 182 829 q 143 749 157 793 q 130 680 130 705 q 126 659 130 668 q 117 648 122 650 m 117 549 q 99 541 109 541 q 91 543 97 541 q 77 556 84 544 q 73 574 73 566 q 76 588 73 579 q 91 600 79 596 q 97 601 94 601 q 116 593 106 601 q 123 584 121 588 q 125 570 125 580 q 123 557 125 561 q 117 549 122 553 "},"i":{"ha":450,"x_min":30,"x_max":404,"o":"m 198 13 q 216 9 207 9 q 232 8 222 8 l 242 8 q 269 11 260 9 q 289 18 278 12 q 342 68 319 33 q 366 129 359 93 q 375 246 373 165 q 388 469 379 374 q 402 669 399 597 q 404 729 404 703 q 400 793 404 761 q 384 858 397 825 q 315 950 359 922 q 257 964 290 964 q 204 956 233 964 q 174 945 187 951 q 143 928 161 939 q 50 789 75 883 q 44 772 47 779 q 40 764 41 765 q 31 670 37 760 q 30 628 30 656 q 30 579 30 614 q 32 488 30 544 q 35 401 33 431 q 73 169 47 259 q 142 45 98 85 q 168 26 155 33 q 198 13 180 18 m 142 650 q 127 645 135 645 q 121 645 126 645 q 111 652 117 646 q 107 660 108 656 q 106 671 106 663 q 106 694 106 678 q 119 783 109 740 q 142 841 130 827 q 159 850 151 850 q 174 843 167 850 q 181 829 181 837 q 175 808 181 821 q 151 688 157 768 q 149 666 150 673 q 146 655 148 659 q 142 650 145 652 m 136 560 q 121 552 128 552 q 105 561 113 552 q 97 579 97 570 q 104 597 97 588 q 119 606 112 606 q 143 590 137 606 q 145 580 145 585 q 136 560 145 570 "},"j":{"ha":786,"x_min":7,"x_max":746,"o":"m 250 12 q 292 9 264 9 l 311 9 q 354 11 330 9 q 393 15 378 12 q 549 85 484 34 q 673 256 623 142 q 699 321 686 286 q 718 376 712 357 q 730 434 725 408 q 737 473 736 460 q 739 490 738 480 q 741 507 741 499 q 746 589 746 540 q 746 628 746 595 q 739 713 745 660 l 739 715 q 733 758 735 743 q 730 780 731 773 q 728 791 729 787 q 725 804 726 795 q 721 820 723 812 l 721 821 q 713 842 718 829 q 703 867 709 855 q 689 892 696 882 q 669 915 682 903 q 614 953 642 941 q 550 963 587 963 l 545 963 q 480 953 507 963 q 431 919 454 943 q 394 838 395 885 l 394 831 q 397 785 394 808 q 400 764 399 773 q 401 758 401 760 q 400 755 401 755 q 401 745 400 753 q 403 726 401 737 q 412 604 411 675 q 413 567 413 584 q 409 492 413 522 q 345 350 394 382 q 326 342 334 342 q 321 342 326 342 q 307 352 317 342 q 286 382 295 362 q 267 440 277 403 q 257 476 262 459 q 250 500 252 493 q 180 599 224 573 q 138 610 159 610 q 87 594 113 610 q 22 492 46 567 q 13 460 15 474 q 8 421 10 447 q 7 391 7 406 q 9 357 7 377 q 17 298 10 338 q 54 186 27 239 q 129 77 85 120 q 250 12 181 26 m 481 678 q 465 669 473 669 l 463 669 q 447 677 454 669 q 444 684 445 680 q 441 700 442 689 q 439 731 439 710 q 436 768 437 751 q 433 791 434 785 q 428 813 429 806 l 428 818 q 429 825 428 822 q 434 831 430 828 q 450 839 441 839 q 465 832 458 839 q 485 721 480 817 q 486 697 486 705 q 484 685 486 689 q 481 678 483 682 m 488 585 q 472 578 480 578 q 462 580 469 578 q 448 595 455 582 q 445 608 445 602 q 449 623 445 614 q 466 631 453 631 q 480 627 473 631 q 492 617 488 623 q 495 605 495 612 q 494 597 495 603 q 488 585 493 591 "},"k":{"ha":995,"x_min":38,"x_max":998,"o":"m 203 7 q 250 3 222 3 q 273 3 254 3 q 309 9 292 3 q 320 12 315 11 q 327 14 325 14 q 339 18 329 14 q 363 29 349 22 q 463 136 436 65 q 468 152 467 144 q 470 170 470 159 q 471 204 471 181 q 461 322 471 274 q 457 343 460 329 q 450 374 454 357 q 443 406 446 391 q 437 444 437 431 q 440 453 437 452 l 442 453 q 465 440 450 453 q 496 406 480 427 q 510 382 503 395 q 531 344 517 370 q 569 269 544 318 q 632 151 608 189 q 680 90 655 113 q 833 15 743 22 q 844 14 838 14 q 892 21 865 14 q 943 44 919 28 q 989 97 973 63 q 997 115 995 108 q 998 137 998 123 q 995 163 998 159 q 992 166 994 164 q 991 170 991 168 q 976 209 991 181 q 936 271 961 237 q 896 327 922 290 q 819 435 869 364 q 783 492 793 471 q 773 529 773 512 q 817 646 773 589 q 843 673 823 652 q 886 718 863 693 q 959 798 938 768 q 984 857 979 827 q 985 868 985 863 q 984 876 985 871 q 981 892 984 880 q 968 919 976 909 q 947 939 961 930 q 824 969 904 969 l 821 969 q 707 951 751 969 q 631 903 665 936 q 560 806 597 870 q 523 747 538 768 q 495 713 509 727 q 458 691 475 691 q 433 711 444 691 q 427 724 429 718 q 424 743 425 730 q 422 780 423 755 q 414 847 419 823 q 397 890 409 871 q 304 958 366 943 q 260 962 285 962 q 235 961 254 962 q 191 953 216 960 q 47 800 75 918 l 39 770 l 38 595 l 38 517 q 41 334 38 409 q 55 207 44 259 q 203 7 87 33 m 138 690 q 132 688 134 689 l 129 688 l 126 689 q 119 692 123 690 q 111 701 113 696 q 106 718 108 707 l 106 752 q 121 844 106 815 q 141 861 130 861 q 157 855 149 861 q 162 848 161 852 q 163 842 163 846 l 163 838 q 160 824 162 833 q 157 808 159 816 q 151 746 151 790 q 150 714 151 728 q 149 698 149 701 q 144 694 147 696 q 138 690 141 692 m 142 605 q 126 597 134 597 q 110 606 118 597 q 103 614 105 610 q 102 624 102 618 q 110 643 102 634 q 127 651 117 651 q 148 635 142 651 q 150 625 150 629 q 142 605 150 614 "},"l":{"ha":726,"x_min":33,"x_max":742,"o":"m 240 7 q 277 3 258 3 l 338 3 q 413 5 385 3 q 492 18 440 8 q 663 80 602 39 q 736 170 716 119 q 742 203 742 186 q 740 225 742 210 q 726 254 738 240 q 705 268 718 262 q 678 276 692 274 q 661 277 671 277 q 615 273 644 277 q 553 261 585 270 q 448 243 489 243 l 440 243 q 360 323 373 248 q 359 352 359 332 q 359 393 359 372 q 362 424 360 413 q 366 446 363 431 q 371 476 368 460 q 379 522 376 506 q 386 556 382 538 q 389 574 387 564 q 393 589 391 583 l 393 589 q 395 600 394 594 q 397 611 396 606 q 398 616 398 614 q 401 631 399 622 q 404 646 403 639 q 420 783 420 728 q 416 836 420 799 q 377 917 412 873 q 256 970 342 970 q 213 966 231 970 q 174 951 195 962 q 60 768 85 909 q 54 731 56 748 q 50 689 52 714 q 45 619 47 663 q 40 545 42 580 q 36 494 37 509 q 34 440 35 479 q 33 359 33 401 l 33 325 q 38 223 33 260 q 60 144 43 186 q 240 7 104 30 m 151 713 q 136 706 144 706 q 125 708 132 706 q 113 724 117 711 l 113 726 q 120 765 113 736 q 136 827 126 794 q 152 872 145 859 q 170 888 159 885 q 174 888 172 888 q 189 882 182 888 q 196 865 196 874 q 191 848 196 858 q 163 755 180 828 q 151 713 157 718 m 132 621 q 120 616 125 616 q 111 619 116 616 q 96 642 96 629 l 96 644 q 104 663 96 656 q 118 668 110 668 q 130 666 123 668 q 146 644 146 658 l 146 642 q 132 621 146 629 "},"m":{"ha":1230,"x_min":28,"x_max":1177,"o":"m 205 -7 q 228 -9 214 -9 q 252 -8 235 -9 q 283 -3 269 -7 q 361 50 336 15 q 378 81 374 66 q 381 116 381 94 l 381 123 q 377 173 381 147 q 363 251 374 198 q 342 391 345 345 q 341 408 341 400 q 351 460 341 441 q 357 471 353 467 q 361 476 360 476 q 423 361 386 476 q 532 189 465 224 q 562 175 549 178 q 600 170 575 171 l 615 170 q 629 171 622 170 q 645 174 636 171 q 747 272 710 192 q 772 335 760 300 q 802 431 785 370 q 817 484 812 467 q 827 501 823 500 l 827 501 q 834 491 830 501 q 845 331 843 476 q 848 218 846 256 q 857 153 851 180 q 940 20 878 49 q 963 11 954 14 q 984 7 972 8 l 991 7 q 1102 69 1058 7 q 1151 193 1135 115 q 1175 408 1168 271 q 1177 486 1177 444 q 1175 586 1177 521 q 1166 703 1173 650 q 1152 790 1159 758 q 1135 848 1145 823 q 1050 952 1105 917 q 974 979 1017 972 q 940 981 956 981 q 893 976 916 981 q 862 965 875 971 q 833 947 850 959 q 772 867 798 920 q 742 791 754 832 q 710 664 729 749 q 670 530 688 563 q 642 508 658 508 q 627 513 635 508 q 596 551 611 521 q 560 646 581 581 q 434 875 512 790 q 319 951 377 937 q 285 954 301 954 q 138 865 202 954 q 123 842 129 852 q 112 817 118 832 q 96 776 106 802 q 31 509 47 648 q 28 416 28 476 q 28 363 28 406 q 33 277 28 320 q 139 24 57 92 q 172 5 153 14 q 205 -7 191 -4 m 159 661 q 142 653 151 653 q 134 655 140 653 q 122 668 127 656 q 121 674 121 670 q 127 708 121 684 q 148 770 134 733 q 167 818 159 802 q 180 839 174 833 q 195 844 186 844 q 214 832 210 844 q 216 824 216 829 q 210 804 216 816 q 189 750 201 786 q 170 691 176 714 q 164 672 167 680 q 159 661 161 663 m 134 559 q 128 558 132 558 q 120 557 124 557 q 99 570 107 557 q 95 585 95 577 q 97 595 95 590 q 119 610 105 610 q 131 608 121 610 q 146 587 141 606 q 146 582 146 585 q 143 569 146 576 q 134 559 140 562 "},"n":{"ha":923,"x_min":37,"x_max":867,"o":"m 195 -12 q 214 -13 205 -13 q 343 44 280 -13 q 386 119 380 75 q 387 142 387 129 q 374 266 387 186 q 370 294 370 286 l 370 299 q 371 304 370 303 q 373 313 373 307 q 371 330 373 318 q 366 391 367 358 q 366 412 366 402 q 368 446 366 432 q 414 531 382 531 q 479 478 444 531 q 535 344 513 425 q 544 299 539 328 q 552 244 549 271 q 556 208 556 218 q 557 197 556 201 q 559 192 557 193 q 562 183 559 191 q 568 163 565 175 q 690 0 604 10 l 697 0 q 772 27 736 0 q 827 105 808 55 q 857 315 848 165 q 866 601 865 460 q 867 671 867 640 q 863 793 867 755 q 785 963 849 927 q 710 985 749 985 q 674 981 692 985 q 607 941 637 969 q 562 877 576 912 q 551 830 554 856 q 547 758 547 804 q 546 716 547 730 q 544 696 546 703 q 540 684 543 690 q 517 666 530 666 q 486 684 503 666 q 471 700 477 692 q 456 724 465 708 q 430 773 448 740 q 376 862 397 833 q 328 909 355 891 q 288 930 307 924 q 252 934 272 934 l 242 934 q 200 927 218 933 q 163 905 183 921 q 63 711 94 858 q 43 595 47 641 q 37 460 38 549 l 37 410 q 47 195 37 271 q 195 -12 71 7 m 140 618 q 126 612 134 612 l 124 612 q 112 615 117 612 q 103 631 104 620 l 103 634 q 107 669 103 646 q 129 762 117 722 q 149 808 140 802 q 156 810 151 810 q 164 811 160 811 q 182 792 182 811 q 177 766 182 782 q 163 717 171 749 q 151 655 155 684 q 140 618 146 623 m 132 505 q 115 496 123 496 q 103 500 111 496 q 90 522 95 503 q 88 536 88 532 l 88 539 q 89 545 88 543 q 94 551 90 548 q 109 558 101 558 q 130 547 119 558 q 138 537 136 541 q 140 525 140 532 q 139 513 140 517 q 132 505 137 509 "},"o":{"ha":899,"x_min":6,"x_max":860,"o":"m 359 -3 q 387 -4 367 -4 q 429 -5 407 -5 q 467 -3 453 -4 q 490 -1 480 -3 q 515 5 500 1 q 717 127 628 33 q 824 300 785 196 q 859 469 855 378 q 860 495 860 482 q 726 852 860 707 q 531 968 641 942 q 452 977 492 977 q 347 963 401 977 q 98 778 192 918 q 14 557 32 681 q 6 467 6 511 q 62 229 6 342 q 359 -3 168 35 m 155 650 q 142 646 148 646 q 125 652 134 646 q 120 662 121 657 q 119 667 119 664 q 121 677 119 670 q 128 701 123 684 q 162 777 142 740 q 197 825 183 814 q 216 831 207 831 q 224 830 218 831 q 236 819 230 829 q 239 811 239 814 q 237 803 239 808 q 233 796 235 800 q 229 792 231 793 q 199 750 218 785 q 170 682 181 716 q 155 650 161 654 m 127 549 q 113 545 120 545 q 97 551 106 545 q 88 578 88 558 q 114 601 88 600 q 133 593 124 601 q 142 577 142 586 q 137 562 142 570 q 127 549 133 553 m 473 267 q 454 262 463 262 q 422 280 437 262 q 378 400 393 309 q 367 507 368 462 l 367 514 q 374 598 367 556 q 450 721 399 721 q 467 718 458 721 q 508 669 488 706 q 536 585 527 632 q 542 518 542 555 q 536 432 542 488 q 513 323 531 375 q 494 288 505 303 q 473 267 483 272 "},"p":{"ha":842,"x_min":35,"x_max":827,"o":"m 197 -2 q 229 -5 212 -5 q 263 -2 241 -5 q 309 15 285 1 q 350 54 332 28 q 376 108 368 79 q 380 156 380 123 l 380 167 q 378 227 380 195 q 376 255 376 242 q 389 318 376 295 q 415 351 397 337 q 471 378 432 364 q 583 414 509 393 q 667 442 637 430 q 718 468 696 454 q 825 632 806 530 q 827 665 827 647 q 826 699 827 676 q 819 745 825 722 q 578 957 777 911 q 403 978 486 978 q 232 953 312 978 q 74 824 120 913 q 49 745 56 787 q 43 669 43 713 q 44 641 43 655 q 45 597 45 622 q 37 340 45 508 q 35 267 35 300 q 46 149 35 186 q 197 -2 81 26 m 152 665 q 138 659 146 659 q 131 659 136 659 q 120 667 125 659 q 113 708 113 677 q 113 730 113 711 q 121 797 113 749 q 129 827 125 818 q 142 839 134 836 q 151 842 147 842 q 158 839 154 842 q 172 818 172 831 q 170 810 172 814 q 162 765 165 795 q 157 707 158 734 q 157 684 157 692 q 155 671 156 675 q 152 665 154 667 m 429 610 q 407 603 418 603 q 387 609 396 603 q 369 654 370 625 l 369 656 q 385 711 369 686 q 404 728 393 720 q 424 735 415 735 q 451 720 441 735 q 462 682 462 705 q 461 666 462 674 q 459 653 460 658 q 447 629 456 642 q 429 610 437 616 m 151 557 q 133 550 142 550 q 116 558 124 550 q 110 567 111 563 q 108 582 108 572 q 112 604 108 595 q 121 616 115 613 q 130 617 125 617 q 149 609 140 617 q 161 585 159 601 l 161 581 q 151 557 161 568 "},"q":{"ha":916,"x_min":3,"x_max":935,"o":"m 790 -8 q 829 -14 811 -14 q 895 12 868 -14 q 932 73 923 39 q 935 98 935 85 q 926 133 935 117 q 901 160 918 149 q 850 182 884 171 q 813 198 824 192 q 800 215 803 205 q 797 231 797 222 q 803 258 797 243 q 827 325 814 285 q 845 389 840 365 q 857 511 857 452 q 772 801 857 669 q 748 833 758 822 q 720 863 739 844 q 448 985 597 985 q 290 954 372 985 q 154 859 217 924 q 111 809 129 833 q 73 750 92 785 q 10 566 27 673 q 3 477 3 520 q 59 237 3 352 q 362 5 167 40 q 412 3 384 3 q 451 4 423 3 q 500 11 478 5 q 562 27 539 22 q 597 35 584 33 q 624 37 611 37 q 671 32 648 37 q 732 12 693 26 q 765 0 748 5 q 790 -8 781 -6 m 151 677 q 137 671 144 671 q 124 675 133 671 q 115 695 116 680 q 137 757 115 711 q 184 836 160 803 q 220 863 205 863 q 239 849 231 863 q 241 842 241 846 q 229 819 241 832 q 192 765 212 800 q 162 699 172 730 q 157 687 159 693 q 151 677 154 680 m 116 570 q 103 567 109 567 q 91 570 98 567 q 79 586 84 574 q 78 596 78 591 q 84 617 78 605 q 102 629 91 629 q 116 625 108 629 q 127 616 124 621 q 130 602 130 610 q 127 586 130 596 q 116 570 125 576 m 470 275 q 452 270 460 270 q 418 289 435 270 q 376 409 391 318 q 364 516 365 471 l 364 528 q 372 607 364 568 q 446 730 397 730 q 464 726 454 730 q 504 677 485 714 q 534 593 524 641 q 538 529 538 565 q 533 441 538 498 q 509 331 528 384 q 491 296 502 312 q 470 275 480 281 "},"r":{"ha":849,"x_min":30,"x_max":876,"o":"m 214 -7 q 217 -7 216 -7 q 238 -12 231 -10 l 245 -12 q 254 -11 249 -12 q 271 -8 258 -11 l 273 -8 q 361 71 345 3 q 366 119 366 86 l 366 128 q 362 191 366 157 q 359 252 359 216 l 359 286 q 359 325 359 302 q 362 355 359 347 q 373 366 366 366 q 378 365 374 366 q 398 346 382 363 q 463 231 425 318 q 511 138 492 170 q 555 81 530 106 q 717 6 625 6 q 746 8 736 6 q 770 15 755 9 q 844 57 814 31 q 876 119 873 84 l 876 126 q 871 154 876 140 q 855 187 867 168 q 835 213 849 197 q 805 245 821 229 q 779 269 789 261 q 654 376 688 338 q 623 442 623 412 l 623 447 q 639 492 623 467 q 699 560 655 517 q 772 649 752 612 q 792 731 792 686 q 789 771 792 755 q 777 807 785 788 q 678 911 751 867 q 488 976 592 964 q 460 979 476 977 q 433 982 446 981 q 405 984 420 984 q 381 983 397 984 q 317 977 364 983 q 96 867 165 964 q 92 862 94 864 q 76 841 81 848 q 68 825 71 833 q 61 801 66 817 q 60 798 61 800 q 43 714 51 766 q 32 617 35 663 q 30 534 30 579 q 36 362 30 469 q 58 184 43 256 q 214 -7 93 13 m 149 666 q 133 659 142 659 l 131 659 q 117 665 122 659 q 109 700 109 673 q 119 783 109 730 q 134 838 127 821 q 149 859 140 854 q 158 863 155 863 q 168 860 161 863 q 180 842 180 854 q 179 835 180 838 q 176 823 178 832 q 170 802 173 813 q 155 698 155 741 q 153 676 154 683 q 149 666 152 670 m 414 606 q 392 594 403 594 q 363 615 378 594 q 346 673 346 639 q 347 684 346 678 q 385 747 351 745 q 417 726 405 747 q 433 668 433 700 q 432 646 433 665 q 414 606 432 627 m 142 555 q 127 549 136 551 l 124 549 q 112 552 117 549 q 102 564 106 555 q 98 579 98 572 q 104 599 98 587 q 115 614 109 610 q 125 616 120 616 q 141 610 134 616 q 151 583 151 600 l 151 581 q 142 555 151 565 "},"s":{"ha":678,"x_min":10,"x_max":661,"o":"m 205 -2 q 226 -3 218 -3 l 234 -3 q 245 -3 239 -3 q 267 -1 252 -3 q 562 130 443 11 q 611 184 592 159 q 642 242 629 210 q 657 289 653 268 q 661 340 661 309 q 650 411 661 385 q 610 465 640 437 q 582 489 596 479 q 541 515 568 500 q 423 595 458 564 q 384 656 388 627 q 383 664 383 660 q 399 698 383 681 q 428 721 412 711 q 476 745 444 730 q 537 775 515 762 q 578 806 559 788 q 614 871 614 839 q 587 923 614 898 q 510 964 561 951 q 450 974 478 972 q 421 975 437 975 q 388 974 406 975 q 210 931 296 967 q 67 841 123 895 q 36 803 47 821 q 18 755 26 785 q 10 705 10 728 q 18 662 10 682 q 45 612 28 633 q 104 555 62 591 q 136 529 119 543 q 162 505 152 514 q 186 483 172 495 q 212 462 200 471 q 241 439 224 453 q 271 412 258 425 q 321 345 313 371 q 323 332 323 338 q 303 293 323 313 q 186 239 272 258 q 31 152 57 212 q 23 133 25 141 q 22 113 22 125 l 22 107 q 23 93 22 98 q 31 77 24 87 q 127 13 51 39 q 205 -2 159 1 m 146 801 q 118 785 130 785 q 104 793 110 785 q 98 806 98 800 q 100 814 98 809 q 116 833 102 820 q 198 892 149 864 q 268 920 248 920 q 282 913 275 920 q 290 900 290 907 q 258 871 290 883 q 146 801 201 848 m 98 692 q 80 684 90 684 q 70 686 77 684 q 57 703 62 688 q 56 711 56 707 q 58 723 56 716 q 68 734 60 730 q 81 737 75 737 q 96 732 87 737 q 106 715 104 728 q 107 711 107 713 q 98 692 107 702 "},"t":{"ha":755,"x_min":-54,"x_max":795,"o":"m 341 6 q 363 5 354 5 q 386 7 372 5 q 433 22 408 10 q 472 48 457 33 q 531 229 531 102 l 531 235 q 529 309 531 277 q 522 380 527 340 q 510 541 510 475 q 525 656 510 617 q 562 695 536 683 q 644 715 587 708 q 704 727 682 720 q 744 747 726 734 q 795 836 794 780 l 795 842 q 725 942 795 913 q 666 956 705 949 q 590 965 628 962 q 549 967 566 967 q 532 966 539 967 q 471 965 525 966 q 340 964 416 964 q 195 962 247 962 q 119 960 144 961 q 83 956 95 958 q 2 926 38 947 q -47 878 -35 904 q -54 842 -54 860 q -35 789 -54 814 q 18 751 -16 765 q 112 730 52 738 q 191 709 165 723 q 211 691 201 703 q 223 668 220 679 q 227 640 227 656 q 218 576 227 614 q 211 539 214 559 q 206 504 208 519 q 202 459 204 476 q 196 414 201 443 q 194 387 195 402 q 193 347 193 372 q 194 274 193 320 q 195 197 195 222 q 198 161 196 172 q 203 139 199 150 q 261 41 220 77 q 298 18 275 28 q 341 6 321 8 m 123 878 q 109 876 117 877 q 98 873 102 874 q 93 873 95 873 q 88 874 91 873 q 81 880 85 875 q 74 887 77 884 q 72 893 72 891 q 77 906 72 899 q 88 916 81 913 q 146 926 104 922 q 198 928 173 928 q 222 927 210 928 q 248 925 239 926 q 259 922 256 924 q 267 916 263 920 q 273 908 271 911 q 273 903 273 906 l 273 899 q 268 887 272 891 q 249 883 264 884 q 201 882 235 882 q 154 881 176 882 q 123 878 132 880 m 26 834 q 14 831 18 831 q 10 831 13 831 q 0 836 7 831 q -12 853 -12 844 q -8 866 -12 857 q 15 880 -5 876 q 22 880 19 880 q 27 879 24 880 q 35 873 30 878 q 41 865 39 869 q 43 859 43 861 q 38 845 43 852 q 26 834 33 838 "},"u":{"ha":948,"x_min":18,"x_max":905,"o":"m 359 -1 q 385 -3 372 -3 q 398 -3 389 -3 q 433 -1 408 -3 q 501 7 458 1 q 671 52 604 20 q 716 81 692 63 q 757 117 741 100 q 896 470 865 241 q 900 504 897 486 q 903 536 902 523 q 905 603 905 557 q 903 695 905 648 q 899 764 901 741 q 839 924 882 878 q 726 975 792 975 l 724 975 q 576 847 619 973 q 560 782 568 824 q 549 707 552 740 q 547 686 547 696 q 545 665 545 671 q 543 614 544 658 q 541 509 541 570 q 537 404 539 448 q 534 352 536 359 q 517 307 530 328 q 490 279 504 286 q 471 275 481 275 q 430 294 451 275 q 414 313 420 303 q 403 339 408 323 q 393 401 395 362 q 393 431 393 414 q 395 522 393 467 q 400 680 400 618 q 395 766 400 741 q 331 898 382 850 q 229 939 284 939 q 210 938 220 939 q 119 887 161 930 q 79 834 94 863 q 51 760 64 806 q 19 530 22 655 q 18 498 18 514 q 39 304 18 392 q 113 127 64 203 q 259 16 167 47 q 304 6 272 12 q 359 -1 336 1 m 126 624 q 111 618 119 618 q 102 619 109 618 q 92 630 96 620 q 89 651 89 636 q 97 724 89 675 q 104 767 101 751 q 110 791 107 783 q 114 803 112 800 q 120 810 117 807 q 135 817 128 817 q 149 810 142 817 l 151 808 q 154 804 153 806 q 155 800 155 802 q 154 794 155 798 q 152 778 154 790 q 146 745 150 766 q 143 728 145 738 q 136 682 139 704 q 133 652 133 661 q 133 638 133 643 q 131 630 132 633 q 126 624 129 627 m 119 503 q 106 499 112 499 q 86 509 96 499 q 77 530 77 519 q 81 547 77 538 q 89 556 84 553 q 104 558 94 558 q 123 549 113 558 q 133 530 133 539 q 119 503 133 513 "},"v":{"ha":893,"x_min":7,"x_max":882,"o":"m 384 13 q 419 9 397 9 l 427 9 q 453 11 443 9 q 466 14 457 12 q 483 17 474 16 q 526 28 503 20 q 565 45 549 37 q 642 120 599 65 q 674 166 661 146 q 701 218 686 186 q 720 256 711 237 q 740 311 728 276 q 774 413 752 347 q 807 509 791 460 q 833 585 824 557 q 871 716 860 663 q 882 825 882 770 q 881 862 882 850 q 879 881 881 874 q 873 895 878 887 q 752 960 848 954 q 739 960 746 960 q 679 952 712 960 q 623 929 646 944 q 582 890 598 913 q 540 810 566 867 q 513 732 530 787 q 484 623 496 677 q 478 600 481 613 q 472 576 475 586 q 461 527 467 552 q 453 487 456 502 q 439 427 447 456 q 426 387 431 397 q 416 379 422 380 l 414 379 q 405 385 409 379 q 394 407 397 391 q 389 459 391 422 q 387 570 388 497 q 379 760 386 696 q 355 861 372 824 q 260 956 324 931 q 215 963 243 961 q 199 964 207 964 q 166 961 180 964 q 109 939 138 955 q 60 903 79 922 q 7 749 7 840 l 7 742 q 18 632 11 677 q 43 528 26 587 q 92 367 71 426 q 143 248 113 308 q 165 201 154 224 q 171 189 168 195 q 201 137 183 165 q 233 94 219 110 q 264 68 248 79 q 287 56 280 56 q 297 53 290 56 q 314 43 305 49 q 384 13 348 22 m 132 568 q 117 562 124 562 q 87 597 100 562 q 73 653 80 619 q 61 722 66 688 q 58 753 58 742 q 60 766 58 759 q 72 777 61 773 q 81 780 78 780 l 83 780 q 90 778 85 780 q 104 745 104 772 q 111 694 105 728 q 124 632 117 661 q 136 597 131 603 q 139 588 139 594 q 138 580 139 586 q 132 568 137 574 m 161 468 q 145 461 153 461 q 132 465 139 461 q 116 495 116 477 q 117 506 116 496 q 136 521 117 515 l 140 521 q 159 511 150 521 q 169 486 169 500 l 169 483 q 167 475 169 479 q 161 468 165 472 "},"w":{"ha":1194,"x_min":8,"x_max":1178,"o":"m 330 16 q 381 11 357 11 q 431 16 401 11 q 486 43 462 22 q 503 69 494 52 q 518 101 513 85 q 529 170 524 120 q 536 282 534 219 q 549 391 541 375 q 565 412 555 402 q 581 421 575 421 q 598 409 588 421 q 613 383 608 397 q 631 325 621 361 q 648 254 640 288 q 686 140 663 180 q 848 26 744 31 l 853 26 q 1027 155 968 26 q 1052 230 1039 183 q 1070 315 1065 277 q 1095 423 1075 340 q 1140 605 1114 505 q 1173 744 1165 701 q 1178 803 1178 776 q 1177 823 1178 813 q 1139 932 1175 899 q 1117 950 1128 944 q 1086 959 1105 956 q 1055 961 1073 961 q 1020 960 1044 961 q 972 952 996 958 q 854 872 890 929 q 815 666 821 819 q 793 490 808 524 q 784 478 789 484 q 775 472 778 472 q 763 484 770 472 q 751 514 756 496 q 741 562 744 535 q 733 643 737 589 q 723 767 728 723 q 713 836 719 812 q 696 880 707 861 q 590 937 663 937 q 537 931 566 937 q 418 757 425 905 q 417 724 418 749 q 415 667 416 699 q 414 657 414 663 q 411 593 413 623 q 407 551 409 563 q 378 486 395 486 q 366 496 372 486 q 336 654 347 528 q 325 758 330 722 q 309 829 319 795 q 262 911 294 881 q 226 937 244 929 q 180 945 208 944 l 170 945 q 81 918 122 945 q 21 841 39 891 q 8 762 8 802 q 9 734 8 749 q 22 641 18 673 q 33 581 27 609 q 43 535 36 564 q 57 481 50 507 q 66 448 63 456 q 72 425 67 445 q 84 378 77 405 q 235 62 142 139 q 278 33 256 43 q 330 16 300 22 m 112 599 q 97 591 105 591 q 87 593 94 591 q 73 609 80 595 q 58 679 65 633 q 51 765 52 724 q 51 788 51 781 q 53 799 52 795 q 58 805 55 802 q 74 812 66 812 l 75 812 q 90 806 83 812 q 93 801 92 804 q 95 789 94 797 q 96 767 96 782 q 110 647 97 705 q 115 620 114 629 q 116 610 116 614 q 115 605 116 608 q 112 599 115 602 m 134 493 q 121 486 127 488 l 119 486 q 110 488 115 486 q 92 513 95 495 q 92 519 92 516 q 106 541 92 534 q 116 543 111 543 q 132 536 124 543 q 142 516 140 529 l 142 512 q 134 493 142 502 "},"x":{"ha":909,"x_min":18,"x_max":907,"o":"m 711 18 q 730 16 716 16 l 760 16 q 882 57 844 18 q 907 115 907 81 q 906 124 907 119 q 853 248 903 184 q 810 308 838 268 q 758 384 783 347 q 727 480 727 429 q 732 519 727 499 q 739 546 734 535 q 758 576 743 557 q 805 638 772 596 q 810 644 807 642 q 882 806 882 736 q 879 833 882 820 q 797 931 863 897 q 696 956 750 956 q 650 951 673 956 q 555 902 597 940 q 524 867 536 885 q 498 822 511 848 q 474 758 486 797 q 454 686 461 719 q 449 664 452 673 q 446 655 447 655 q 427 726 441 655 q 418 768 421 753 q 412 792 415 783 q 403 813 408 801 q 381 853 393 836 q 349 888 369 870 q 205 945 291 945 l 196 945 q 152 941 172 945 q 108 925 132 937 q 20 845 37 891 q 18 821 18 836 q 18 801 18 815 q 24 769 18 787 q 106 648 33 732 q 178 556 163 583 q 189 520 189 541 q 104 350 189 460 q 41 253 57 289 q 28 192 28 223 q 29 178 28 185 q 32 151 30 161 q 40 130 34 142 q 127 56 65 75 q 146 50 138 52 q 163 49 153 49 q 193 50 174 49 q 269 60 239 51 q 326 92 300 70 q 375 152 353 113 q 421 265 397 192 q 466 364 450 347 q 471 367 469 367 q 472 367 471 367 q 478 363 473 367 q 494 339 485 357 q 511 302 504 321 q 519 274 513 295 q 530 230 524 254 q 550 162 542 183 q 570 120 557 141 q 601 80 581 101 q 639 46 621 58 q 674 29 652 38 q 711 18 696 20 m 203 668 q 189 661 197 661 q 178 665 184 661 q 162 682 174 667 q 134 718 150 697 q 106 758 119 739 q 93 783 94 774 l 93 786 q 100 800 93 794 q 113 807 106 807 q 131 796 122 807 q 148 775 136 791 q 176 739 161 759 q 203 700 195 713 q 210 681 210 688 l 210 677 q 203 668 210 673 m 266 584 q 250 577 259 577 q 234 581 243 577 q 219 604 219 586 q 220 610 219 607 q 243 633 223 633 q 255 630 251 633 q 265 618 259 627 q 273 600 273 608 q 266 584 273 591 "},"y":{"ha":831,"x_min":-18,"x_max":854,"o":"m 329 8 q 358 5 341 5 q 382 6 365 5 q 421 13 399 7 q 550 143 520 38 q 562 199 559 172 q 563 237 563 215 q 562 275 563 254 q 561 336 561 309 q 563 398 561 369 q 578 452 566 427 q 607 497 586 472 q 682 576 628 522 q 738 633 713 606 q 770 670 762 659 q 852 812 839 762 q 854 829 854 820 q 837 889 854 855 q 789 941 821 923 q 771 949 783 945 q 748 958 760 954 q 722 965 731 963 q 707 966 715 966 l 698 966 q 674 963 683 966 q 652 954 666 960 q 583 905 616 936 q 505 816 550 873 q 420 736 445 736 q 401 749 413 736 q 366 798 389 763 q 336 840 349 824 q 306 873 323 857 q 166 952 241 939 q 121 958 142 958 q 79 952 99 958 q -7 884 18 937 q -15 862 -13 871 q -18 836 -17 853 l -18 827 q 24 713 -18 771 q 80 652 43 687 q 153 591 117 617 q 173 578 161 586 q 187 568 181 572 q 253 479 253 522 q 252 467 253 473 q 249 452 250 461 q 245 434 247 442 q 235 357 239 382 q 232 338 233 348 q 229 311 231 329 q 222 258 227 293 q 218 195 218 224 q 265 46 218 93 q 296 23 277 34 q 329 8 315 12 m 62 785 q 53 784 57 784 q 36 791 44 784 q 31 800 32 795 q 30 805 30 802 q 31 813 30 808 q 54 867 33 840 q 100 908 75 895 q 135 918 121 918 q 156 905 151 918 q 158 896 158 901 q 132 872 158 880 q 104 856 117 867 q 84 831 93 845 q 75 809 75 817 q 71 795 75 803 q 62 785 66 787 m 112 716 q 94 708 103 708 q 79 715 86 708 q 72 732 72 724 q 81 751 72 741 q 89 757 85 755 q 94 758 91 758 q 98 757 96 758 q 119 735 116 754 q 119 730 119 732 q 118 724 119 727 q 112 716 117 722 "},"z":{"ha":832,"x_min":-7,"x_max":850,"o":"m 256 -4 q 302 -5 278 -5 q 506 14 390 -5 q 759 80 700 47 q 850 188 850 128 q 848 205 850 197 q 782 256 836 242 q 739 261 763 261 q 711 260 731 261 q 627 248 690 259 q 523 236 558 237 l 518 236 q 469 245 487 236 q 451 257 456 250 q 444 273 446 263 q 442 283 442 278 q 459 339 442 304 q 572 490 485 393 q 632 562 596 517 q 689 638 668 608 q 779 831 779 764 q 772 863 779 849 q 728 915 762 894 q 635 952 694 939 q 473 976 576 966 q 411 978 446 978 q 313 975 376 978 q 189 962 250 972 q 40 896 95 943 q -7 809 -7 854 q -5 793 -7 802 q 75 709 7 732 q 147 701 104 701 q 220 705 180 701 q 258 710 239 708 q 286 711 277 711 q 355 663 355 711 q 353 641 355 653 q 262 515 337 587 q 167 406 214 469 q 92 283 120 342 q 68 230 76 252 q 56 180 61 208 q 52 142 52 160 q 115 31 52 68 q 256 -4 161 2 m 155 856 q 142 851 149 853 q 132 849 136 849 q 114 863 119 849 q 113 871 113 867 q 119 886 113 879 q 149 902 125 892 q 202 918 173 911 q 267 927 229 926 l 304 928 l 314 921 q 323 905 322 913 l 323 903 q 317 889 323 895 q 312 885 315 886 q 302 883 309 884 q 284 883 296 883 q 260 882 273 883 q 239 880 247 881 q 196 870 220 877 q 155 856 171 863 m 81 785 q 68 782 74 782 q 54 787 62 782 q 45 808 45 792 q 53 827 45 819 q 71 835 60 835 q 87 827 79 835 q 96 811 96 819 q 81 785 96 795 "},"{":{"ha":912,"x_min":68,"x_max":844,"o":"m 589 -218 q 627 -220 608 -220 q 677 -217 647 -220 q 736 -205 708 -215 q 844 -49 844 -163 q 804 41 844 23 q 790 47 796 45 q 774 50 785 50 q 741 50 764 50 q 702 51 714 50 q 683 57 689 52 q 673 71 677 62 q 656 186 660 94 q 650 268 654 237 q 635 330 645 300 q 483 484 597 441 q 451 512 451 495 q 455 528 451 515 q 515 580 460 541 q 575 632 555 607 q 606 692 596 658 q 611 717 610 705 q 612 758 612 729 q 612 807 612 786 q 611 832 611 821 q 615 876 611 855 q 642 918 618 897 q 720 966 665 939 q 806 1084 806 1013 q 805 1099 806 1091 q 777 1155 801 1132 q 663 1192 745 1192 q 529 1179 602 1192 q 418 1148 457 1166 q 332 1045 367 1124 q 294 912 298 966 q 294 880 294 896 q 299 801 294 841 q 307 707 304 760 q 308 692 308 699 q 304 656 308 671 q 279 631 300 642 q 211 608 258 621 q 75 524 100 575 q 70 511 72 517 q 68 498 68 506 q 68 476 68 490 q 70 445 68 456 q 75 421 71 434 q 166 344 95 351 q 203 338 190 340 q 225 334 217 336 q 239 329 233 332 q 282 290 269 319 q 299 192 294 261 q 357 -70 311 33 q 475 -196 401 -171 q 528 -208 492 -201 q 589 -218 563 -215 m 419 907 q 404 900 414 900 q 387 907 395 900 q 382 913 384 910 q 381 922 381 916 q 382 941 381 928 q 409 1044 387 997 q 454 1095 431 1091 q 469 1088 463 1095 q 476 1074 476 1082 q 474 1065 476 1071 q 468 1055 471 1060 q 440 1003 452 1035 q 427 939 429 971 q 424 918 426 925 q 419 907 422 910 m 417 814 q 400 807 410 807 q 382 814 390 807 q 375 833 375 823 q 382 853 375 844 q 399 861 389 861 q 416 854 408 861 q 423 835 423 846 l 423 833 q 417 814 423 823 "},"|":{"ha":476,"x_min":68,"x_max":408,"o":"m 253 -146 q 355 -35 313 -131 q 379 62 372 7 q 386 201 386 116 l 386 243 q 399 646 386 458 q 408 869 408 788 q 407 924 408 879 q 390 1019 406 970 q 278 1118 357 1112 l 273 1118 q 259 1117 266 1118 q 236 1108 252 1115 q 213 1096 222 1101 q 193 1080 204 1090 q 115 966 140 1032 q 68 647 69 856 q 69 575 68 620 q 73 491 71 530 q 76 446 75 453 q 77 423 77 441 q 73 315 77 390 q 69 210 69 258 q 83 47 69 112 q 107 -21 91 16 q 139 -79 123 -58 q 171 -113 153 -96 q 201 -136 189 -130 q 228 -145 213 -142 q 243 -146 236 -146 q 253 -146 248 -146 m 174 751 q 155 739 168 739 q 146 740 154 739 q 134 755 139 741 q 133 786 133 762 q 134 838 133 811 q 138 878 136 865 q 161 910 143 910 q 170 909 165 910 q 182 899 178 905 q 184 888 184 894 q 184 882 184 886 q 178 800 178 861 q 176 768 178 782 q 174 751 175 754 m 175 652 q 153 633 169 635 l 150 633 q 129 648 136 633 q 127 657 127 652 q 130 672 127 663 q 142 685 134 681 q 152 687 147 687 q 168 680 161 687 q 176 661 176 671 q 175 652 176 657 "},"}":{"ha":912,"x_min":68,"x_max":844,"o":"m 323 1191 q 286 1192 305 1192 q 235 1190 266 1192 q 176 1178 204 1187 q 68 1021 68 1136 q 109 931 68 949 q 122 925 116 927 q 138 923 127 923 q 172 922 149 922 q 211 921 198 922 q 229 916 223 920 q 239 901 235 911 q 256 786 252 879 q 262 704 258 736 q 277 642 267 673 q 429 488 315 532 q 461 460 461 477 q 457 445 461 457 q 397 393 452 432 q 337 340 357 366 q 306 280 316 315 q 301 256 302 268 q 300 214 300 243 q 300 165 300 186 q 301 140 301 152 q 297 97 301 117 q 270 55 294 76 q 192 6 247 34 q 106 -112 106 -40 q 107 -127 106 -119 q 135 -182 111 -159 q 249 -220 168 -220 q 383 -207 311 -220 q 494 -176 455 -194 q 580 -73 545 -152 q 618 60 614 6 q 618 92 618 76 q 613 172 618 132 q 605 265 608 212 q 605 280 605 273 q 609 316 605 302 q 633 341 612 331 q 701 365 654 351 q 837 449 812 397 q 842 461 840 456 q 844 474 844 467 q 844 496 844 482 q 843 527 844 516 q 837 551 841 538 q 746 629 817 622 q 709 634 722 632 q 687 639 695 637 q 673 644 680 641 q 630 682 643 653 q 613 781 618 711 q 555 1042 601 940 q 437 1168 511 1143 q 385 1181 420 1174 q 323 1191 349 1187 m 493 66 q 508 73 498 73 q 525 65 517 73 q 530 59 528 62 q 531 50 531 56 q 530 32 531 45 q 504 -72 526 -24 q 458 -122 481 -119 q 443 -116 450 -122 q 436 -102 436 -109 q 438 -93 436 -98 q 444 -83 441 -87 q 472 -31 460 -62 q 486 34 483 1 q 488 55 486 47 q 493 66 490 62 m 495 158 q 512 165 502 165 q 530 159 522 165 q 537 139 537 150 q 530 119 537 128 q 513 112 523 112 q 496 119 504 112 q 489 138 489 126 l 489 140 q 495 158 489 150 "},"¢":{"ha":951,"x_min":68,"x_max":883,"o":"m 460 -111 q 501 -115 474 -115 q 526 -115 506 -115 q 570 -110 545 -115 q 675 -38 647 -93 q 686 0 682 -23 q 688 33 688 16 q 688 45 688 39 q 687 62 687 56 q 688 70 687 67 q 692 75 689 73 q 720 88 701 83 q 779 96 739 93 q 827 103 812 98 q 854 119 843 108 q 883 203 883 146 q 877 242 883 227 q 855 270 871 256 q 822 289 842 282 q 758 305 802 296 q 558 347 600 336 q 405 526 407 391 l 405 538 q 405 548 405 543 q 407 559 405 553 q 412 571 409 564 q 444 612 422 591 q 487 644 465 633 q 554 668 518 659 q 658 685 589 676 q 732 696 705 691 q 777 707 760 701 q 810 724 793 713 q 848 762 837 739 q 859 823 859 785 q 859 845 859 838 q 856 859 858 853 q 851 872 854 865 q 760 935 826 923 q 736 937 748 937 q 703 935 724 937 q 675 933 686 933 q 661 934 669 933 q 647 944 653 935 q 631 976 640 954 q 588 1048 612 1025 q 524 1081 565 1071 q 498 1086 512 1085 q 457 1088 484 1088 q 399 1084 418 1088 q 369 1068 381 1080 q 355 1049 360 1060 q 348 1015 351 1038 q 344 945 346 991 q 341 898 342 914 q 335 874 339 882 q 324 861 332 867 q 305 850 319 858 q 272 833 290 842 q 211 800 235 815 q 168 766 187 784 q 85 626 109 708 q 68 511 68 569 q 71 459 68 485 q 134 297 85 353 q 267 187 182 241 q 326 138 300 164 q 361 94 349 115 q 376 45 372 73 q 389 -23 383 1 q 401 -61 395 -47 q 419 -85 408 -75 q 438 -101 429 -96 q 460 -111 448 -107 m 191 577 q 180 576 186 576 q 174 576 178 576 q 164 581 169 577 q 159 594 159 585 q 171 631 159 607 q 309 785 227 740 q 340 795 328 795 q 355 787 350 795 q 361 774 361 781 q 330 744 361 758 q 209 607 260 709 q 198 587 203 595 q 191 577 193 578 m 179 463 q 162 457 170 457 q 147 463 154 457 q 137 487 137 472 q 138 498 137 492 q 161 519 146 519 q 177 514 168 519 q 191 490 191 505 q 179 463 191 474 "},"£":{"ha":1154,"x_min":68,"x_max":1086,"o":"m 265 7 q 315 5 277 5 l 340 5 q 402 6 366 5 q 471 10 439 7 q 532 17 499 14 q 557 19 546 18 q 608 23 576 21 q 672 25 641 24 q 712 26 694 26 q 751 25 730 26 q 810 21 772 24 q 924 15 880 15 q 978 19 959 15 q 1069 88 1042 37 q 1086 153 1086 124 q 1033 235 1086 205 q 867 258 983 258 q 667 247 783 258 q 574 240 606 240 q 549 242 557 240 q 529 250 534 245 q 526 259 526 253 q 526 264 526 262 q 558 318 532 292 q 622 363 584 345 q 637 370 631 368 q 656 373 644 372 q 690 374 667 374 q 733 377 720 376 q 758 382 747 378 q 842 461 842 412 q 833 494 842 477 q 734 564 808 547 q 714 567 725 566 q 684 569 703 568 q 631 569 665 569 l 550 569 l 538 581 q 520 607 528 591 q 508 640 511 624 q 506 662 506 652 q 551 738 506 712 q 576 745 562 745 q 607 737 587 745 q 676 690 627 729 q 738 645 713 661 q 785 621 763 629 q 834 607 813 611 q 888 604 856 604 l 903 604 q 917 604 910 604 q 931 606 924 604 q 945 610 937 607 q 1002 664 980 625 q 1019 728 1019 696 q 1019 742 1019 735 q 875 887 1005 821 q 537 968 711 968 q 493 966 515 968 q 429 959 454 964 q 368 943 404 954 q 197 816 235 903 q 178 770 184 791 q 172 722 173 749 l 172 708 q 175 673 172 688 q 193 628 178 657 q 204 603 199 614 q 209 587 208 591 q 207 578 209 581 q 199 573 205 576 q 182 567 194 570 q 158 559 171 563 q 115 543 131 551 q 90 524 100 535 q 68 467 68 497 q 68 449 68 465 q 90 412 68 432 q 141 388 109 395 q 236 382 174 382 q 282 380 263 381 q 302 379 300 380 q 303 376 303 378 q 271 349 303 368 q 142 201 159 281 q 140 177 140 190 q 144 130 140 159 q 160 77 149 100 q 265 7 186 26 m 286 747 q 269 730 281 733 q 264 730 266 730 q 247 739 254 730 q 241 753 241 745 q 245 768 241 758 q 269 806 248 779 q 324 858 291 833 q 389 893 357 882 q 412 899 405 899 q 418 899 414 899 q 430 890 423 899 q 436 882 435 886 q 437 877 437 880 l 437 874 q 428 861 435 866 q 408 852 422 856 q 334 808 370 839 q 286 747 298 777 m 269 633 q 257 630 262 630 q 241 638 248 630 q 233 656 233 647 q 240 674 233 665 q 248 681 244 680 q 258 683 252 683 q 278 673 272 683 q 283 657 283 665 q 282 647 283 654 q 269 633 281 640 "},"¥":{"ha":956,"x_min":68,"x_max":888,"o":"m 463 5 q 508 1 481 1 q 553 5 535 1 q 609 31 583 13 q 646 71 635 50 q 661 140 661 98 q 672 195 661 181 q 760 234 683 212 q 819 253 800 245 q 848 271 838 262 q 861 301 861 285 q 838 346 861 321 q 713 390 801 386 q 660 402 660 392 q 669 412 660 406 q 698 426 680 420 q 750 437 716 431 q 833 459 806 447 q 872 490 861 471 q 882 522 882 507 q 871 555 882 535 q 821 586 861 575 q 801 590 814 588 q 774 592 787 591 q 756 594 763 593 q 747 595 750 594 q 743 598 744 596 q 743 602 743 600 l 743 605 q 744 612 743 608 q 752 627 745 616 q 773 656 758 637 q 884 851 866 787 q 888 887 888 871 q 884 914 888 902 q 866 941 880 928 q 838 959 852 954 q 761 969 802 969 q 718 967 750 969 q 649 947 685 964 q 598 903 621 932 q 554 821 576 873 q 528 767 538 784 q 507 743 518 751 q 479 729 492 729 q 470 732 475 729 q 456 748 463 735 q 441 790 450 762 q 329 947 406 911 q 222 971 278 971 q 184 968 203 971 q 86 922 112 958 q 68 867 68 897 q 90 796 68 834 q 118 761 102 774 q 169 730 134 747 q 211 706 197 714 q 233 693 225 699 q 250 682 241 688 q 284 638 284 655 q 279 631 283 634 q 261 625 274 628 q 223 618 248 623 q 137 599 165 609 q 93 572 109 589 q 71 523 71 549 q 72 514 71 519 q 158 417 79 439 q 197 414 172 414 q 231 415 205 414 q 307 420 256 415 q 338 423 328 423 l 342 423 q 352 420 349 423 q 355 411 355 418 q 224 370 355 378 q 185 366 202 368 q 162 363 168 364 q 126 345 142 357 q 105 320 111 333 q 102 300 102 311 q 106 275 102 292 q 124 241 110 258 q 232 211 147 211 l 235 211 q 280 209 259 211 q 309 202 301 206 q 323 188 318 197 q 332 156 328 178 q 387 47 346 87 q 463 5 418 17 m 238 777 q 225 770 233 770 q 217 772 223 770 q 190 787 210 773 q 119 874 119 837 q 125 892 119 885 q 140 899 131 899 q 163 878 157 899 q 177 854 166 866 q 212 827 189 842 q 234 811 225 818 q 243 802 242 804 q 245 793 245 798 q 238 777 245 785 m 307 726 q 290 718 298 718 q 280 720 285 718 q 264 747 264 729 q 273 762 264 753 q 288 770 281 770 q 304 762 296 770 q 313 743 312 753 l 313 741 q 307 726 313 732 "},"©":{"ha":1420,"x_min":68,"x_max":1352,"o":"m 688 14 q 726 12 713 13 l 739 12 q 755 13 745 12 q 788 14 764 13 q 998 54 899 20 q 1341 375 1275 152 q 1352 466 1352 421 q 1280 685 1352 578 q 804 953 1126 899 q 691 960 752 960 q 641 960 682 960 q 538 949 600 960 q 243 829 370 920 q 179 771 212 806 q 125 703 146 736 q 68 508 68 611 q 69 477 68 493 q 366 100 98 238 q 688 14 514 25 m 672 260 q 703 255 688 256 q 741 254 718 254 l 747 254 q 808 260 784 254 q 852 286 833 267 q 881 345 881 316 q 864 385 881 366 q 836 405 853 397 q 785 417 818 412 q 724 432 745 425 q 694 452 704 440 q 679 474 683 464 q 674 496 674 484 q 692 533 674 519 q 719 546 702 542 q 766 552 736 551 q 847 562 821 555 q 888 587 874 570 q 913 645 913 616 q 908 673 913 652 q 861 708 903 694 q 813 718 842 713 q 767 722 785 722 q 641 704 705 722 q 559 670 589 690 q 503 614 529 650 q 456 486 456 551 q 459 449 456 467 q 566 301 481 355 q 615 278 585 290 q 672 260 646 267 m 587 571 q 570 554 575 558 q 558 551 564 551 q 539 562 545 551 q 536 572 536 567 q 541 587 536 579 q 562 611 545 595 q 597 640 578 627 q 625 657 608 648 q 656 673 642 667 q 675 680 671 680 q 694 668 688 680 q 696 657 696 663 q 693 646 696 651 q 683 638 691 644 q 665 628 675 633 q 621 601 639 614 q 587 571 603 588 m 530 471 q 519 467 524 467 q 514 468 518 467 q 503 474 510 468 q 494 492 494 482 q 499 508 494 497 q 522 520 503 518 q 541 510 534 520 q 545 494 545 503 q 544 485 545 492 q 530 471 542 477 m 229 667 q 211 660 222 660 q 193 667 200 660 q 187 686 187 676 q 194 704 187 696 q 202 710 197 708 q 214 713 207 712 q 222 713 219 713 q 228 713 225 713 q 235 708 231 712 q 241 692 241 701 q 229 667 241 680 m 309 760 q 289 741 298 749 q 277 732 280 733 l 274 732 q 257 739 264 732 q 250 755 250 746 q 251 760 250 758 q 264 778 252 765 q 293 807 277 791 q 321 831 309 822 q 372 863 347 850 q 410 879 397 877 q 417 880 414 880 q 423 879 420 880 q 430 873 426 878 q 435 866 433 870 q 437 859 437 862 q 432 845 437 852 q 418 836 426 838 q 388 821 410 833 q 351 797 367 809 q 332 782 344 792 q 309 760 320 771 m 798 186 q 723 183 768 183 q 648 187 678 183 q 444 262 533 203 q 395 302 420 278 q 356 347 370 327 q 311 486 311 414 q 317 551 311 500 q 398 672 323 602 q 605 775 483 749 q 724 787 666 787 q 902 758 802 787 q 1078 636 1002 728 q 1133 494 1131 570 q 1134 476 1134 485 q 1131 440 1134 455 q 1019 274 1108 342 q 798 186 929 205 "},"«":{"ha":1244,"x_min":68,"x_max":1177,"o":"m 434 103 q 473 100 452 100 q 502 101 481 100 q 549 109 523 102 q 639 185 639 130 q 625 233 639 207 q 609 259 619 246 q 576 296 599 272 q 533 340 559 315 q 486 385 508 365 q 448 423 464 406 q 428 446 431 440 q 416 484 416 464 q 431 536 416 508 q 444 557 437 547 q 464 585 450 568 q 501 629 477 602 q 523 656 511 642 q 541 682 534 671 q 576 777 576 736 q 549 840 576 813 q 463 871 513 871 q 360 844 418 871 q 295 803 328 829 q 216 730 262 777 q 80 541 102 618 q 68 466 68 503 q 116 319 68 391 q 162 264 132 296 q 218 211 193 232 q 434 103 328 125 m 233 606 q 220 600 226 600 q 205 606 212 600 q 198 621 198 612 q 212 649 198 633 q 251 693 226 667 q 301 740 277 718 q 335 768 325 762 q 345 770 340 770 q 359 765 351 770 q 367 747 367 760 q 366 741 367 744 q 359 733 364 739 q 344 718 355 728 q 314 691 333 708 q 283 662 299 677 q 259 636 268 646 q 243 617 251 626 q 233 606 236 609 m 175 511 q 162 507 168 507 q 146 515 153 507 q 140 532 140 522 q 144 547 140 539 q 163 564 151 562 q 167 565 165 565 q 186 556 176 565 q 192 540 192 549 q 190 528 192 536 q 175 511 188 519 m 972 103 q 1010 100 989 100 q 1040 101 1019 100 q 1087 109 1061 102 q 1177 185 1177 130 q 1163 233 1177 207 q 1147 259 1157 246 q 1114 296 1137 272 q 1071 340 1097 315 q 1024 385 1046 365 q 985 423 1002 406 q 966 446 969 440 q 954 484 954 464 q 969 536 954 508 q 981 557 975 547 q 1002 585 988 568 q 1039 629 1015 602 q 1060 656 1049 642 q 1079 682 1072 671 q 1114 777 1114 736 q 1086 840 1114 813 q 1001 871 1050 871 q 898 844 956 871 q 833 803 866 829 q 754 730 800 777 q 618 541 640 618 q 606 466 606 503 q 654 319 606 391 q 700 264 669 296 q 755 211 730 232 q 972 103 865 125 m 770 606 q 758 600 764 600 q 743 606 750 600 q 736 621 736 612 q 749 649 736 633 q 789 693 764 667 q 839 740 814 718 q 873 768 863 762 q 883 770 878 770 q 897 765 889 770 q 905 747 905 760 q 903 741 905 744 q 897 733 902 739 q 882 718 892 728 q 852 691 871 708 q 821 662 837 677 q 797 636 806 646 q 781 617 789 626 q 770 606 774 609 m 713 511 q 700 507 706 507 q 684 515 691 507 q 678 532 678 522 q 682 547 678 539 q 701 564 688 562 q 705 565 703 565 q 724 556 714 565 q 730 540 730 549 q 728 528 730 536 q 713 511 726 519 "},"®":{"ha":1420,"x_min":68,"x_max":1352,"o":"m 576 239 q 608 235 590 235 q 641 239 627 235 q 669 256 656 244 q 713 363 703 282 q 723 408 718 397 q 732 416 726 416 q 736 416 734 416 q 745 405 739 414 q 755 384 750 396 q 764 363 761 372 q 769 351 764 360 q 779 331 773 342 q 888 239 819 258 q 903 238 896 238 q 945 250 923 238 q 980 292 966 262 q 987 310 985 302 q 988 334 988 318 q 987 359 988 351 q 979 379 985 367 q 965 401 974 391 q 937 431 957 412 q 903 469 903 464 q 908 482 903 474 q 928 507 913 490 q 949 539 944 526 q 955 574 955 552 q 953 597 955 589 q 947 613 951 604 q 850 703 919 670 q 672 738 785 738 q 549 716 588 738 q 508 684 522 703 q 489 631 495 665 q 486 566 487 616 l 486 516 q 486 451 486 491 q 489 388 487 412 q 576 239 500 263 m 688 14 q 726 12 713 13 l 739 12 q 755 13 746 12 q 788 14 764 13 q 998 54 899 20 q 1341 375 1275 152 q 1352 467 1352 421 q 1281 685 1352 578 q 804 953 1127 899 q 691 960 752 960 q 641 960 682 960 q 538 949 601 960 q 244 829 370 920 q 179 771 212 806 q 125 703 146 736 q 68 507 68 611 q 69 477 68 492 q 366 100 98 238 q 688 14 514 25 m 229 667 q 211 660 222 660 q 193 667 200 660 q 188 684 188 675 q 188 691 188 686 q 194 704 188 696 q 202 710 197 708 q 215 713 207 712 q 222 713 220 713 q 229 713 226 713 q 235 708 231 712 q 241 692 241 701 q 229 667 241 680 m 309 760 q 289 741 298 749 q 277 732 280 733 l 275 732 q 257 739 264 732 q 250 755 250 746 q 251 760 250 758 q 265 778 253 765 q 293 807 277 791 q 322 831 309 822 q 372 863 347 850 q 410 879 398 877 q 417 880 414 880 q 423 879 420 880 q 431 873 426 878 q 436 866 433 870 q 438 859 438 862 q 432 845 438 852 q 418 836 426 838 q 389 821 410 833 q 351 797 367 809 q 332 782 344 792 q 309 760 321 771 m 798 186 q 723 183 768 183 q 648 187 678 183 q 444 262 533 203 q 396 302 421 278 q 357 347 371 327 q 311 487 311 415 q 317 552 311 501 q 398 672 324 602 q 605 775 484 749 q 724 787 666 787 q 902 758 802 787 q 1078 636 1003 728 q 1134 494 1131 570 l 1134 480 q 1131 440 1134 457 q 1019 274 1109 342 q 798 186 930 205 m 752 552 q 738 541 745 541 q 728 546 735 541 q 722 576 722 551 q 729 606 722 595 q 742 615 735 615 q 746 614 744 615 q 755 600 752 612 q 758 580 758 591 q 758 569 758 577 q 752 552 757 561 m 579 534 q 564 527 572 527 q 547 537 555 527 q 543 559 543 543 q 549 614 543 578 q 564 672 555 654 q 587 691 572 689 q 592 692 590 692 q 597 691 595 692 q 605 684 600 690 q 613 668 613 676 q 608 655 613 661 q 596 622 602 646 q 589 570 591 597 q 587 551 588 557 q 585 541 587 545 q 579 534 583 538 m 581 454 q 566 448 574 448 q 550 455 556 448 q 543 473 543 463 q 545 483 543 479 q 552 491 547 487 q 560 496 555 494 q 567 498 564 498 q 586 482 581 498 q 588 472 588 477 q 581 454 588 463 "},"°":{"ha":573,"x_min":68,"x_max":505,"o":"m 267 526 l 296 526 q 317 528 309 527 q 332 530 326 528 q 481 648 434 553 q 505 751 505 699 q 492 830 505 790 q 314 986 444 960 q 281 988 299 988 q 248 986 262 988 q 130 923 177 973 q 69 798 82 872 q 68 762 68 782 q 69 727 68 743 q 142 587 83 644 q 267 526 193 538 m 154 829 q 140 816 148 816 q 134 817 137 816 q 127 830 127 821 q 131 846 127 836 q 214 936 157 896 q 231 943 224 943 q 241 935 237 943 q 242 930 242 932 q 239 923 242 927 q 222 909 235 918 q 154 829 174 872 m 124 759 q 114 755 119 755 q 105 758 111 755 q 100 771 100 761 q 115 786 100 785 q 124 785 121 786 q 130 779 127 783 q 131 773 131 777 q 130 767 131 771 q 124 759 129 763 m 306 696 q 295 694 300 694 q 239 732 262 694 q 233 763 233 747 q 233 776 233 766 q 245 799 234 786 q 281 816 262 816 q 321 798 300 816 q 342 757 339 780 q 343 747 343 752 q 334 715 343 730 q 306 696 323 701 "},"»":{"ha":1244,"x_min":68,"x_max":1177,"o":"m 811 869 q 772 871 793 871 q 743 870 764 871 q 696 863 722 869 q 606 787 606 842 q 620 739 606 765 q 636 713 626 726 q 669 675 646 700 q 712 632 686 657 q 759 587 737 607 q 798 549 781 566 q 817 526 814 532 q 828 488 828 509 q 814 435 828 464 q 802 414 808 425 q 781 387 795 404 q 744 342 768 370 q 723 315 734 330 q 704 290 711 300 q 669 195 669 236 q 696 132 669 159 q 781 100 732 100 q 885 127 827 100 q 950 169 917 142 q 1029 241 983 195 q 1165 431 1143 353 q 1177 506 1177 469 q 1129 653 1177 581 q 1083 708 1114 675 q 1027 761 1053 740 q 811 869 918 847 m 1013 366 q 1025 372 1019 372 q 1040 366 1032 372 q 1047 351 1047 359 q 1034 323 1047 339 q 994 279 1019 304 q 944 232 968 254 q 910 204 920 210 q 900 202 905 202 q 886 207 894 202 q 878 224 878 212 q 880 231 878 228 q 886 239 881 233 q 901 254 890 244 q 931 281 912 264 q 962 310 946 294 q 986 336 977 326 q 1002 354 994 346 q 1013 366 1009 363 m 1070 461 q 1083 465 1077 465 q 1099 457 1092 465 q 1105 440 1105 450 q 1101 425 1105 433 q 1082 408 1095 410 q 1078 408 1080 408 q 1059 416 1069 408 q 1053 433 1053 423 q 1055 445 1053 436 q 1070 461 1057 453 m 273 869 q 235 871 256 871 q 205 870 226 871 q 158 863 184 869 q 68 787 68 842 q 82 739 68 765 q 98 713 88 726 q 132 675 109 700 q 174 632 149 657 q 221 587 199 607 q 260 549 243 566 q 279 526 276 532 q 290 488 290 509 q 276 435 290 464 q 264 414 271 425 q 243 387 257 404 q 206 342 230 370 q 185 315 196 330 q 166 290 174 300 q 131 195 131 236 q 159 132 131 159 q 243 100 194 100 q 347 127 290 100 q 412 169 379 142 q 491 241 445 195 q 627 431 605 353 q 639 506 639 469 q 591 653 639 581 q 545 708 576 675 q 490 761 515 740 q 273 869 380 847 m 475 366 q 488 372 481 372 q 502 366 494 372 q 509 351 509 359 q 496 323 509 339 q 456 279 481 304 q 407 232 431 254 q 372 204 382 210 q 362 202 367 202 q 348 207 356 202 q 340 224 340 212 q 342 231 340 228 q 348 239 343 233 q 363 254 353 244 q 393 281 374 264 q 424 310 408 294 q 448 336 439 326 q 464 354 456 346 q 475 366 471 363 m 532 461 q 545 465 539 465 q 561 457 554 465 q 567 440 567 450 q 564 425 567 433 q 545 408 557 410 q 541 408 543 408 q 522 416 531 408 q 515 433 515 423 q 517 445 515 436 q 532 461 519 453 "},"×":{"ha":787,"x_min":68,"x_max":719,"o":"m 580 221 q 589 227 585 224 q 596 232 593 230 q 640 284 612 246 q 685 351 668 321 q 703 406 703 383 q 703 414 703 410 q 694 445 702 429 q 667 484 686 460 q 644 527 644 511 l 644 535 q 671 577 645 543 q 696 616 688 601 q 711 646 705 631 q 719 688 719 667 q 677 775 719 733 q 651 795 663 789 q 624 802 640 801 q 614 803 619 803 q 593 799 604 803 q 562 781 581 795 q 509 736 542 766 q 468 700 483 712 q 446 685 454 688 q 439 683 442 683 q 434 684 436 683 q 424 692 431 686 q 408 705 416 698 q 308 752 357 752 q 261 741 284 752 q 221 718 242 732 q 187 690 200 704 q 132 579 132 630 q 143 534 132 556 q 150 523 146 528 q 160 511 153 517 q 178 494 166 505 q 197 475 190 483 q 205 467 205 468 q 195 456 205 467 q 170 430 184 446 q 109 366 130 390 q 80 328 88 342 q 68 299 71 313 q 68 288 68 294 q 71 264 68 279 q 81 237 73 250 q 104 208 90 222 q 134 185 119 194 q 183 170 159 170 q 216 177 194 170 q 300 233 238 183 q 345 266 330 257 q 363 273 356 273 q 366 272 365 273 q 378 267 370 271 q 395 255 387 262 q 513 204 458 205 l 517 204 q 549 209 531 204 q 580 221 566 213 m 225 563 q 212 541 224 546 q 203 539 208 539 q 186 547 195 539 q 181 558 182 552 q 180 576 180 564 q 215 670 180 627 q 231 685 223 682 q 239 687 235 687 q 245 686 242 687 q 258 676 254 684 q 261 666 261 671 q 260 661 261 663 q 256 651 260 658 q 246 637 252 644 q 229 604 233 620 q 225 573 225 591 l 225 563 m 275 503 q 264 484 275 490 q 252 479 258 479 q 241 481 248 479 q 228 497 233 484 q 227 505 227 501 q 231 518 227 512 q 250 526 237 526 l 252 526 q 275 503 275 524 "},"÷":{"ha":503,"x_min":68,"x_max":435,"o":"m 233 100 q 282 96 253 96 l 290 96 q 331 100 313 96 q 427 165 400 117 q 433 182 432 175 q 435 207 435 190 q 433 231 435 223 q 426 250 431 239 q 289 353 385 326 q 220 362 253 362 q 117 335 165 362 q 68 253 68 300 q 79 204 68 230 q 108 165 89 184 q 148 132 127 145 q 233 100 186 111 m 233 614 q 282 610 253 610 l 290 610 q 331 614 313 610 q 427 680 400 631 q 433 696 432 689 q 435 721 435 704 q 433 745 435 737 q 426 764 431 753 q 289 867 385 840 q 221 876 254 876 q 117 848 165 876 q 68 766 68 814 q 79 718 68 743 q 108 679 89 699 q 148 646 127 660 q 233 614 186 625 m 153 753 q 146 751 150 752 q 138 750 142 750 q 117 764 123 750 q 113 779 113 772 q 116 792 113 785 q 127 802 119 798 q 142 806 136 806 q 158 798 150 806 q 166 783 166 789 q 162 765 166 774 q 153 753 158 756 m 153 239 q 146 237 150 238 q 138 236 142 236 q 117 250 123 236 q 113 265 113 258 q 116 278 113 271 q 127 288 119 283 q 142 292 136 292 q 158 284 150 292 q 166 269 166 276 q 162 251 166 260 q 153 239 158 242 "},"‘":{"ha":577,"x_min":68,"x_max":509,"o":"m 249 678 q 309 695 273 683 q 366 717 345 707 q 404 739 380 724 q 449 769 427 754 q 478 793 470 785 q 491 808 484 800 q 500 824 497 817 q 509 851 509 841 q 509 864 509 862 q 503 895 509 882 q 380 972 465 957 q 365 973 373 973 q 226 919 311 973 q 135 850 180 890 q 76 783 90 809 q 68 758 68 768 q 68 746 68 747 q 73 718 68 730 q 94 696 80 706 q 122 681 107 686 q 165 675 142 676 q 193 675 188 675 q 249 678 227 675 m 335 886 q 328 903 328 895 q 336 922 328 912 q 351 930 344 930 q 369 920 360 930 q 378 901 378 910 q 376 893 378 897 q 353 880 372 880 q 342 881 347 880 q 335 886 338 882 "},"’":{"ha":577,"x_min":68,"x_max":509,"o":"m 249 678 q 309 695 273 683 q 366 717 345 707 q 404 739 380 724 q 449 769 427 754 q 478 793 470 785 q 491 808 484 800 q 500 824 497 817 q 509 851 509 841 q 509 864 509 862 q 503 895 509 882 q 380 972 465 957 q 365 973 373 973 q 226 919 311 973 q 135 850 180 890 q 76 783 90 809 q 68 758 68 768 q 68 746 68 747 q 73 718 68 730 q 94 696 80 706 q 122 681 107 686 q 165 675 142 676 q 193 675 188 675 q 249 678 227 675 m 335 886 q 328 903 328 895 q 336 922 328 912 q 351 930 344 930 q 369 920 360 930 q 378 901 378 910 q 376 893 378 897 q 353 880 372 880 q 342 881 347 880 q 335 886 338 882 "},"‚":{"ha":577,"x_min":68,"x_max":509,"o":"m 249 3 q 309 20 273 8 q 366 42 345 32 q 404 64 380 50 q 449 95 427 79 q 478 118 470 110 q 491 134 484 125 q 500 149 497 142 q 509 177 509 166 q 509 189 509 187 q 503 220 509 207 q 380 297 465 282 q 365 298 373 298 q 226 244 311 298 q 135 175 180 216 q 76 108 90 134 q 68 83 68 93 q 68 71 68 73 q 73 43 68 55 q 94 21 80 31 q 122 6 107 11 q 165 1 142 1 q 193 0 188 0 q 249 3 227 0 m 335 212 q 328 229 328 220 q 336 247 328 237 q 351 255 344 255 q 369 245 360 255 q 378 226 378 235 q 376 218 378 222 q 353 205 372 205 q 342 206 347 205 q 335 212 338 208 "},"“":{"ha":1058,"x_min":68,"x_max":990,"o":"m 249 678 q 309 695 273 683 q 366 717 345 707 q 404 739 380 724 q 449 769 427 754 q 478 793 470 785 q 491 808 484 800 q 500 824 497 817 q 509 851 509 841 q 509 864 509 862 q 503 895 509 882 q 380 972 465 957 q 365 973 373 973 q 226 919 311 973 q 135 850 180 890 q 76 783 90 809 q 68 758 68 768 q 68 746 68 747 q 73 718 68 730 q 94 696 80 706 q 122 681 107 686 q 165 675 142 676 q 193 675 188 675 q 249 678 227 675 m 335 886 q 328 903 328 895 q 336 922 328 912 q 351 930 344 930 q 369 920 360 930 q 378 901 378 910 q 376 893 378 897 q 353 880 372 880 q 342 881 347 880 q 335 886 338 882 m 730 678 q 790 695 753 683 q 846 717 826 707 q 885 739 861 724 q 929 769 908 754 q 959 793 951 785 q 971 808 965 800 q 981 824 978 817 q 990 851 989 841 q 990 864 990 862 q 983 895 990 882 q 861 972 946 957 q 846 973 854 973 q 707 919 792 973 q 616 850 661 890 q 557 783 571 809 q 549 758 549 768 q 549 746 549 747 q 554 718 549 730 q 574 696 561 706 q 603 681 588 686 q 646 675 623 676 q 674 675 669 675 q 730 678 707 675 m 816 886 q 808 903 808 895 q 817 922 808 912 q 832 930 825 930 q 850 920 841 930 q 859 901 859 910 q 857 893 859 897 q 834 880 852 880 q 823 881 827 880 q 816 886 819 882 "},"”":{"ha":1058,"x_min":68,"x_max":990,"o":"m 249 678 q 309 695 273 683 q 366 717 345 707 q 404 739 380 724 q 449 769 427 754 q 478 793 470 785 q 491 808 484 800 q 500 824 497 817 q 509 851 509 841 q 509 864 509 862 q 503 895 509 882 q 380 972 465 957 q 365 973 373 973 q 226 919 311 973 q 135 850 180 890 q 76 783 90 809 q 68 758 68 768 q 68 746 68 747 q 73 718 68 730 q 94 696 80 706 q 122 681 107 686 q 165 675 142 676 q 193 675 188 675 q 249 678 227 675 m 335 886 q 328 903 328 895 q 336 922 328 912 q 351 930 344 930 q 369 920 360 930 q 378 901 378 910 q 376 893 378 897 q 353 880 372 880 q 342 881 347 880 q 335 886 338 882 m 730 678 q 790 695 753 683 q 846 717 826 707 q 885 739 861 724 q 929 769 908 754 q 959 793 951 785 q 971 808 965 800 q 981 824 978 817 q 990 851 989 841 q 990 864 990 862 q 983 895 990 882 q 861 972 946 957 q 846 973 854 973 q 707 919 792 973 q 616 850 661 890 q 557 783 571 809 q 549 758 549 768 q 549 746 549 747 q 554 718 549 730 q 574 696 561 706 q 603 681 588 686 q 646 675 623 676 q 674 675 669 675 q 730 678 707 675 m 816 886 q 808 903 808 895 q 817 922 808 912 q 832 930 825 930 q 850 920 841 930 q 859 901 859 910 q 857 893 859 897 q 834 880 852 880 q 823 881 827 880 q 816 886 819 882 "},"„":{"ha":1058,"x_min":68,"x_max":990,"o":"m 249 -1 q 309 16 273 4 q 366 38 345 28 q 404 60 380 45 q 449 91 427 75 q 478 114 470 106 q 491 130 484 121 q 500 145 497 138 q 509 173 509 162 q 509 185 509 183 q 503 216 509 203 q 380 293 465 278 q 365 294 373 294 q 226 240 311 294 q 135 171 180 212 q 76 104 90 130 q 68 79 68 89 q 68 67 68 68 q 73 39 68 51 q 94 17 80 27 q 122 2 107 7 q 165 -3 142 -3 q 193 -4 188 -4 q 249 -1 227 -4 m 335 208 q 328 224 328 216 q 336 243 328 233 q 351 251 344 251 q 369 241 360 251 q 378 222 378 231 q 376 214 378 218 q 353 201 372 201 q 342 202 347 201 q 335 208 338 203 m 730 -1 q 790 16 753 4 q 846 38 826 28 q 885 60 861 45 q 929 91 908 75 q 959 114 951 106 q 971 130 965 121 q 981 145 978 138 q 990 173 989 162 q 990 185 990 183 q 983 216 990 203 q 861 293 946 278 q 846 294 854 294 q 707 240 792 294 q 616 171 661 212 q 557 104 571 130 q 549 79 549 89 q 549 67 549 68 q 554 39 549 51 q 574 17 561 27 q 603 2 588 7 q 646 -3 623 -3 q 674 -4 669 -4 q 730 -1 707 -4 m 816 208 q 808 224 808 216 q 817 243 808 233 q 832 251 825 251 q 850 241 841 251 q 859 222 859 231 q 857 214 859 218 q 834 201 852 201 q 823 202 827 201 q 816 208 819 203 "},"‹":{"ha":707,"x_min":68,"x_max":639,"o":"m 434 103 q 473 100 452 100 q 502 101 481 100 q 549 109 523 102 q 639 185 639 130 q 625 233 639 207 q 609 259 619 246 q 576 296 599 272 q 533 340 559 315 q 486 385 508 365 q 448 423 464 406 q 428 446 431 440 q 416 484 416 464 q 431 536 416 508 q 444 557 437 547 q 464 585 450 568 q 501 629 477 602 q 523 656 511 642 q 541 682 534 671 q 576 777 576 736 q 549 840 576 813 q 463 871 513 871 q 360 844 418 871 q 295 803 328 829 q 216 730 262 777 q 80 541 102 618 q 68 466 68 503 q 116 319 68 391 q 162 264 132 296 q 218 211 193 232 q 434 103 328 125 m 233 606 q 220 600 226 600 q 205 606 212 600 q 198 621 198 612 q 212 649 198 633 q 251 693 226 667 q 301 740 277 718 q 335 768 325 762 q 345 770 340 770 q 359 765 351 770 q 367 747 367 760 q 366 741 367 744 q 359 733 364 739 q 344 718 355 728 q 314 691 333 708 q 283 662 299 677 q 259 636 268 646 q 243 617 251 626 q 233 606 236 609 m 175 511 q 162 507 168 507 q 146 515 153 507 q 140 532 140 522 q 144 547 140 539 q 163 564 151 562 q 167 565 165 565 q 186 556 176 565 q 192 540 192 549 q 190 528 192 536 q 175 511 188 519 "},"›":{"ha":707,"x_min":68,"x_max":639,"o":"m 273 869 q 235 871 256 871 q 205 870 226 871 q 158 863 184 869 q 68 787 68 842 q 82 739 68 765 q 98 713 88 726 q 132 675 109 700 q 174 632 149 657 q 221 587 199 607 q 260 549 243 566 q 279 526 276 532 q 290 488 290 509 q 276 435 290 464 q 264 414 271 425 q 243 387 257 404 q 206 342 230 370 q 185 315 196 330 q 166 290 174 300 q 131 195 131 236 q 159 132 131 159 q 243 100 194 100 q 347 127 290 100 q 412 169 379 142 q 491 241 445 195 q 627 431 605 353 q 639 506 639 469 q 591 653 639 581 q 545 708 576 675 q 490 761 515 740 q 273 869 380 847 m 475 366 q 488 372 481 372 q 502 366 494 372 q 509 351 509 359 q 496 323 509 339 q 456 279 481 304 q 407 232 431 254 q 372 204 382 210 q 362 202 367 202 q 348 207 356 202 q 340 224 340 212 q 342 231 340 228 q 348 239 343 233 q 363 254 353 244 q 393 281 374 264 q 424 310 408 294 q 448 336 439 326 q 464 354 456 346 q 475 366 471 363 m 532 461 q 545 465 539 465 q 561 457 554 465 q 567 440 567 450 q 564 425 567 433 q 545 408 557 410 q 541 408 543 408 q 522 416 531 408 q 515 433 515 423 q 517 445 515 436 q 532 461 519 453 "},"€":{"ha":1127,"x_min":68,"x_max":1059,"o":"m 867 1 q 884 0 876 0 q 989 31 941 0 q 1056 128 1038 61 q 1059 159 1059 144 q 1036 227 1059 197 q 970 260 1015 248 q 949 264 960 263 q 916 266 939 266 q 846 266 892 267 l 814 266 q 773 266 800 266 q 709 272 747 267 q 646 292 672 278 q 619 334 619 307 q 625 336 619 335 q 645 337 631 336 q 686 337 660 337 q 732 337 718 337 q 754 339 747 338 q 769 343 762 340 q 817 408 817 368 q 799 447 817 432 q 747 470 783 463 q 636 479 711 477 q 584 481 602 479 q 559 484 566 482 q 552 490 552 486 q 555 493 552 492 q 568 495 559 494 q 595 497 577 496 q 641 498 612 498 q 728 505 701 500 q 774 518 756 509 q 815 573 812 540 l 815 579 q 785 626 815 609 q 740 638 767 635 q 665 644 713 642 q 617 646 633 644 q 596 650 602 647 q 591 659 591 653 q 598 672 591 665 q 617 686 606 680 q 888 736 687 718 q 975 748 945 741 q 1025 768 1005 755 q 1052 825 1052 787 q 1048 856 1052 839 q 1036 886 1043 873 q 1015 913 1028 899 q 847 972 962 964 q 823 972 836 972 q 577 926 714 972 q 355 797 439 879 q 319 753 338 779 q 286 702 300 727 q 273 682 279 690 q 264 671 267 673 q 199 665 259 667 q 131 659 151 663 q 95 643 111 654 q 68 600 72 627 q 68 592 68 596 q 83 555 68 571 q 105 542 92 546 q 149 535 118 538 q 179 530 170 533 q 195 520 188 527 q 201 504 201 515 l 201 493 l 184 493 q 104 467 127 493 q 83 422 87 448 q 81 407 81 414 q 89 374 81 389 q 161 333 115 333 q 181 334 168 333 q 209 338 194 336 q 235 340 223 340 q 245 341 241 341 q 250 340 248 341 q 258 335 253 340 q 268 322 263 330 q 279 307 272 317 q 295 285 287 296 l 302 275 q 481 112 374 176 q 707 23 588 47 q 787 11 736 18 q 867 1 838 3 m 425 721 q 400 704 410 706 q 396 703 398 703 q 382 710 389 703 q 375 726 375 718 q 381 741 375 733 q 434 787 396 759 q 510 838 472 814 q 560 861 549 861 q 576 854 569 861 q 583 839 583 846 q 560 814 583 826 q 490 771 527 797 q 425 721 452 745 m 352 638 q 340 634 345 634 l 338 634 q 328 636 334 634 q 317 653 317 642 l 317 655 q 324 676 317 666 q 344 687 331 687 q 364 677 358 687 q 369 663 369 671 q 367 652 369 660 q 352 638 365 645 "},"−":{"ha":861,"x_min":68,"x_max":793,"o":"m 654 627 q 451 635 547 635 q 408 634 429 635 q 171 610 293 632 q 81 555 94 593 q 68 497 68 517 q 91 423 68 460 q 210 347 125 366 q 323 338 254 338 l 334 338 q 545 348 412 338 q 603 353 582 351 q 635 356 625 355 q 653 359 646 357 q 669 361 660 360 q 696 363 677 362 q 784 412 774 372 q 793 469 793 452 q 768 557 793 513 q 654 627 731 618 m 382 540 q 366 537 379 538 q 335 536 352 536 q 252 530 273 536 q 245 530 248 530 q 225 544 231 530 q 223 553 223 549 q 256 576 223 571 q 296 580 269 578 q 348 581 323 581 q 380 580 372 581 q 394 568 393 575 q 395 560 395 561 q 382 540 395 547 m 481 539 q 473 538 477 538 q 454 546 463 538 q 447 562 447 553 q 449 572 447 567 q 462 584 453 581 q 477 587 471 587 q 486 585 482 587 q 500 564 500 578 l 500 562 q 481 539 498 545 "}}}
